<?xml version="1.0" encoding="utf-8" ?>
<svg xmlns="http://www.w3.org/2000/svg" xmlns:cc="http://creativecommons.org/ns" xmlns:dc="http://purl.org/dc/elements/1.1/" xmlns:ev="http://www.w3.org/2001/xml-events" xmlns:inkscape="http://www.inkscape.org/namespaces/inkscape" xmlns:rdf="http://www.w3.org/1999/02/22-rdf-syntax-ns" xmlns:sodipodi="http://sodipodi.sourceforge.net/DTD/sodipodi-0.dtd" xmlns:xlink="http://www.w3.org/1999/xlink" baseProfile="tiny" height="22.56895833cm" version="1.2" viewBox="0 0 682.0 853.0" width="18.04458333cm">
  <metadata>
    <rdf:RDF>
      <cc:Work>
        <dc:format>image/svg+xml</dc:format>
        <dc:source>vpype read ./images/3.skeleton_images/blackberryskeleton.svg linemerge --tolerance 0.1mm linesort write outputfile.svg
</dc:source>
        <dc:date>2026-03-16T15:21:54.651533</dc:date>
      </cc:Work>
    </rdf:RDF>
  </metadata>
  <defs/>
  <g fill="none" id="layer1" inkscape:groupmode="layer" inkscape:label="1" stroke="#000000" stroke-width="1.0" style="display:inline">
    <line x1="278.0" x2="279.0" y1="0.0" y2="2.0"/>
    <polyline points="306.0,52.0 302.0,59.0 302.0,60.0 301.0,64.0 301.0,65.0 301.0,69.0 301.0,69.0 299.0,70.0 298.0,71.0 293.0,74.0 293.0,75.0 299.0,82.0 300.0,83.0 307.0,87.0 308.0,87.0 317.0,87.0 318.0,87.0 320.0,87.0 321.0,86.0 323.0,84.0 323.0,84.0 322.0,87.0 323.0,88.0 326.0,92.0 327.0,93.0 330.0,101.0 330.0,102.0 333.0,106.0 334.0,106.0 337.0,105.0 338.0,104.0 341.0,105.0 341.0,105.0 343.0,106.0 344.0,106.0 347.0,104.0 348.0,103.0 347.0,101.0 347.0,101.0 349.0,102.0 350.0,101.0 359.0,98.0 360.0,98.0 364.0,99.0 365.0,99.0 369.0,95.0 368.0,94.0 365.0,92.0 364.0,91.0 358.0,88.0 357.0,87.0 353.0,84.0 352.0,83.0 354.0,74.0 353.0,73.0 353.0,64.0 353.0,63.0 354.0,56.0 354.0,55.0 355.0,48.0 354.0,47.0 353.0,40.0 352.0,39.0 350.0,34.0 349.0,33.0 345.0,28.0 344.0,27.0 337.0,24.0 336.0,24.0 328.0,25.0 327.0,26.0 318.0,32.0 317.0,33.0 313.0,37.0 312.0,38.0 310.0,42.0 310.0,43.0 306.0,49.0 306.0,50.0 306.0,52.0 306.0,52.0 307.0,52.0 308.0,52.0 310.0,55.0"/>
    <line x1="306.0" x2="301.0" y1="65.0" y2="69.0"/>
    <polyline points="323.0,84.0 328.0,81.0 329.0,81.0 332.0,81.0 333.0,81.0 338.0,84.0 339.0,85.0 341.0,89.0"/>
    <polyline points="347.0,101.0 344.0,100.0 343.0,100.0 341.0,102.0 341.0,103.0 341.0,105.0"/>
    <polyline points="410.0,101.0 412.0,104.0 413.0,106.0 415.0,109.0"/>
    <polyline points="417.0,116.0 416.0,118.0 416.0,119.0 419.0,122.0 420.0,122.0 426.0,121.0"/>
    <polyline points="424.0,114.0 427.0,117.0 427.0,118.0 426.0,121.0 426.0,121.0 429.0,122.0 430.0,122.0 439.0,128.0 440.0,128.0 443.0,123.0 443.0,122.0 448.0,121.0 449.0,121.0 451.0,115.0 451.0,114.0 453.0,107.0 453.0,106.0 455.0,103.0 456.0,102.0 458.0,100.0 458.0,100.0 457.0,96.0 456.0,95.0 454.0,89.0 454.0,88.0 455.0,83.0 455.0,82.0 455.0,75.0 455.0,74.0 456.0,67.0 456.0,66.0 457.0,59.0 456.0,58.0 453.0,52.0 452.0,51.0 447.0,44.0 446.0,43.0 440.0,41.0 439.0,41.0 436.0,39.0 436.0,38.0 431.0,33.0 430.0,33.0 421.0,38.0 420.0,39.0 415.0,42.0 414.0,42.0 410.0,46.0 409.0,46.0 403.0,54.0 402.0,55.0 401.0,62.0 401.0,63.0 401.0,71.0 401.0,72.0 402.0,80.0 402.0,81.0 401.0,86.0 401.0,87.0 405.0,93.0 405.0,94.0 405.0,97.0 405.0,98.0 410.0,101.0 410.0,101.0 406.0,107.0 407.0,108.0 409.0,112.0 410.0,113.0 413.0,116.0 414.0,116.0 417.0,116.0 417.0,116.0 419.0,114.0 420.0,114.0 424.0,114.0 424.0,114.0 424.0,113.0 424.0,112.0 421.0,104.0"/>
    <polyline points="430.0,97.0 431.0,100.0 431.0,101.0 436.0,110.0 436.0,111.0 438.0,120.0"/>
    <line x1="458.0" x2="459.0" y1="100.0" y2="100.0"/>
    <polyline points="483.0,150.0 481.0,157.0 481.0,158.0 480.0,162.0"/>
    <polyline points="469.0,176.0 471.0,179.0 471.0,180.0 471.0,183.0"/>
    <polyline points="507.0,209.0 505.0,212.0 505.0,213.0 506.0,217.0 506.0,218.0 507.0,220.0 507.0,220.0 503.0,221.0 502.0,221.0 499.0,220.0 498.0,220.0 493.0,221.0 492.0,220.0 487.0,217.0 486.0,217.0 482.0,215.0 481.0,214.0 479.0,212.0 478.0,211.0 475.0,205.0 474.0,204.0 471.0,198.0 470.0,197.0 468.0,193.0 468.0,192.0 466.0,186.0 465.0,185.0 467.0,178.0 468.0,177.0 469.0,176.0 469.0,176.0 469.0,172.0 468.0,171.0 468.0,166.0 469.0,165.0 471.0,160.0 471.0,159.0 472.0,154.0 472.0,153.0 475.0,149.0 476.0,148.0 482.0,143.0 483.0,143.0 488.0,137.0 489.0,136.0 490.0,135.0 491.0,134.0 494.0,132.0 495.0,131.0 501.0,128.0 502.0,127.0 507.0,123.0 509.0,122.0 511.0,121.0 512.0,121.0 521.0,120.0 522.0,120.0 526.0,120.0 527.0,120.0 532.0,121.0 533.0,121.0 541.0,121.0 542.0,122.0 547.0,127.0 548.0,128.0 550.0,136.0 550.0,137.0 547.0,145.0 547.0,146.0 549.0,151.0 549.0,152.0 551.0,158.0 551.0,159.0 552.0,164.0 551.0,165.0 550.0,168.0 550.0,168.0 546.0,170.0 545.0,170.0 544.0,168.0"/>
    <polyline points="550.0,168.0 549.0,171.0 549.0,172.0 547.0,176.0 547.0,176.0 546.0,177.0 546.0,178.0 543.0,184.0 542.0,185.0 541.0,190.0 541.0,191.0 538.0,196.0 537.0,197.0 534.0,198.0 533.0,198.0 530.0,201.0 530.0,202.0 528.0,207.0 527.0,208.0 525.0,212.0 524.0,213.0 519.0,218.0 518.0,219.0 512.0,222.0 511.0,222.0 507.0,220.0"/>
    <polyline points="527.0,195.0 529.0,193.0 530.0,192.0 534.0,188.0 534.0,187.0 534.0,184.0"/>
    <line x1="541.0" x2="547.0" y1="174.0" y2="176.0"/>
    <polyline points="600.0,240.0 599.0,243.0 599.0,244.0 601.0,246.0"/>
    <line x1="607.0" x2="609.0" y1="243.0" y2="240.0"/>
    <polyline points="617.0,239.0 619.0,243.0 619.0,244.0 621.0,249.0 621.0,249.0 614.0,249.0 613.0,249.0 611.0,251.0 611.0,251.0 610.0,250.0 609.0,251.0 607.0,252.0"/>
    <polyline points="611.0,251.0 611.0,252.0 612.0,253.0 615.0,256.0 616.0,257.0 619.0,261.0 619.0,262.0 620.0,264.0 620.0,264.0 622.0,263.0 623.0,263.0 624.0,262.0 624.0,261.0 624.0,259.0"/>
    <polyline points="621.0,249.0 622.0,248.0 623.0,248.0 625.0,247.0 626.0,246.0 628.0,247.0"/>
    <polyline points="634.0,255.0 633.0,259.0 633.0,260.0 631.0,262.0 630.0,263.0 628.0,269.0 628.0,270.0 628.0,274.0"/>
    <polyline points="617.0,274.0 615.0,275.0 614.0,275.0 610.0,275.0"/>
    <polyline points="605.0,268.0 612.0,265.0 612.0,264.0 610.0,261.0"/>
    <polyline points="601.0,253.0 604.0,253.0 605.0,253.0 607.0,252.0 607.0,252.0 607.0,256.0 608.0,257.0 610.0,261.0 610.0,261.0 614.0,263.0 615.0,263.0 620.0,264.0 620.0,264.0 618.0,267.0 618.0,268.0 620.0,270.0 621.0,271.0 622.0,272.0 623.0,273.0 619.0,279.0 619.0,280.0 622.0,284.0 622.0,285.0 622.0,288.0 622.0,288.0 625.0,288.0 626.0,288.0 628.0,287.0 629.0,286.0 632.0,284.0 632.0,283.0 633.0,279.0 634.0,278.0 636.0,274.0 637.0,272.0 639.0,267.0 639.0,266.0 640.0,259.0 640.0,258.0 639.0,251.0 639.0,250.0 638.0,244.0 638.0,243.0 636.0,236.0 635.0,235.0 633.0,232.0 632.0,232.0 628.0,231.0 627.0,231.0 621.0,230.0 620.0,231.0 614.0,231.0 613.0,231.0 604.0,234.0 603.0,234.0 596.0,235.0 595.0,236.0 587.0,238.0 586.0,239.0 579.0,242.0 578.0,242.0 572.0,245.0 571.0,246.0 566.0,250.0 565.0,251.0 561.0,255.0 560.0,256.0 556.0,260.0 555.0,261.0 553.0,265.0 552.0,266.0 550.0,270.0 550.0,271.0 550.0,276.0 550.0,277.0 550.0,282.0 550.0,283.0 551.0,288.0 552.0,289.0 556.0,296.0 557.0,297.0 560.0,300.0 561.0,301.0 567.0,303.0 568.0,302.0 570.0,300.0 570.0,300.0 571.0,296.0 571.0,295.0 566.0,291.0 566.0,291.0 566.0,287.0 566.0,286.0 565.0,281.0 565.0,281.0 567.0,284.0 568.0,283.0 569.0,279.0 569.0,279.0 568.0,278.0 567.0,279.0 565.0,281.0"/>
    <polyline points="569.0,279.0 569.0,277.0 569.0,276.0 568.0,274.0"/>
    <polyline points="577.0,271.0 577.0,268.0 577.0,267.0 571.0,264.0 571.0,264.0 573.0,261.0 574.0,260.0 574.0,257.0"/>
    <line x1="571.0" x2="569.0" y1="264.0" y2="264.0"/>
    <polyline points="580.0,263.0 585.0,257.0 586.0,257.0 589.0,257.0 590.0,257.0 594.0,261.0 594.0,262.0 591.0,267.0 591.0,268.0 587.0,271.0 586.0,271.0 582.0,270.0"/>
    <polyline points="577.0,278.0 578.0,277.0 579.0,277.0 584.0,279.0 585.0,280.0 588.0,283.0 588.0,284.0 591.0,288.0 592.0,290.0 596.0,293.0 597.0,293.0 600.0,290.0 600.0,289.0 600.0,287.0 600.0,287.0 597.0,286.0 596.0,286.0 594.0,286.0"/>
    <polyline points="600.0,287.0 602.0,286.0 603.0,285.0 606.0,284.0"/>
    <polyline points="614.0,292.0 615.0,294.0 616.0,293.0 617.0,294.0 617.0,294.0 618.0,292.0 618.0,291.0 622.0,288.0"/>
    <polyline points="617.0,294.0 617.0,295.0 617.0,296.0 616.0,299.0 616.0,300.0 614.0,304.0 614.0,304.0 613.0,308.0 612.0,309.0 610.0,313.0 609.0,314.0 604.0,317.0 603.0,317.0 598.0,319.0 597.0,320.0 593.0,320.0 592.0,319.0 587.0,316.0 587.0,315.0 584.0,313.0 584.0,313.0 582.0,312.0 581.0,312.0 578.0,310.0 577.0,309.0 572.0,304.0 572.0,303.0 570.0,300.0"/>
    <polyline points="566.0,291.0 565.0,292.0 564.0,292.0 563.0,291.0"/>
    <polyline points="557.0,285.0 556.0,282.0 556.0,281.0 557.0,279.0"/>
    <line x1="558.0" x2="558.0" y1="273.0" y2="269.0"/>
    <line x1="573.0" x2="575.0" y1="283.0" y2="281.0"/>
    <line x1="574.0" x2="573.0" y1="288.0" y2="288.0"/>
    <polyline points="584.0,313.0 588.0,314.0 589.0,313.0 591.0,312.0"/>
    <polyline points="610.0,305.0 611.0,305.0 612.0,305.0 614.0,304.0"/>
    <polyline points="601.0,271.0 598.0,270.0 597.0,270.0 595.0,271.0"/>
    <polyline points="613.0,373.0 612.0,376.0 611.0,377.0 611.0,380.0"/>
    <polyline points="613.0,384.0 618.0,384.0 619.0,384.0 624.0,387.0 624.0,387.0 624.0,388.0 624.0,389.0 623.0,394.0 623.0,395.0 624.0,398.0"/>
    <polyline points="626.0,407.0 620.0,405.0 619.0,405.0 614.0,401.0"/>
    <line x1="609.0" x2="608.0" y1="401.0" y2="404.0"/>
    <polyline points="602.0,398.0 599.0,394.0 601.0,393.0 604.0,391.0 605.0,391.0 609.0,393.0 609.0,394.0 608.0,395.0 608.0,395.0 605.0,396.0 604.0,397.0 602.0,398.0 602.0,398.0 597.0,396.0 596.0,397.0 593.0,398.0"/>
    <polyline points="587.0,402.0 584.0,405.0 583.0,405.0 579.0,407.0 578.0,408.0 575.0,412.0 575.0,413.0 575.0,418.0 576.0,419.0 575.0,424.0 575.0,424.0 575.0,426.0 575.0,427.0 569.0,432.0 568.0,432.0 564.0,430.0 563.0,429.0 559.0,424.0 559.0,423.0 556.0,417.0"/>
    <line x1="548.0" x2="545.0" y1="416.0" y2="414.0"/>
    <line x1="547.0" x2="549.0" y1="421.0" y2="422.0"/>
    <polyline points="565.0,412.0 568.0,410.0 569.0,411.0 571.0,414.0"/>
    <polyline points="575.0,424.0 578.0,424.0 579.0,424.0 583.0,423.0 584.0,423.0 586.0,424.0 587.0,424.0 589.0,425.0 589.0,425.0 590.0,423.0 591.0,422.0 593.0,415.0 594.0,414.0 592.0,411.0"/>
    <polyline points="589.0,425.0 593.0,430.0 593.0,431.0 595.0,435.0 595.0,435.0 596.0,435.0 597.0,435.0 602.0,435.0 602.0,435.0 605.0,431.0 606.0,430.0 608.0,426.0 608.0,426.0 607.0,423.0 607.0,422.0 609.0,420.0 609.0,420.0 610.0,420.0 611.0,421.0 614.0,424.0 614.0,424.0 611.0,425.0 610.0,425.0 608.0,426.0"/>
    <polyline points="609.0,420.0 607.0,415.0 607.0,414.0 610.0,412.0 611.0,413.0 613.0,413.0 613.0,413.0 615.0,411.0 615.0,410.0 615.0,408.0 615.0,407.0 614.0,401.0 614.0,401.0 613.0,399.0 613.0,398.0 612.0,396.0 611.0,396.0 608.0,395.0"/>
    <polyline points="596.0,385.0 590.0,386.0 589.0,386.0 587.0,385.0"/>
    <polyline points="624.0,387.0 627.0,383.0 627.0,382.0 628.0,380.0 629.0,380.0 632.0,381.0"/>
    <polyline points="632.0,391.0 635.0,388.0 636.0,388.0 637.0,386.0 637.0,385.0 644.0,377.0 644.0,376.0 643.0,375.0 643.0,375.0 640.0,373.0 639.0,373.0 634.0,371.0 633.0,371.0 627.0,369.0 626.0,369.0 622.0,367.0 621.0,366.0 616.0,365.0 615.0,366.0 610.0,367.0 609.0,368.0 603.0,371.0 602.0,371.0 597.0,374.0 596.0,375.0 592.0,377.0 591.0,377.0 586.0,380.0 585.0,381.0 587.0,385.0 587.0,385.0 584.0,384.0 583.0,384.0 575.0,389.0 574.0,390.0 571.0,395.0 570.0,396.0 569.0,397.0 568.0,398.0 562.0,398.0 561.0,398.0 557.0,403.0 556.0,404.0 555.0,409.0 555.0,410.0 553.0,414.0 552.0,414.0 548.0,416.0 548.0,416.0 548.0,418.0 548.0,419.0 547.0,421.0 547.0,421.0 543.0,424.0 543.0,425.0 545.0,430.0 546.0,431.0 552.0,436.0 553.0,436.0 557.0,442.0 558.0,443.0 561.0,449.0 562.0,450.0 568.0,455.0 569.0,456.0 573.0,462.0 573.0,463.0 580.0,468.0 581.0,468.0 583.0,469.0 584.0,469.0 586.0,465.0 586.0,465.0 588.0,470.0 589.0,470.0 592.0,465.0 592.0,465.0 589.0,465.0 588.0,465.0 586.0,465.0 586.0,465.0 584.0,464.0"/>
    <polyline points="592.0,465.0 594.0,470.0 595.0,469.0 601.0,468.0 602.0,467.0 608.0,463.0 609.0,462.0 613.0,459.0 614.0,459.0 618.0,458.0 619.0,457.0 624.0,454.0 625.0,454.0 629.0,450.0 629.0,449.0 631.0,444.0 632.0,443.0 632.0,441.0"/>
    <polyline points="633.0,436.0 634.0,437.0 634.0,438.0 632.0,441.0 632.0,441.0 631.0,442.0 630.0,441.0 628.0,439.0 628.0,438.0 627.0,435.0 627.0,435.0 626.0,432.0 626.0,431.0 627.0,424.0"/>
    <polyline points="620.0,422.0 614.0,424.0 614.0,424.0 618.0,420.0 616.0,419.0 613.0,415.0 613.0,414.0 613.0,413.0"/>
    <polyline points="614.0,424.0 614.0,426.0 614.0,427.0 613.0,430.0 613.0,431.0 613.0,434.0"/>
    <polyline points="608.0,442.0 607.0,441.0 606.0,441.0 600.0,442.0 600.0,442.0 603.0,438.0 603.0,437.0 602.0,435.0 602.0,435.0 598.0,437.0 598.0,438.0 600.0,442.0 600.0,442.0 601.0,444.0 601.0,445.0 606.0,447.0 607.0,447.0 608.0,442.0 608.0,442.0 609.0,443.0 610.0,443.0 614.0,442.0 615.0,442.0 620.0,439.0 621.0,438.0 623.0,437.0 624.0,437.0 627.0,435.0 627.0,435.0 630.0,435.0 631.0,435.0 633.0,436.0 633.0,436.0 635.0,436.0 636.0,435.0 642.0,431.0 642.0,430.0 643.0,429.0 644.0,429.0 649.0,427.0 650.0,426.0 653.0,418.0 653.0,417.0 653.0,408.0 653.0,407.0 652.0,405.0 652.0,405.0 647.0,402.0 647.0,401.0 652.0,399.0 652.0,399.0 653.0,401.0 653.0,402.0 652.0,405.0"/>
    <polyline points="646.0,399.0 652.0,399.0 652.0,399.0 653.0,397.0 653.0,396.0 653.0,391.0 653.0,390.0 652.0,382.0 652.0,381.0 646.0,375.0 645.0,375.0 643.0,375.0"/>
    <polyline points="633.0,411.0 634.0,413.0 635.0,413.0 640.0,416.0 640.0,416.0 641.0,420.0 641.0,421.0 639.0,423.0"/>
    <polyline points="640.0,416.0 636.0,412.0 637.0,411.0 642.0,410.0 643.0,411.0 648.0,416.0"/>
    <line x1="679.0" x2="681.0" y1="446.0" y2="445.0"/>
    <polyline points="605.0,458.0 602.0,457.0 601.0,457.0 599.0,458.0"/>
    <polyline points="593.0,448.0 591.0,444.0 590.0,443.0 584.0,440.0 583.0,440.0 576.0,444.0 575.0,445.0 579.0,447.0"/>
    <line x1="593.0" x2="595.0" y1="438.0" y2="435.0"/>
    <polyline points="622.0,512.0 624.0,517.0 624.0,517.0 624.0,520.0 624.0,521.0 624.0,522.0 624.0,522.0 620.0,524.0 619.0,524.0 619.0,529.0 620.0,529.0 624.0,522.0 624.0,522.0 627.0,522.0 628.0,522.0 633.0,522.0 634.0,522.0 636.0,522.0 636.0,522.0 640.0,521.0 641.0,521.0 643.0,522.0 643.0,522.0 644.0,520.0 644.0,519.0 644.0,517.0 644.0,517.0 640.0,515.0 639.0,514.0 634.0,513.0 633.0,513.0 631.0,515.0"/>
    <polyline points="626.0,511.0 629.0,510.0 630.0,510.0 631.0,511.0 632.0,512.0 631.0,515.0 631.0,515.0 628.0,516.0 627.0,516.0 624.0,517.0 624.0,517.0 620.0,513.0 619.0,513.0 615.0,515.0 614.0,516.0 611.0,518.0 610.0,519.0 608.0,522.0 608.0,522.0 604.0,523.0 603.0,524.0 600.0,529.0 600.0,529.0 598.0,530.0 597.0,530.0 592.0,533.0 591.0,533.0 589.0,535.0 588.0,536.0 586.0,538.0 586.0,538.0 583.0,537.0 582.0,537.0 578.0,539.0 577.0,540.0 572.0,547.0 571.0,548.0 569.0,554.0 569.0,554.0 568.0,556.0 568.0,557.0 573.0,559.0 573.0,559.0 574.0,564.0 574.0,565.0 574.0,571.0 574.0,571.0 573.0,570.0 572.0,570.0 570.0,571.0 570.0,571.0 570.0,574.0 570.0,575.0 567.0,578.0 566.0,578.0 565.0,577.0 565.0,577.0 565.0,575.0 565.0,574.0 566.0,572.0 567.0,570.0 570.0,571.0 570.0,571.0 572.0,566.0 573.0,566.0 574.0,571.0 574.0,571.0 575.0,574.0 575.0,575.0 577.0,578.0 577.0,578.0 582.0,578.0"/>
    <polyline points="583.0,578.0 589.0,583.0 589.0,584.0 583.0,590.0 582.0,590.0 580.0,588.0 580.0,587.0 580.0,585.0 580.0,585.0 576.0,582.0 576.0,581.0 577.0,578.0 577.0,578.0 581.0,581.0 581.0,582.0 580.0,585.0"/>
    <line x1="570.0" x2="570.0" y1="588.0" y2="592.0"/>
    <polyline points="559.0,588.0 557.0,592.0 557.0,593.0 558.0,600.0 558.0,600.0 555.0,600.0 554.0,599.0 551.0,593.0 551.0,592.0 551.0,583.0 551.0,582.0 551.0,579.0 551.0,578.0 553.0,572.0"/>
    <polyline points="558.0,569.0 557.0,573.0 557.0,574.0 559.0,576.0"/>
    <line x1="564.0" x2="565.0" y1="576.0" y2="577.0"/>
    <polyline points="560.0,562.0 555.0,563.0 554.0,564.0 552.0,570.0 552.0,571.0 553.0,572.0 553.0,572.0 554.0,572.0 555.0,572.0 558.0,569.0 558.0,569.0 561.0,565.0 561.0,564.0 560.0,562.0 560.0,562.0 563.0,561.0 564.0,561.0 566.0,560.0 567.0,560.0 573.0,559.0 573.0,559.0 574.0,557.0 574.0,556.0 575.0,552.0 575.0,552.0 573.0,550.0 572.0,549.0 569.0,554.0 569.0,554.0 572.0,554.0 573.0,554.0 575.0,552.0 575.0,552.0 577.0,553.0 578.0,553.0 580.0,550.0 580.0,549.0 580.0,547.0 580.0,547.0 581.0,548.0 582.0,548.0 584.0,542.0 584.0,542.0 582.0,543.0 581.0,544.0 580.0,547.0"/>
    <polyline points="584.0,542.0 585.0,541.0 585.0,540.0 586.0,538.0"/>
    <polyline points="595.0,544.0 597.0,540.0 598.0,539.0 604.0,536.0 605.0,535.0 605.0,532.0 605.0,531.0 606.0,529.0 606.0,529.0 609.0,525.0 609.0,524.0 608.0,522.0"/>
    <polyline points="606.0,529.0 604.0,530.0 603.0,530.0 600.0,529.0"/>
    <polyline points="620.0,541.0 615.0,540.0 614.0,541.0 613.0,544.0 613.0,545.0 617.0,547.0 617.0,547.0 611.0,546.0 610.0,546.0 610.0,550.0 611.0,551.0 616.0,550.0 616.0,549.0 617.0,547.0 617.0,547.0 620.0,547.0 621.0,547.0 623.0,548.0 623.0,548.0 622.0,550.0 622.0,551.0 623.0,554.0 623.0,554.0 623.0,556.0 623.0,557.0 621.0,560.0 621.0,560.0 618.0,560.0 617.0,560.0 613.0,562.0 613.0,563.0 613.0,565.0 613.0,566.0 613.0,567.0 613.0,567.0 611.0,569.0 610.0,569.0 608.0,568.0"/>
    <polyline points="613.0,567.0 617.0,567.0 618.0,567.0 624.0,566.0 624.0,566.0 625.0,565.0 626.0,565.0 630.0,566.0 630.0,566.0 631.0,563.0 631.0,562.0 634.0,560.0 635.0,560.0 637.0,560.0 637.0,560.0 638.0,559.0 639.0,559.0 641.0,558.0 641.0,558.0 640.0,557.0 641.0,558.0 642.0,557.0 643.0,556.0 644.0,553.0 644.0,553.0 646.0,551.0 647.0,551.0 650.0,549.0 650.0,549.0 648.0,545.0 648.0,544.0 646.0,542.0 646.0,542.0 643.0,543.0 642.0,543.0 641.0,542.0"/>
    <polyline points="641.0,536.0 640.0,538.0 640.0,539.0 641.0,542.0 641.0,542.0 639.0,542.0 638.0,542.0 635.0,540.0"/>
    <polyline points="630.0,541.0 632.0,541.0 633.0,540.0 635.0,540.0 635.0,540.0 634.0,539.0 634.0,538.0 634.0,537.0 634.0,537.0 638.0,534.0 639.0,535.0 641.0,536.0 641.0,536.0 642.0,535.0 643.0,535.0 649.0,533.0 649.0,533.0 645.0,537.0 645.0,538.0 646.0,542.0 646.0,542.0 650.0,538.0 650.0,537.0 649.0,533.0 649.0,533.0 651.0,533.0 652.0,532.0 653.0,533.0 653.0,533.0 656.0,529.0 655.0,528.0 656.0,526.0"/>
    <polyline points="656.0,521.0 660.0,520.0 661.0,522.0 662.0,521.0"/>
    <polyline points="649.0,522.0 647.0,526.0 648.0,527.0 649.0,529.0"/>
    <polyline points="653.0,533.0 659.0,536.0 659.0,537.0 659.0,544.0 659.0,545.0 658.0,549.0 658.0,549.0 654.0,549.0 653.0,549.0 650.0,549.0"/>
    <line x1="644.0" x2="639.0" y1="553.0" y2="556.0"/>
    <polyline points="641.0,558.0 646.0,565.0 647.0,566.0 649.0,566.0 649.0,566.0 651.0,564.0 652.0,563.0 655.0,563.0 655.0,563.0 657.0,561.0 658.0,560.0 659.0,557.0 659.0,557.0 659.0,553.0 659.0,552.0 658.0,549.0"/>
    <line x1="659.0" x2="660.0" y1="557.0" y2="557.0"/>
    <polyline points="655.0,563.0 656.0,565.0 655.0,566.0 653.0,570.0 653.0,570.0 653.0,573.0 653.0,574.0 650.0,579.0 650.0,580.0 648.0,584.0 648.0,584.0 647.0,584.0 646.0,584.0 641.0,582.0"/>
    <polyline points="637.0,580.0 639.0,581.0 640.0,581.0 641.0,582.0 641.0,582.0 643.0,578.0 643.0,577.0 642.0,573.0 641.0,573.0 639.0,574.0 639.0,574.0 638.0,577.0 638.0,578.0 637.0,580.0 637.0,580.0 635.0,581.0 634.0,582.0 631.0,582.0 630.0,583.0 628.0,583.0 628.0,583.0 627.0,585.0 627.0,586.0 627.0,588.0 627.0,588.0 626.0,589.0 625.0,589.0 621.0,588.0"/>
    <polyline points="627.0,588.0 627.0,590.0 628.0,591.0 632.0,593.0 633.0,593.0 638.0,596.0 639.0,597.0 642.0,601.0 642.0,601.0 641.0,604.0 641.0,605.0 637.0,610.0 636.0,610.0 634.0,611.0 633.0,611.0 630.0,608.0 630.0,608.0 626.0,609.0 625.0,609.0 618.0,605.0 617.0,604.0 611.0,599.0 610.0,599.0 608.0,601.0"/>
    <polyline points="596.0,598.0 600.0,597.0 600.0,596.0 601.0,591.0 601.0,590.0 598.0,589.0 597.0,589.0 596.0,590.0 595.0,591.0 594.0,593.0 594.0,593.0 595.0,596.0 595.0,597.0 596.0,598.0 596.0,598.0 594.0,599.0 593.0,599.0 589.0,597.0 589.0,596.0 591.0,594.0 592.0,594.0 594.0,593.0"/>
    <polyline points="587.0,609.0 592.0,612.0 593.0,612.0 597.0,615.0 597.0,615.0 597.0,611.0 597.0,610.0 593.0,607.0 592.0,607.0 587.0,609.0 587.0,609.0 586.0,614.0 586.0,615.0 589.0,622.0 589.0,622.0 584.0,616.0 583.0,616.0 581.0,616.0 580.0,616.0 578.0,616.0 578.0,616.0 575.0,615.0 574.0,615.0 569.0,612.0 569.0,611.0 568.0,609.0 568.0,609.0 567.0,609.0 566.0,609.0 564.0,607.0 563.0,607.0 559.0,603.0 558.0,602.0 558.0,600.0"/>
    <polyline points="568.0,609.0 573.0,606.0 574.0,605.0 577.0,606.0 576.0,607.0 577.0,609.0"/>
    <polyline points="578.0,616.0 577.0,617.0 577.0,618.0 579.0,623.0 580.0,624.0 584.0,627.0 584.0,627.0 587.0,624.0 588.0,623.0 589.0,622.0 589.0,622.0 592.0,620.0 593.0,620.0 598.0,620.0 598.0,620.0 599.0,618.0 599.0,617.0 597.0,615.0 597.0,615.0 594.0,617.0 594.0,618.0 598.0,620.0 598.0,620.0 600.0,621.0 601.0,621.0 604.0,621.0 605.0,621.0 607.0,621.0 607.0,621.0 609.0,622.0 610.0,622.0 613.0,621.0 613.0,621.0 613.0,618.0 613.0,617.0 610.0,614.0 609.0,614.0 606.0,617.0 606.0,618.0 607.0,621.0"/>
    <polyline points="613.0,621.0 615.0,622.0 616.0,622.0 617.0,622.0 617.0,622.0 618.0,622.0 619.0,622.0 622.0,622.0 622.0,622.0 625.0,621.0 626.0,621.0 631.0,616.0 631.0,615.0 632.0,613.0 632.0,612.0 630.0,608.0 630.0,608.0 629.0,606.0 628.0,605.0 627.0,600.0"/>
    <polyline points="642.0,601.0 643.0,601.0 644.0,601.0 646.0,599.0"/>
    <polyline points="649.0,594.0 646.0,596.0 646.0,597.0 646.0,599.0 646.0,599.0 647.0,600.0 648.0,599.0 652.0,597.0 652.0,596.0 649.0,594.0 649.0,594.0 649.0,591.0 649.0,590.0 648.0,586.0 648.0,585.0 648.0,584.0"/>
    <polyline points="653.0,570.0 652.0,569.0 651.0,568.0 649.0,566.0"/>
    <polyline points="630.0,566.0 633.0,569.0 633.0,570.0 632.0,573.0 632.0,573.0 629.0,570.0 629.0,569.0 630.0,566.0 630.0,566.0 634.0,564.0 635.0,564.0 637.0,560.0 637.0,560.0 637.0,566.0 637.0,567.0 638.0,570.0 639.0,571.0 639.0,574.0 639.0,574.0 635.0,575.0 634.0,574.0 632.0,573.0 632.0,573.0 631.0,575.0 630.0,576.0 629.0,578.0 629.0,578.0 627.0,578.0 626.0,578.0 625.0,578.0 625.0,578.0 625.0,580.0 625.0,581.0 628.0,583.0 628.0,583.0 629.0,581.0 629.0,580.0 629.0,578.0"/>
    <polyline points="623.0,572.0 625.0,574.0 625.0,575.0 625.0,578.0 625.0,578.0 622.0,579.0 621.0,579.0 619.0,582.0 619.0,582.0 619.0,585.0 620.0,586.0 621.0,588.0 621.0,588.0 619.0,588.0 618.0,588.0 613.0,586.0 613.0,585.0 614.0,581.0"/>
    <polyline points="619.0,575.0 620.0,577.0 620.0,578.0 619.0,582.0 619.0,582.0 618.0,582.0 617.0,582.0 614.0,581.0 614.0,581.0 613.0,580.0 614.0,579.0 617.0,576.0 618.0,576.0 619.0,575.0 619.0,575.0 621.0,573.0 622.0,572.0 623.0,572.0 623.0,572.0 623.0,570.0 623.0,569.0 624.0,566.0 624.0,566.0 622.0,563.0 622.0,562.0 621.0,560.0"/>
    <polyline points="623.0,554.0 625.0,554.0 626.0,554.0 630.0,551.0 630.0,550.0 629.0,548.0 629.0,548.0 630.0,545.0 630.0,544.0 630.0,541.0 630.0,541.0 627.0,539.0 627.0,538.0 627.0,535.0 627.0,535.0 628.0,531.0 629.0,530.0 631.0,529.0 632.0,529.0 635.0,525.0 635.0,525.0 634.0,530.0 635.0,531.0 634.0,537.0 634.0,537.0 631.0,533.0 630.0,532.0 627.0,535.0"/>
    <polyline points="629.0,548.0 626.0,547.0 625.0,547.0 623.0,548.0"/>
    <polyline points="636.0,522.0 635.0,523.0 634.0,524.0 635.0,525.0 635.0,525.0 640.0,527.0 641.0,527.0 643.0,526.0 643.0,526.0 645.0,525.0 646.0,524.0 649.0,522.0 649.0,522.0 650.0,520.0 649.0,519.0 646.0,518.0 645.0,518.0 644.0,517.0"/>
    <polyline points="643.0,522.0 644.0,523.0 644.0,524.0 643.0,526.0"/>
    <line x1="590.0" x2="589.0" y1="553.0" y2="553.0"/>
    <line x1="586.0" x2="586.0" y1="553.0" y2="550.0"/>
    <polyline points="591.0,558.0 587.0,562.0 587.0,562.0 591.0,562.0 592.0,562.0 593.0,560.0 593.0,559.0 592.0,558.0"/>
    <polyline points="587.0,562.0 585.0,566.0 584.0,567.0 583.0,570.0"/>
    <polyline points="601.0,569.0 598.0,568.0 597.0,568.0 593.0,572.0 593.0,573.0 597.0,579.0 598.0,580.0 602.0,577.0 602.0,577.0 600.0,573.0 600.0,572.0 601.0,569.0 601.0,569.0 604.0,566.0 605.0,566.0 608.0,568.0 608.0,568.0 609.0,570.0 609.0,571.0 607.0,575.0 606.0,576.0 605.0,577.0 604.0,577.0 602.0,577.0"/>
    <polyline points="617.0,622.0 617.0,623.0 617.0,624.0 620.0,629.0 620.0,629.0 623.0,624.0 623.0,623.0 622.0,622.0"/>
    <line x1="620.0" x2="619.0" y1="629.0" y2="630.0"/>
    <polyline points="617.0,631.0 611.0,633.0 610.0,633.0 602.0,633.0 601.0,634.0 594.0,636.0 593.0,636.0 586.0,631.0 585.0,630.0 584.0,627.0"/>
    <polyline points="573.0,690.0 574.0,691.0 575.0,692.0 575.0,694.0 575.0,694.0 570.0,693.0 569.0,693.0 560.0,694.0 559.0,694.0 555.0,697.0 555.0,697.0 552.0,699.0 551.0,699.0 549.0,699.0 548.0,699.0 544.0,702.0 544.0,702.0 542.0,703.0 541.0,703.0 536.0,708.0 535.0,709.0 536.0,711.0"/>
    <polyline points="535.0,717.0 533.0,719.0 533.0,719.0 526.0,721.0 525.0,721.0 518.0,724.0 517.0,726.0 514.0,731.0 513.0,732.0 510.0,739.0 509.0,740.0 507.0,742.0 506.0,742.0 503.0,745.0 503.0,746.0 502.0,748.0 501.0,749.0 499.0,753.0 498.0,754.0 498.0,757.0"/>
    <polyline points="510.0,755.0 507.0,757.0 506.0,757.0 505.0,760.0 504.0,761.0 501.0,764.0 500.0,765.0 497.0,767.0 497.0,768.0 498.0,771.0 499.0,772.0 500.0,774.0 500.0,774.0 501.0,778.0 502.0,778.0 502.0,774.0"/>
    <polyline points="501.0,773.0 500.0,774.0 500.0,774.0 500.0,780.0 499.0,781.0 499.0,786.0"/>
    <polyline points="509.0,777.0 508.0,781.0 509.0,782.0 513.0,786.0 513.0,786.0 514.0,786.0 515.0,787.0 517.0,793.0"/>
    <polyline points="513.0,797.0 508.0,790.0 508.0,789.0 513.0,786.0"/>
    <polyline points="516.0,777.0 518.0,780.0 519.0,780.0 526.0,779.0 526.0,778.0 527.0,777.0"/>
    <line x1="538.0" x2="539.0" y1="778.0" y2="777.0"/>
    <polyline points="546.0,770.0 550.0,776.0 551.0,776.0 554.0,772.0 554.0,771.0 551.0,766.0"/>
    <polyline points="550.0,765.0 548.0,765.0 548.0,765.0 547.0,762.0"/>
    <polyline points="538.0,764.0 540.0,764.0 541.0,765.0 548.0,765.0 548.0,765.0 546.0,768.0 546.0,769.0 546.0,770.0 546.0,770.0 541.0,776.0 540.0,776.0 539.0,777.0 539.0,777.0 537.0,769.0 537.0,768.0 538.0,764.0 538.0,764.0 534.0,759.0"/>
    <polyline points="540.0,752.0 545.0,754.0 546.0,754.0 550.0,749.0 550.0,748.0 549.0,746.0 549.0,746.0 546.0,744.0 545.0,744.0 544.0,744.0 544.0,744.0 542.0,747.0 541.0,748.0 540.0,752.0 540.0,752.0 539.0,752.0 538.0,751.0 535.0,748.0 535.0,747.0 539.0,742.0 540.0,741.0 544.0,744.0"/>
    <line x1="548.0" x2="549.0" y1="743.0" y2="746.0"/>
    <line x1="554.0" x2="554.0" y1="735.0" y2="733.0"/>
    <polyline points="560.0,729.0 561.0,727.0 561.0,727.0 565.0,729.0 565.0,730.0 560.0,731.0 560.0,730.0 560.0,731.0 560.0,731.0 558.0,732.0 557.0,732.0 554.0,733.0 554.0,733.0 551.0,729.0 551.0,728.0 557.0,725.0 558.0,725.0 561.0,727.0"/>
    <polyline points="567.0,709.0 561.0,709.0 561.0,708.0 567.0,708.0"/>
    <polyline points="575.0,702.0 578.0,700.0 578.0,699.0 575.0,694.0 575.0,694.0 572.0,692.0"/>
    <polyline points="575.0,694.0 579.0,698.0 580.0,698.0 583.0,701.0"/>
    <polyline points="595.0,696.0 598.0,696.0 599.0,697.0 600.0,701.0 600.0,702.0 608.0,704.0 609.0,704.0 613.0,708.0 614.0,709.0 619.0,714.0 620.0,715.0 625.0,722.0 625.0,723.0 624.0,725.0 624.0,725.0 621.0,725.0 620.0,725.0 617.0,728.0 617.0,729.0 620.0,734.0 621.0,734.0 623.0,733.0 623.0,733.0 624.0,729.0 624.0,728.0 624.0,725.0"/>
    <polyline points="623.0,733.0 622.0,735.0 622.0,736.0 621.0,744.0 621.0,745.0 618.0,753.0 618.0,754.0 618.0,755.0 618.0,755.0 615.0,756.0 614.0,757.0 611.0,758.0 610.0,759.0 607.0,761.0 607.0,761.0 604.0,761.0 603.0,761.0 600.0,762.0"/>
    <polyline points="607.0,761.0 608.0,762.0 608.0,763.0 608.0,766.0 608.0,767.0 609.0,769.0 609.0,769.0 608.0,773.0 608.0,774.0 607.0,777.0 607.0,777.0 604.0,777.0 603.0,777.0 599.0,774.0"/>
    <polyline points="594.0,770.0 593.0,766.0 593.0,765.0 590.0,762.0 590.0,762.0 586.0,765.0 586.0,766.0 589.0,771.0 590.0,772.0 594.0,770.0 594.0,770.0 597.0,773.0 598.0,773.0 599.0,774.0 599.0,774.0 600.0,771.0 600.0,770.0 599.0,765.0 599.0,764.0 600.0,762.0 600.0,762.0 598.0,761.0 597.0,761.0 595.0,759.0 594.0,757.0 590.0,762.0 590.0,762.0 585.0,762.0"/>
    <polyline points="575.0,756.0 577.0,756.0 578.0,756.0 582.0,752.0 581.0,751.0 578.0,746.0"/>
    <polyline points="577.0,745.0 574.0,744.0 574.0,744.0 571.0,747.0 571.0,748.0 570.0,750.0 570.0,750.0 569.0,752.0 568.0,753.0 569.0,756.0 569.0,756.0 567.0,754.0 566.0,754.0 565.0,748.0 565.0,747.0 569.0,743.0 570.0,743.0 574.0,744.0"/>
    <polyline points="570.0,750.0 572.0,749.0 573.0,749.0 576.0,753.0 576.0,754.0 575.0,756.0 575.0,756.0 573.0,757.0 572.0,757.0 569.0,756.0"/>
    <polyline points="562.0,758.0 560.0,757.0 559.0,757.0 558.0,757.0"/>
    <polyline points="557.0,756.0 558.0,757.0 558.0,757.0 556.0,757.0"/>
    <polyline points="573.0,768.0 571.0,768.0 570.0,768.0 567.0,772.0 567.0,773.0 570.0,777.0 571.0,777.0 573.0,777.0 573.0,777.0 573.0,771.0 573.0,770.0 573.0,768.0 573.0,768.0 575.0,767.0 576.0,768.0 578.0,770.0 579.0,771.0 579.0,774.0 579.0,774.0 576.0,779.0 575.0,779.0 573.0,777.0 573.0,777.0 575.0,775.0 576.0,775.0 579.0,774.0 579.0,774.0 578.0,780.0"/>
    <line x1="581.0" x2="579.0" y1="775.0" y2="774.0"/>
    <polyline points="568.0,791.0 565.0,792.0 565.0,792.0 565.0,790.0 564.0,789.0 560.0,782.0 559.0,782.0 555.0,784.0 555.0,785.0 559.0,791.0 560.0,792.0 562.0,793.0 563.0,793.0 565.0,792.0 565.0,792.0 564.0,795.0 564.0,796.0 568.0,800.0 569.0,800.0 573.0,796.0 573.0,795.0 569.0,792.0"/>
    <polyline points="573.0,811.0 575.0,814.0 576.0,813.0 578.0,812.0 578.0,812.0 576.0,810.0 575.0,810.0 573.0,811.0 573.0,811.0 571.0,815.0 571.0,816.0 571.0,817.0 571.0,817.0 573.0,820.0 574.0,821.0 573.0,823.0 573.0,823.0 575.0,824.0 576.0,824.0 582.0,821.0 582.0,820.0 581.0,818.0 581.0,818.0 583.0,818.0 584.0,817.0 586.0,814.0 586.0,814.0 587.0,813.0 588.0,813.0 594.0,808.0 595.0,808.0 601.0,802.0 601.0,801.0 602.0,793.0 603.0,792.0 604.0,790.0 605.0,789.0 608.0,784.0 608.0,784.0 608.0,781.0 608.0,780.0 607.0,777.0 607.0,777.0 610.0,776.0 611.0,776.0 613.0,776.0 613.0,776.0 613.0,775.0 614.0,774.0 614.0,770.0"/>
    <polyline points="609.0,769.0 610.0,768.0 611.0,769.0 614.0,770.0 614.0,770.0 616.0,766.0 616.0,765.0 619.0,760.0 619.0,759.0 618.0,755.0"/>
    <polyline points="605.0,742.0 604.0,742.0 603.0,743.0 601.0,744.0"/>
    <polyline points="601.0,747.0 598.0,748.0 597.0,748.0 597.0,744.0 598.0,744.0 601.0,744.0 601.0,744.0 601.0,745.0 600.0,746.0 601.0,747.0 601.0,747.0 603.0,749.0 604.0,749.0 607.0,745.0 606.0,744.0 605.0,742.0 605.0,742.0 605.0,740.0 605.0,739.0 604.0,736.0 604.0,736.0 606.0,736.0 607.0,735.0 609.0,735.0"/>
    <polyline points="598.0,732.0 601.0,737.0 602.0,737.0 604.0,736.0 604.0,736.0 603.0,730.0 603.0,729.0 600.0,725.0 599.0,725.0 597.0,725.0 597.0,725.0 596.0,729.0 596.0,730.0 598.0,732.0 598.0,732.0 595.0,738.0 594.0,738.0 588.0,731.0 588.0,730.0 594.0,724.0 595.0,724.0 597.0,725.0"/>
    <polyline points="606.0,714.0 604.0,717.0 603.0,716.0 599.0,714.0 598.0,713.0 601.0,711.0 602.0,711.0 605.0,713.0"/>
    <polyline points="579.0,716.0 584.0,719.0 583.0,720.0 579.0,724.0 578.0,724.0 573.0,720.0 573.0,719.0 578.0,716.0"/>
    <polyline points="578.0,736.0 580.0,736.0 581.0,737.0 583.0,739.0 583.0,740.0 581.0,742.0"/>
    <polyline points="540.0,730.0 539.0,730.0 538.0,730.0 534.0,733.0 533.0,734.0 531.0,739.0 531.0,740.0 529.0,743.0"/>
    <polyline points="522.0,737.0 520.0,735.0 521.0,734.0 525.0,729.0 526.0,729.0 527.0,727.0 527.0,726.0 528.0,723.0 528.0,722.0 533.0,719.0"/>
    <line x1="546.0" x2="544.0" y1="704.0" y2="702.0"/>
    <polyline points="556.0,703.0 553.0,701.0 553.0,700.0 555.0,697.0"/>
    <polyline points="516.0,688.0 511.0,688.0 511.0,687.0 516.0,687.0"/>
    <polyline points="522.0,759.0 523.0,761.0 523.0,762.0 522.0,764.0 522.0,764.0 524.0,763.0 525.0,764.0 528.0,770.0 528.0,771.0 527.0,777.0 527.0,777.0 525.0,776.0 524.0,775.0 519.0,773.0 518.0,774.0 516.0,777.0 516.0,777.0 513.0,773.0 513.0,772.0 518.0,766.0 519.0,766.0 522.0,764.0"/>
    <polyline points="542.0,790.0 541.0,791.0 541.0,791.0 539.0,793.0 539.0,794.0 540.0,796.0 540.0,796.0 538.0,797.0 537.0,797.0 533.0,796.0 533.0,796.0 534.0,793.0 535.0,792.0 535.0,788.0 535.0,788.0 537.0,791.0 538.0,791.0 541.0,791.0 541.0,791.0 538.0,786.0 537.0,786.0 535.0,788.0 535.0,788.0 532.0,787.0 531.0,787.0 528.0,792.0 528.0,793.0 528.0,799.0 528.0,799.0 530.0,794.0 531.0,794.0 533.0,796.0 533.0,796.0 531.0,799.0 530.0,799.0 528.0,799.0 528.0,799.0 526.0,800.0 525.0,800.0 524.0,797.0"/>
    <polyline points="540.0,796.0 542.0,796.0 543.0,796.0 544.0,795.0 544.0,794.0 543.0,791.0"/>
    <polyline points="537.0,807.0 538.0,811.0 538.0,812.0 540.0,816.0 541.0,817.0 543.0,819.0 544.0,820.0 553.0,824.0 554.0,825.0 563.0,823.0 564.0,822.0 565.0,822.0 565.0,822.0 569.0,824.0 570.0,824.0 573.0,823.0"/>
    <polyline points="571.0,817.0 570.0,817.0 569.0,817.0 566.0,820.0 565.0,821.0 565.0,822.0"/>
    <polyline points="557.0,812.0 558.0,809.0 557.0,808.0 556.0,807.0 556.0,807.0 553.0,808.0 553.0,809.0 557.0,812.0 557.0,812.0 552.0,810.0 551.0,811.0 547.0,810.0 547.0,809.0 551.0,806.0 552.0,806.0 556.0,807.0"/>
    <polyline points="581.0,818.0 580.0,816.0 580.0,815.0 578.0,812.0 578.0,812.0 583.0,811.0 584.0,812.0 586.0,814.0"/>
    <polyline points="590.0,799.0 592.0,800.0 593.0,800.0 595.0,794.0 595.0,793.0 591.0,788.0 590.0,788.0 587.0,790.0 586.0,791.0 584.0,795.0 584.0,796.0 586.0,800.0 587.0,800.0 590.0,799.0 590.0,799.0 590.0,794.0"/>
    <polyline points="608.0,784.0 610.0,782.0 611.0,782.0 613.0,776.0"/>
    <polyline points="674.0,829.0 673.0,833.0 673.0,834.0 674.0,839.0"/>
    <line x1="676.0" x2="675.0" y1="848.0" y2="852.0"/>
    <polyline points="262.0,792.0 269.0,793.0 270.0,793.0 276.0,799.0 277.0,800.0 279.0,804.0 279.0,805.0 279.0,811.0 278.0,812.0 271.0,815.0 270.0,816.0 262.0,817.0 261.0,816.0 257.0,815.0 256.0,814.0 253.0,811.0 253.0,810.0 252.0,803.0 251.0,802.0 249.0,797.0 249.0,797.0 252.0,801.0 253.0,801.0 257.0,798.0"/>
    <polyline points="261.0,791.0 256.0,791.0 255.0,791.0 251.0,787.0 250.0,786.0 247.0,787.0"/>
    <polyline points="245.0,777.0 248.0,780.0 248.0,781.0 249.0,784.0 249.0,785.0 247.0,787.0 247.0,787.0 246.0,793.0 246.0,794.0 249.0,797.0 249.0,797.0 244.0,795.0 243.0,795.0 241.0,796.0 240.0,796.0 236.0,795.0 235.0,795.0 233.0,794.0"/>
    <polyline points="228.0,790.0 227.0,792.0 228.0,793.0 233.0,794.0 233.0,794.0 234.0,793.0 234.0,792.0 228.0,790.0 228.0,790.0 226.0,791.0 225.0,791.0 222.0,787.0 222.0,786.0 221.0,780.0 222.0,779.0 226.0,775.0 227.0,774.0 233.0,771.0 234.0,771.0 240.0,772.0 241.0,772.0 247.0,770.0 247.0,770.0 249.0,773.0 249.0,774.0 245.0,777.0 245.0,777.0 243.0,774.0 242.0,773.0 247.0,770.0"/>
    <polyline points="211.0,730.0 214.0,732.0 215.0,733.0 220.0,739.0 221.0,739.0 226.0,742.0 226.0,743.0 225.0,746.0 224.0,747.0 219.0,754.0 218.0,754.0 211.0,754.0 210.0,754.0 205.0,754.0 204.0,754.0 199.0,754.0 198.0,754.0 193.0,753.0 192.0,752.0 189.0,747.0 189.0,746.0 189.0,742.0 190.0,741.0 191.0,739.0 191.0,739.0 190.0,736.0 190.0,735.0 194.0,730.0 195.0,729.0 198.0,728.0 199.0,728.0 204.0,729.0 205.0,729.0 210.0,729.0"/>
    <polyline points="203.0,737.0 209.0,740.0 209.0,741.0 203.0,745.0 202.0,745.0 197.0,742.0 197.0,741.0 199.0,738.0 199.0,738.0 196.0,740.0 195.0,740.0 191.0,739.0"/>
    <line x1="199.0" x2="202.0" y1="738.0" y2="737.0"/>
    <polyline points="183.0,692.0 184.0,693.0 185.0,693.0 187.0,693.0 188.0,693.0 193.0,692.0 193.0,692.0 194.0,689.0 194.0,688.0 193.0,683.0 192.0,682.0 191.0,677.0 191.0,676.0 186.0,673.0 185.0,673.0 179.0,676.0 178.0,676.0 169.0,679.0 168.0,679.0 163.0,685.0 163.0,686.0 163.0,690.0 163.0,691.0 160.0,699.0 161.0,700.0 163.0,703.0 164.0,704.0 167.0,706.0 168.0,707.0 172.0,709.0 173.0,709.0 178.0,707.0 179.0,707.0 185.0,707.0 186.0,706.0 189.0,703.0 189.0,702.0 191.0,695.0 191.0,694.0 193.0,692.0 193.0,692.0 189.0,689.0 188.0,688.0 185.0,686.0 184.0,686.0 182.0,686.0 181.0,686.0 180.0,686.0"/>
    <polyline points="147.0,651.0 148.0,650.0 149.0,649.0 148.0,648.0"/>
    <polyline points="136.0,621.0 139.0,623.0 139.0,623.0 142.0,625.0 143.0,624.0 148.0,623.0 149.0,622.0 155.0,624.0 156.0,624.0 161.0,624.0 162.0,624.0 167.0,629.0 167.0,630.0 167.0,639.0 167.0,640.0 167.0,645.0 166.0,646.0 163.0,651.0 162.0,652.0 156.0,656.0 155.0,657.0 153.0,657.0 152.0,657.0 147.0,651.0 147.0,651.0 143.0,654.0 142.0,654.0 139.0,652.0 138.0,651.0 132.0,644.0 132.0,643.0 130.0,640.0 129.0,639.0 134.0,632.0 135.0,632.0 138.0,631.0 138.0,630.0 139.0,623.0 139.0,623.0 140.0,621.0 141.0,620.0 141.0,618.0 142.0,617.0 140.0,613.0"/>
    <polyline points="143.0,594.0 146.0,597.0 147.0,597.0 150.0,590.0 150.0,589.0 145.0,582.0 144.0,581.0 140.0,576.0 140.0,575.0 140.0,572.0 140.0,571.0 133.0,567.0 132.0,567.0 128.0,568.0 127.0,567.0 121.0,569.0 120.0,570.0 115.0,575.0 114.0,576.0 113.0,581.0 113.0,581.0 111.0,583.0 110.0,584.0 107.0,587.0 106.0,588.0 106.0,596.0 106.0,597.0 108.0,601.0 109.0,602.0 111.0,606.0 112.0,607.0 115.0,612.0 116.0,613.0 119.0,614.0 120.0,615.0 125.0,616.0 126.0,616.0 131.0,615.0 132.0,615.0 138.0,612.0 139.0,612.0 140.0,613.0 140.0,613.0 141.0,610.0 141.0,609.0 141.0,606.0 141.0,605.0 145.0,599.0 145.0,598.0 143.0,594.0 143.0,594.0 141.0,590.0 141.0,589.0 139.0,583.0 138.0,582.0 133.0,578.0 132.0,578.0 127.0,579.0 126.0,579.0 124.0,580.0 124.0,580.0 120.0,581.0 119.0,581.0 113.0,581.0"/>
    <polyline points="124.0,580.0 122.0,582.0 122.0,583.0 122.0,588.0 122.0,589.0 121.0,596.0 121.0,597.0 125.0,603.0 126.0,603.0 131.0,605.0 132.0,605.0 134.0,604.0 135.0,603.0 136.0,599.0 135.0,598.0 132.0,595.0 131.0,594.0 129.0,594.0"/>
    <polyline points="117.0,549.0 119.0,549.0 120.0,548.0 124.0,547.0 125.0,547.0 127.0,546.0 127.0,546.0 134.0,548.0 135.0,547.0 137.0,540.0 137.0,539.0 137.0,531.0 137.0,530.0 136.0,527.0 136.0,527.0 133.0,530.0 133.0,531.0 130.0,538.0 129.0,539.0 126.0,543.0 126.0,544.0 127.0,546.0"/>
    <polyline points="108.0,544.0 109.0,543.0 110.0,542.0 110.0,540.0 110.0,539.0 109.0,534.0 109.0,533.0 109.0,531.0"/>
    <polyline points="110.0,526.0 109.0,531.0 109.0,531.0 110.0,532.0 111.0,532.0 111.0,525.0"/>
    <polyline points="104.0,519.0 101.0,522.0 100.0,522.0 97.0,517.0 97.0,517.0 95.0,523.0 94.0,524.0 95.0,529.0"/>
    <polyline points="87.0,532.0 89.0,534.0 89.0,535.0 87.0,537.0"/>
    <polyline points="94.0,544.0 96.0,545.0 97.0,545.0 102.0,544.0 103.0,544.0 108.0,544.0 108.0,544.0 110.0,546.0 111.0,547.0 113.0,548.0 114.0,548.0 117.0,549.0 117.0,549.0 117.0,550.0 117.0,551.0 111.0,555.0 110.0,555.0 103.0,553.0 102.0,553.0 97.0,552.0 96.0,552.0 92.0,550.0 91.0,550.0 83.0,544.0 83.0,543.0 82.0,541.0 81.0,540.0 79.0,533.0 79.0,532.0 80.0,524.0 81.0,523.0 83.0,521.0 84.0,521.0 88.0,520.0 89.0,519.0 91.0,518.0 91.0,518.0 91.0,517.0 91.0,516.0 93.0,513.0 94.0,512.0 98.0,510.0 99.0,509.0 103.0,509.0 103.0,509.0 107.0,508.0 108.0,507.0 110.0,507.0 110.0,507.0 112.0,505.0 113.0,505.0 116.0,508.0 116.0,508.0 113.0,510.0 112.0,510.0 110.0,507.0"/>
    <polyline points="116.0,508.0 118.0,511.0 118.0,512.0 119.0,514.0 120.0,515.0 123.0,517.0 124.0,518.0 130.0,525.0 131.0,525.0 136.0,527.0 136.0,527.0 137.0,524.0 137.0,523.0 135.0,517.0 134.0,516.0 130.0,513.0 129.0,513.0 127.0,514.0"/>
    <polyline points="103.0,509.0 100.0,514.0 99.0,515.0 97.0,517.0 97.0,517.0 94.0,518.0 93.0,518.0 91.0,518.0"/>
    <polyline points="80.0,488.0 81.0,482.0 81.0,481.0 82.0,479.0 83.0,477.0 88.0,478.0 88.0,478.0 88.0,481.0 89.0,482.0 85.0,487.0 84.0,488.0 80.0,488.0 80.0,488.0 78.0,489.0 77.0,490.0 75.0,490.0 74.0,490.0 68.0,488.0 67.0,488.0 65.0,485.0 65.0,484.0 65.0,479.0 65.0,478.0 65.0,476.0"/>
    <polyline points="59.0,465.0 61.0,464.0 62.0,465.0 66.0,470.0 66.0,471.0 65.0,476.0 65.0,476.0 62.0,476.0 61.0,475.0 60.0,471.0 60.0,470.0 59.0,465.0 59.0,465.0 58.0,463.0 57.0,462.0 55.0,457.0 55.0,456.0 53.0,450.0"/>
    <polyline points="53.0,445.0 52.0,447.0 52.0,448.0 53.0,450.0 53.0,450.0 58.0,453.0 59.0,453.0 67.0,451.0 68.0,451.0 72.0,449.0 73.0,449.0 76.0,450.0 76.0,450.0 75.0,448.0"/>
    <polyline points="76.0,450.0 78.0,454.0 79.0,454.0 84.0,453.0 85.0,453.0 87.0,452.0"/>
    <polyline points="88.0,460.0 88.0,463.0 88.0,464.0 87.0,470.0 87.0,471.0 86.0,472.0 86.0,472.0 89.0,474.0 89.0,475.0 88.0,478.0 88.0,478.0 84.0,475.0 84.0,474.0 86.0,472.0"/>
    <polyline points="88.0,478.0 91.0,476.0 92.0,476.0 96.0,476.0 97.0,476.0 99.0,477.0 100.0,477.0 102.0,476.0 102.0,476.0 104.0,475.0 105.0,475.0 109.0,477.0 109.0,477.0 105.0,480.0 104.0,480.0 102.0,476.0"/>
    <polyline points="109.0,477.0 110.0,477.0 111.0,477.0 113.0,477.0 114.0,477.0 119.0,474.0 120.0,473.0 122.0,472.0 123.0,471.0 125.0,469.0 125.0,469.0 126.0,464.0 126.0,463.0 127.0,457.0 126.0,456.0 128.0,453.0 128.0,453.0 125.0,455.0 124.0,455.0 123.0,456.0 123.0,456.0 123.0,452.0 122.0,451.0 121.0,446.0 121.0,445.0 120.0,441.0 120.0,440.0 117.0,432.0 117.0,431.0 116.0,429.0"/>
    <polyline points="109.0,427.0 112.0,424.0 113.0,424.0 116.0,429.0 116.0,429.0 113.0,430.0 112.0,431.0 109.0,427.0 109.0,427.0 107.0,429.0 106.0,431.0 104.0,435.0 104.0,436.0 102.0,439.0 101.0,439.0 97.0,439.0 96.0,439.0 92.0,438.0 91.0,437.0 88.0,435.0 88.0,434.0 86.0,430.0 86.0,429.0 90.0,424.0 91.0,423.0 94.0,425.0"/>
    <polyline points="93.0,411.0 96.0,412.0 97.0,412.0 101.0,414.0 102.0,415.0 106.0,419.0 107.0,420.0 111.0,421.0 111.0,421.0 111.0,422.0 111.0,423.0 109.0,427.0 109.0,427.0 111.0,432.0 110.0,433.0 109.0,440.0 109.0,441.0 109.0,445.0 109.0,446.0 108.0,448.0 108.0,448.0 109.0,454.0 109.0,455.0 108.0,458.0 108.0,458.0 103.0,455.0 103.0,454.0 108.0,448.0"/>
    <polyline points="108.0,458.0 111.0,460.0 112.0,460.0 113.0,459.0"/>
    <polyline points="120.0,461.0 121.0,459.0 122.0,458.0 123.0,456.0"/>
    <line x1="128.0" x2="130.0" y1="453.0" y2="451.0"/>
    <polyline points="131.0,451.0 133.0,458.0 133.0,459.0 132.0,463.0 132.0,464.0 131.0,466.0 130.0,467.0 125.0,469.0"/>
    <polyline points="111.0,421.0 114.0,414.0 114.0,413.0 114.0,410.0"/>
    <line x1="100.0" x2="99.0" y1="409.0" y2="407.0"/>
    <polyline points="87.0,393.0 87.0,392.0 87.0,392.0 85.0,391.0 84.0,391.0 82.0,390.0 81.0,389.0 72.0,387.0 71.0,387.0 62.0,389.0 61.0,390.0 53.0,392.0 52.0,392.0 45.0,384.0 44.0,383.0 37.0,378.0 36.0,377.0 31.0,373.0 30.0,372.0 28.0,367.0 28.0,366.0 30.0,361.0 30.0,360.0 32.0,356.0 32.0,355.0 39.0,347.0 40.0,346.0 46.0,342.0 47.0,341.0 49.0,340.0"/>
    <polyline points="49.0,351.0 51.0,351.0 52.0,351.0 57.0,350.0 58.0,350.0 60.0,349.0 60.0,349.0 62.0,350.0 63.0,350.0 69.0,350.0 69.0,350.0 68.0,346.0 68.0,345.0 66.0,343.0 65.0,342.0 66.0,341.0"/>
    <line x1="60.0" x2="60.0" y1="346.0" y2="349.0"/>
    <polyline points="71.0,352.0 74.0,350.0 74.0,350.0 72.0,353.0 72.0,354.0 76.0,356.0 77.0,356.0 79.0,356.0 79.0,356.0 80.0,354.0 80.0,353.0 77.0,350.0 76.0,350.0 74.0,350.0 74.0,350.0 71.0,350.0 70.0,350.0 69.0,350.0 69.0,350.0 66.0,352.0 66.0,353.0 64.0,359.0 63.0,360.0 60.0,366.0 60.0,367.0 60.0,373.0 60.0,374.0 61.0,377.0"/>
    <polyline points="79.0,370.0 77.0,367.0 77.0,366.0 78.0,360.0 78.0,359.0 79.0,356.0"/>
    <polyline points="93.0,348.0 94.0,349.0 94.0,350.0 95.0,355.0 96.0,355.0 98.0,359.0 98.0,360.0 99.0,361.0 99.0,361.0 99.0,367.0 100.0,368.0 102.0,376.0 102.0,377.0 102.0,384.0 102.0,385.0 96.0,390.0 95.0,390.0 90.0,392.0 89.0,392.0 87.0,392.0"/>
    <polyline points="79.0,407.0 76.0,404.0 76.0,403.0 83.0,399.0 84.0,399.0 90.0,403.0 90.0,404.0 92.0,409.0 93.0,410.0 93.0,411.0 93.0,411.0 90.0,413.0 89.0,413.0 85.0,415.0 84.0,416.0 78.0,415.0 77.0,415.0 74.0,416.0 73.0,417.0 70.0,419.0 69.0,419.0 64.0,421.0 63.0,421.0 61.0,422.0 60.0,423.0 61.0,425.0 61.0,425.0 59.0,424.0 58.0,424.0 56.0,424.0 55.0,425.0 52.0,430.0 51.0,431.0 46.0,440.0 46.0,441.0 50.0,444.0 51.0,445.0 53.0,445.0 53.0,445.0 58.0,445.0 59.0,445.0 63.0,444.0"/>
    <polyline points="66.0,436.0 67.0,429.0 67.0,428.0 64.0,427.0 63.0,427.0 61.0,425.0"/>
    <polyline points="99.0,361.0 101.0,361.0 102.0,362.0 107.0,365.0 108.0,366.0 113.0,368.0 114.0,369.0 121.0,372.0 122.0,372.0 127.0,374.0 128.0,375.0 134.0,375.0 135.0,375.0 137.0,374.0 137.0,374.0 138.0,372.0 139.0,372.0 141.0,371.0"/>
    <polyline points="137.0,374.0 137.0,376.0 137.0,377.0 137.0,384.0 137.0,385.0 138.0,389.0"/>
    <polyline points="144.0,365.0 140.0,369.0 140.0,370.0 141.0,371.0 141.0,371.0 147.0,370.0 146.0,369.0 144.0,365.0 144.0,365.0 143.0,363.0 143.0,362.0 142.0,360.0 142.0,359.0 141.0,357.0 140.0,355.0 138.0,354.0"/>
    <polyline points="136.0,347.0 133.0,352.0 134.0,353.0 138.0,354.0 138.0,354.0 139.0,353.0 139.0,352.0 136.0,347.0 136.0,347.0 137.0,346.0 137.0,345.0 137.0,342.0 137.0,341.0 137.0,339.0"/>
    <polyline points="127.0,326.0 131.0,326.0 132.0,327.0 137.0,333.0 137.0,334.0 137.0,339.0 137.0,339.0 134.0,339.0 133.0,339.0 130.0,334.0 129.0,333.0 126.0,328.0 126.0,327.0 127.0,326.0 127.0,326.0 125.0,325.0 124.0,324.0 122.0,323.0"/>
    <polyline points="115.0,327.0 117.0,323.0 118.0,323.0 122.0,323.0 122.0,323.0 123.0,322.0 123.0,321.0 122.0,316.0 123.0,315.0 124.0,311.0 124.0,310.0 125.0,305.0 125.0,304.0 125.0,302.0 125.0,302.0 128.0,301.0 129.0,301.0 132.0,304.0 133.0,305.0 134.0,307.0"/>
    <polyline points="105.0,314.0 107.0,315.0 108.0,314.0 113.0,312.0 114.0,311.0 118.0,306.0 119.0,305.0 120.0,303.0 121.0,302.0 125.0,302.0 125.0,302.0 127.0,300.0 127.0,299.0 128.0,293.0 128.0,292.0 123.0,290.0 122.0,290.0 116.0,288.0 115.0,288.0 111.0,285.0 110.0,284.0 102.0,280.0 101.0,280.0 93.0,279.0 92.0,279.0 85.0,282.0 84.0,283.0 77.0,290.0 77.0,291.0 80.0,297.0 80.0,298.0 82.0,303.0 82.0,304.0 80.0,307.0"/>
    <polyline points="72.0,305.0 72.0,301.0 71.0,300.0 68.0,293.0 67.0,292.0 63.0,284.0 63.0,283.0 61.0,280.0 61.0,279.0 58.0,273.0 58.0,272.0 55.0,267.0 54.0,266.0 47.0,261.0 46.0,261.0 37.0,259.0 36.0,259.0 27.0,258.0 26.0,258.0 18.0,266.0 17.0,267.0 16.0,273.0 16.0,274.0 18.0,280.0 18.0,281.0 23.0,290.0 24.0,291.0 27.0,295.0 27.0,295.0 20.0,298.0 19.0,299.0 13.0,306.0 13.0,307.0 12.0,316.0 12.0,317.0 11.0,321.0 11.0,321.0 13.0,322.0 14.0,322.0 15.0,320.0"/>
    <polyline points="11.0,321.0 10.0,323.0 10.0,324.0 7.0,329.0 7.0,330.0 9.0,335.0 9.0,336.0 12.0,339.0 13.0,339.0 19.0,341.0 20.0,341.0 26.0,342.0 27.0,342.0 30.0,342.0 31.0,342.0 34.0,341.0 35.0,341.0 38.0,339.0 39.0,339.0 45.0,335.0 46.0,334.0 41.0,329.0 41.0,328.0 41.0,323.0 41.0,322.0 40.0,320.0"/>
    <polyline points="28.0,320.0 25.0,318.0 24.0,318.0 22.0,320.0"/>
    <polyline points="27.0,295.0 28.0,295.0 29.0,296.0 34.0,299.0 35.0,299.0 42.0,304.0 43.0,304.0 47.0,303.0 48.0,303.0 53.0,301.0 54.0,301.0 56.0,298.0"/>
    <polyline points="92.0,309.0 95.0,308.0 96.0,308.0 99.0,309.0"/>
    <polyline points="107.0,339.0 105.0,340.0 105.0,341.0 111.0,347.0 112.0,348.0 119.0,353.0 120.0,354.0 124.0,356.0"/>
    <polyline points="161.0,249.0 163.0,250.0 164.0,249.0 167.0,244.0 168.0,243.0 173.0,239.0 174.0,238.0 173.0,237.0 173.0,237.0 167.0,234.0 166.0,234.0 164.0,233.0 163.0,233.0 162.0,234.0"/>
    <polyline points="161.0,223.0 161.0,225.0 161.0,226.0 161.0,231.0 161.0,232.0 162.0,234.0 162.0,234.0 161.0,236.0 161.0,237.0 160.0,242.0 160.0,243.0 161.0,249.0 161.0,249.0 161.0,251.0 160.0,252.0 155.0,255.0 154.0,256.0 148.0,258.0 147.0,258.0 142.0,259.0 141.0,260.0 136.0,257.0 135.0,256.0 133.0,254.0 132.0,253.0 129.0,250.0 128.0,249.0 126.0,245.0 125.0,244.0 124.0,238.0 124.0,237.0 121.0,232.0"/>
    <line x1="102.0" x2="94.0" y1="226.0" y2="227.0"/>
    <polyline points="122.0,209.0 126.0,210.0 127.0,209.0 135.0,207.0 136.0,207.0 138.0,208.0 138.0,208.0 140.0,206.0 141.0,206.0 145.0,203.0 146.0,202.0 148.0,200.0 149.0,199.0 157.0,195.0 158.0,194.0 160.0,192.0 160.0,191.0 161.0,187.0 161.0,186.0 161.0,184.0 161.0,184.0 157.0,182.0 156.0,182.0 155.0,183.0"/>
    <polyline points="168.0,192.0 170.0,192.0 170.0,192.0 175.0,190.0 176.0,190.0 184.0,192.0 185.0,193.0 187.0,194.0 187.0,194.0 188.0,200.0 189.0,201.0 192.0,206.0 193.0,207.0 199.0,209.0 200.0,209.0 203.0,212.0 203.0,212.0 201.0,208.0 201.0,207.0 205.0,203.0 206.0,202.0 204.0,199.0 204.0,199.0 201.0,198.0 200.0,198.0 193.0,196.0 192.0,195.0 187.0,194.0"/>
    <polyline points="181.0,199.0 178.0,198.0 177.0,197.0 173.0,195.0 172.0,194.0 170.0,192.0 170.0,192.0 173.0,189.0 171.0,188.0 168.0,187.0 167.0,186.0 165.0,185.0 164.0,185.0 161.0,184.0 161.0,184.0 158.0,181.0 158.0,180.0 159.0,171.0 158.0,170.0 158.0,161.0 160.0,160.0 164.0,157.0"/>
    <polyline points="138.0,149.0 140.0,150.0 141.0,149.0 148.0,147.0 149.0,148.0 151.0,150.0 151.0,151.0 158.0,152.0 159.0,152.0 164.0,157.0 164.0,157.0 166.0,154.0 167.0,154.0 171.0,154.0 172.0,154.0 180.0,156.0 181.0,156.0 189.0,157.0 190.0,157.0 198.0,160.0 199.0,161.0 208.0,165.0"/>
    <polyline points="209.0,166.0 212.0,169.0 213.0,170.0 216.0,174.0 217.0,175.0 221.0,180.0 222.0,181.0 224.0,190.0 224.0,191.0 221.0,194.0 220.0,195.0 218.0,197.0 217.0,198.0 209.0,200.0 208.0,201.0 204.0,199.0"/>
    <polyline points="203.0,212.0 203.0,215.0 204.0,216.0 202.0,219.0 201.0,220.0 196.0,224.0 195.0,225.0 194.0,225.0 194.0,225.0 193.0,224.0 192.0,223.0 188.0,219.0 188.0,218.0 186.0,216.0 185.0,215.0 183.0,212.0"/>
    <polyline points="194.0,225.0 194.0,226.0 194.0,227.0 190.0,232.0 189.0,233.0 185.0,235.0 184.0,235.0 181.0,237.0 180.0,237.0 176.0,237.0 175.0,237.0 173.0,237.0"/>
    <polyline points="144.0,243.0 143.0,240.0 143.0,239.0 144.0,234.0 144.0,233.0 142.0,228.0 142.0,227.0 141.0,222.0 141.0,221.0 140.0,216.0 139.0,215.0 137.0,210.0 137.0,209.0 138.0,208.0"/>
    <polyline points="107.0,193.0 108.0,193.0 109.0,194.0 116.0,199.0 117.0,200.0 119.0,205.0 119.0,206.0 122.0,209.0 122.0,209.0 123.0,211.0 123.0,212.0 122.0,217.0 122.0,218.0 121.0,223.0 121.0,224.0 121.0,230.0 121.0,231.0 121.0,232.0 121.0,232.0 120.0,233.0 119.0,233.0 115.0,237.0 114.0,238.0 106.0,242.0 105.0,242.0 98.0,243.0 97.0,242.0 91.0,240.0 90.0,239.0 87.0,235.0 86.0,234.0 84.0,229.0 84.0,228.0 84.0,223.0 84.0,222.0 84.0,218.0 84.0,217.0 85.0,209.0 86.0,208.0 87.0,206.0 88.0,205.0 93.0,201.0 94.0,201.0 101.0,197.0 102.0,196.0 105.0,194.0 106.0,194.0 107.0,193.0 107.0,193.0 107.0,192.0 107.0,191.0 103.0,186.0 103.0,185.0 103.0,180.0 103.0,179.0 104.0,174.0 104.0,173.0 104.0,169.0 104.0,168.0 103.0,161.0 103.0,160.0 102.0,154.0 103.0,153.0 105.0,151.0 106.0,150.0 109.0,148.0 110.0,148.0 116.0,145.0 117.0,145.0 125.0,145.0 126.0,145.0 131.0,147.0"/>
    <polyline points="183.0,133.0 185.0,136.0 185.0,137.0 186.0,139.0 186.0,139.0 179.0,140.0 178.0,141.0 173.0,142.0 172.0,142.0 167.0,141.0 166.0,141.0 161.0,141.0 160.0,141.0 157.0,137.0 157.0,136.0 157.0,130.0 157.0,129.0 158.0,123.0 158.0,122.0 156.0,116.0 156.0,115.0 160.0,108.0 161.0,107.0 162.0,103.0 162.0,102.0 160.0,97.0 160.0,96.0 167.0,92.0 168.0,92.0 172.0,89.0 173.0,89.0 178.0,91.0 179.0,91.0 183.0,91.0 184.0,90.0 189.0,91.0 190.0,90.0 194.0,90.0 195.0,90.0 200.0,89.0 201.0,89.0 204.0,95.0 203.0,96.0 203.0,101.0 204.0,102.0 206.0,105.0"/>
    <polyline points="215.0,108.0 217.0,104.0 218.0,103.0 216.0,100.0 216.0,100.0 215.0,97.0 214.0,96.0 213.0,91.0 213.0,90.0 213.0,86.0 213.0,85.0 209.0,78.0 209.0,77.0 207.0,74.0 206.0,74.0 202.0,71.0 202.0,70.0 207.0,64.0 208.0,63.0 210.0,61.0 211.0,60.0 214.0,53.0 214.0,52.0 218.0,46.0 219.0,46.0 226.0,44.0 227.0,44.0 232.0,41.0 233.0,40.0 238.0,40.0 239.0,40.0 244.0,41.0 245.0,41.0 251.0,47.0 251.0,48.0 256.0,57.0 256.0,58.0 258.0,61.0 258.0,62.0 258.0,65.0 258.0,65.0 258.0,70.0 259.0,71.0 258.0,77.0 259.0,78.0 261.0,82.0 262.0,82.0 266.0,78.0 267.0,77.0 268.0,73.0 268.0,72.0 266.0,67.0 265.0,66.0 262.0,63.0"/>
    <line x1="261.0" x2="258.0" y1="63.0" y2="65.0"/>
    <polyline points="251.0,81.0 253.0,84.0 253.0,85.0 255.0,92.0 255.0,93.0 254.0,94.0 254.0,94.0 257.0,99.0 257.0,100.0 251.0,102.0 250.0,102.0 246.0,101.0"/>
    <polyline points="247.0,98.0 250.0,96.0 251.0,95.0 254.0,94.0"/>
    <polyline points="216.0,100.0 220.0,102.0 221.0,102.0 227.0,99.0 228.0,98.0 229.0,93.0 229.0,92.0 231.0,87.0 232.0,86.0 237.0,91.0 237.0,92.0 239.0,95.0 240.0,96.0 242.0,97.0 243.0,97.0 247.0,98.0 247.0,98.0 246.0,99.0 245.0,100.0 246.0,101.0 246.0,101.0 243.0,102.0 242.0,102.0 237.0,103.0 236.0,103.0 232.0,105.0 231.0,105.0 229.0,106.0 228.0,107.0 221.0,110.0 220.0,110.0 217.0,115.0 217.0,116.0 216.0,125.0 216.0,126.0 215.0,130.0 215.0,131.0 213.0,135.0 212.0,136.0 205.0,140.0 204.0,140.0 196.0,141.0 195.0,141.0 188.0,140.0 187.0,140.0 186.0,139.0"/>
    <polyline points="201.0,132.0 198.0,130.0 197.0,129.0 193.0,125.0 192.0,124.0 193.0,122.0"/>
    <polyline points="197.0,176.0 200.0,174.0 201.0,174.0 205.0,176.0"/>
    <line x1="679.0" x2="681.0" y1="193.0" y2="192.0"/>
    <line x1="679.0" x2="679.0" y1="2.0" y2="1.0"/>
    <line x1="3.0" x2="2.0" y1="849.0" y2="850.0"/>
  </g>
</svg>
