<?xml version="1.0" encoding="utf-8" ?>
<svg xmlns="http://www.w3.org/2000/svg" xmlns:cc="http://creativecommons.org/ns" xmlns:dc="http://purl.org/dc/elements/1.1/" xmlns:ev="http://www.w3.org/2001/xml-events" xmlns:inkscape="http://www.inkscape.org/namespaces/inkscape" xmlns:rdf="http://www.w3.org/1999/02/22-rdf-syntax-ns" xmlns:sodipodi="http://sodipodi.sourceforge.net/DTD/sodipodi-0.dtd" xmlns:xlink="http://www.w3.org/1999/xlink" baseProfile="tiny" height="10.50395833cm" version="1.2" viewBox="0 0 705.0 397.0" width="18.653125cm">
  <metadata>
    <rdf:RDF>
      <cc:Work>
        <dc:format>image/svg+xml</dc:format>
        <dc:source>vpype read ./images/heatedskeleton.svg linemerge --tolerance 0.1mm linesort write outputfile.svg
</dc:source>
        <dc:date>2026-02-24T20:01:53.435152</dc:date>
      </cc:Work>
    </rdf:RDF>
  </metadata>
  <defs/>
  <g fill="none" id="layer1" inkscape:groupmode="layer" inkscape:label="1" stroke="#000000" stroke-width="1.0" style="display:inline">
    <polyline points="47.0,8.0 44.0,5.0 43.0,5.0 39.0,5.0 38.0,5.0 34.0,6.0 33.0,6.0 31.0,8.0"/>
    <polyline points="35.0,23.0 37.0,22.0 38.0,22.0 41.0,23.0"/>
    <polyline points="49.0,31.0 51.0,35.0 51.0,36.0 49.0,45.0 49.0,46.0 49.0,55.0 49.0,56.0 45.0,64.0 44.0,64.0 35.0,59.0 34.0,59.0 31.0,58.0"/>
    <polyline points="40.0,50.0 43.0,47.0 43.0,46.0 40.0,44.0"/>
    <polyline points="67.0,33.0 70.0,30.0 71.0,30.0 75.0,33.0"/>
    <polyline points="72.0,41.0 75.0,43.0 76.0,43.0 80.0,46.0"/>
    <polyline points="67.0,24.0 70.0,20.0 70.0,19.0 67.0,16.0"/>
    <line x1="72.0" x2="71.0" y1="3.0" y2="0.0"/>
    <polyline points="77.0,0.0 81.0,2.0 82.0,2.0 85.0,0.0"/>
    <polyline points="96.0,0.0 106.0,4.0 107.0,5.0 114.0,0.0"/>
    <polyline points="117.0,15.0 114.0,13.0 113.0,13.0 111.0,15.0"/>
    <polyline points="118.0,25.0 122.0,24.0 123.0,24.0 129.0,26.0 130.0,26.0 132.0,27.0"/>
    <polyline points="135.0,18.0 137.0,19.0 138.0,20.0 141.0,25.0 141.0,26.0 142.0,29.0 142.0,29.0 141.0,31.0 141.0,32.0 146.0,36.0 147.0,36.0 152.0,38.0 152.0,38.0 154.0,33.0 154.0,32.0 147.0,27.0 146.0,27.0 142.0,29.0"/>
    <polyline points="152.0,38.0 155.0,40.0 156.0,40.0 159.0,43.0"/>
    <polyline points="172.0,35.0 178.0,35.0 178.0,35.0 181.0,35.0 182.0,35.0 191.0,34.0 192.0,35.0 196.0,34.0 196.0,34.0 197.0,33.0 197.0,32.0 192.0,25.0"/>
    <polyline points="192.0,21.0 193.0,22.0 192.0,23.0 192.0,25.0 192.0,25.0 191.0,24.0 190.0,24.0 185.0,26.0 184.0,26.0 179.0,26.0 178.0,27.0 172.0,25.0 171.0,25.0 170.0,26.0 168.0,27.0 167.0,28.0 166.0,27.0 163.0,26.0 162.0,24.0 158.0,19.0 157.0,18.0 157.0,15.0"/>
    <polyline points="158.0,7.0 158.0,10.0 158.0,11.0 157.0,15.0 157.0,15.0 156.0,16.0 155.0,16.0 150.0,10.0 149.0,9.0 144.0,3.0 143.0,2.0 141.0,0.0"/>
    <polyline points="134.0,13.0 135.0,15.0 136.0,16.0 135.0,18.0 135.0,18.0 130.0,17.0 129.0,16.0 126.0,14.0"/>
    <line x1="160.0" x2="160.0" y1="1.0" y2="0.0"/>
    <line x1="163.0" x2="164.0" y1="3.0" y2="7.0"/>
    <line x1="189.0" x2="190.0" y1="0.0" y2="2.0"/>
    <polyline points="193.0,7.0 196.0,7.0 197.0,7.0 201.0,7.0"/>
    <line x1="199.0" x2="205.0" y1="0.0" y2="0.0"/>
    <line x1="217.0" x2="217.0" y1="0.0" y2="5.0"/>
    <polyline points="207.0,15.0 209.0,19.0 210.0,20.0 212.0,21.0 213.0,21.0 218.0,21.0 219.0,21.0 221.0,23.0 221.0,23.0 224.0,21.0 225.0,21.0 228.0,24.0"/>
    <polyline points="221.0,23.0 221.0,28.0 221.0,29.0 221.0,34.0 221.0,35.0 222.0,38.0 222.0,38.0 222.0,40.0 222.0,41.0 221.0,50.0 221.0,51.0 226.0,52.0 227.0,52.0 234.0,53.0 235.0,53.0 242.0,53.0 243.0,53.0 250.0,53.0 251.0,53.0 257.0,53.0 258.0,53.0 264.0,53.0 265.0,53.0 274.0,53.0 275.0,53.0 279.0,53.0 280.0,53.0 281.0,53.0 281.0,53.0 281.0,51.0 281.0,50.0 277.0,48.0 276.0,49.0 270.0,49.0 269.0,49.0 267.0,46.0"/>
    <polyline points="261.0,48.0 256.0,48.0 255.0,48.0 251.0,48.0 250.0,48.0 247.0,48.0 246.0,48.0 245.0,45.0 245.0,44.0 244.0,42.0"/>
    <polyline points="232.0,42.0 236.0,41.0 237.0,41.0 244.0,42.0 244.0,42.0 245.0,39.0 245.0,38.0 237.0,34.0 236.0,35.0 227.0,36.0 226.0,37.0 222.0,38.0"/>
    <polyline points="216.0,41.0 213.0,43.0 212.0,43.0 211.0,42.0"/>
    <polyline points="216.0,33.0 213.0,30.0 212.0,30.0 210.0,36.0 210.0,37.0 211.0,42.0 211.0,42.0 211.0,45.0 211.0,46.0 211.0,54.0 211.0,55.0 207.0,56.0 206.0,56.0 202.0,51.0 201.0,50.0 196.0,46.0 195.0,45.0 200.0,40.0 200.0,40.0 192.0,43.0"/>
    <polyline points="196.0,34.0 199.0,38.0 200.0,39.0 200.0,40.0 200.0,40.0 201.0,41.0 202.0,41.0 204.0,39.0 204.0,38.0 203.0,33.0 203.0,32.0 203.0,28.0"/>
    <polyline points="178.0,35.0 173.0,37.0 174.0,38.0 177.0,43.0 178.0,44.0 181.0,48.0 182.0,49.0 186.0,53.0 187.0,54.0 190.0,59.0 191.0,60.0 193.0,63.0 195.0,64.0 198.0,68.0 199.0,69.0 202.0,74.0"/>
    <polyline points="205.0,64.0 206.0,67.0 208.0,68.0 211.0,70.0 212.0,70.0 217.0,74.0 217.0,75.0 218.0,76.0 219.0,77.0 220.0,78.0 220.0,78.0 223.0,75.0 224.0,75.0 228.0,79.0 229.0,80.0 233.0,83.0"/>
    <polyline points="227.0,89.0 226.0,87.0 225.0,86.0 222.0,82.0 221.0,81.0 220.0,80.0 220.0,79.0 220.0,78.0"/>
    <line x1="222.0" x2="219.0" y1="63.0" y2="62.0"/>
    <polyline points="230.0,63.0 229.0,65.0 229.0,66.0 233.0,71.0 234.0,72.0 243.0,73.0 244.0,73.0 253.0,72.0 254.0,72.0 258.0,72.0 259.0,73.0 264.0,73.0 265.0,73.0 274.0,73.0 275.0,73.0 279.0,73.0 280.0,73.0 282.0,79.0 282.0,80.0 281.0,83.0"/>
    <polyline points="281.0,69.0 276.0,68.0 275.0,68.0 266.0,68.0 265.0,68.0 256.0,68.0 255.0,68.0 251.0,69.0"/>
    <line x1="260.0" x2="259.0" y1="80.0" y2="83.0"/>
    <line x1="264.0" x2="266.0" y1="80.0" y2="83.0"/>
    <polyline points="261.0,95.0 264.0,99.0 264.0,100.0 261.0,107.0 260.0,107.0 257.0,108.0 256.0,108.0 254.0,111.0 254.0,112.0 253.0,118.0 252.0,119.0 252.0,125.0 251.0,126.0 250.0,132.0 250.0,133.0 248.0,142.0 247.0,143.0 247.0,147.0 247.0,148.0 246.0,153.0 246.0,154.0 244.0,163.0 244.0,164.0 243.0,167.0 243.0,168.0 239.0,171.0 238.0,171.0 234.0,172.0 233.0,172.0 230.0,172.0"/>
    <polyline points="226.0,172.0 227.0,173.0 228.0,173.0 230.0,172.0 230.0,172.0 229.0,169.0 229.0,168.0 230.0,164.0 230.0,163.0 232.0,154.0 232.0,153.0 233.0,148.0 233.0,147.0 234.0,143.0 235.0,142.0 236.0,133.0 236.0,132.0 238.0,123.0 239.0,122.0 241.0,114.0 241.0,113.0 235.0,104.0 236.0,103.0 242.0,97.0 243.0,96.0 248.0,96.0 249.0,96.0 254.0,95.0 255.0,95.0 260.0,95.0"/>
    <polyline points="271.0,121.0 273.0,124.0 274.0,124.0 279.0,122.0 279.0,122.0 278.0,121.0 278.0,120.0 280.0,115.0 280.0,114.0 281.0,109.0 281.0,108.0 283.0,105.0 284.0,105.0 292.0,104.0 293.0,104.0 298.0,105.0 298.0,105.0 294.0,100.0 294.0,99.0 291.0,91.0 290.0,92.0 284.0,93.0 283.0,93.0 274.0,93.0 273.0,93.0 269.0,100.0 269.0,101.0 268.0,108.0 267.0,109.0 266.0,116.0 266.0,117.0 264.0,125.0 264.0,126.0 262.0,132.0 262.0,133.0 261.0,141.0 261.0,142.0 259.0,151.0 259.0,152.0 257.0,160.0 256.0,161.0 263.0,169.0 264.0,168.0 273.0,168.0 274.0,168.0 281.0,162.0 281.0,161.0 274.0,155.0 273.0,155.0 272.0,152.0 272.0,151.0 274.0,142.0 274.0,141.0 277.0,136.0 278.0,136.0 283.0,135.0 284.0,135.0 287.0,129.0 287.0,128.0 284.0,123.0"/>
    <line x1="283.0" x2="279.0" y1="123.0" y2="122.0"/>
    <polyline points="297.0,153.0 301.0,152.0 302.0,152.0 303.0,151.0 303.0,151.0 308.0,151.0 309.0,150.0 310.0,148.0 310.0,147.0 312.0,141.0 312.0,140.0 313.0,134.0 313.0,133.0 315.0,127.0 315.0,126.0 316.0,120.0 316.0,119.0 317.0,113.0 318.0,112.0 319.0,106.0 319.0,105.0 314.0,101.0 313.0,101.0 312.0,104.0 312.0,105.0 310.0,112.0 310.0,113.0 309.0,119.0 309.0,120.0 307.0,126.0 307.0,127.0 306.0,133.0 305.0,134.0 305.0,140.0 304.0,141.0 303.0,147.0 303.0,148.0 303.0,151.0"/>
    <polyline points="351.0,141.0 353.0,139.0 354.0,139.0 356.0,139.0"/>
    <polyline points="392.0,146.0 394.0,140.0 394.0,139.0 395.0,134.0 395.0,133.0 397.0,128.0 397.0,127.0 398.0,122.0 398.0,121.0 399.0,116.0 399.0,115.0 400.0,110.0 400.0,109.0 402.0,104.0 402.0,103.0 401.0,102.0"/>
    <polyline points="406.0,101.0 408.0,100.0 409.0,99.0 411.0,99.0 412.0,99.0 419.0,105.0 419.0,106.0 418.0,114.0 418.0,115.0 417.0,124.0 417.0,125.0 416.0,133.0 415.0,134.0 416.0,141.0 416.0,141.0 417.0,142.0 418.0,141.0 420.0,134.0 420.0,133.0 422.0,125.0 423.0,124.0 425.0,115.0 425.0,114.0 427.0,108.0 428.0,105.0 429.0,102.0 429.0,101.0 435.0,97.0 436.0,97.0 443.0,98.0 443.0,99.0 441.0,104.0 441.0,105.0 439.0,110.0 439.0,111.0 437.0,116.0 437.0,117.0 435.0,122.0 435.0,123.0 433.0,129.0 433.0,130.0 431.0,135.0 431.0,136.0 429.0,143.0 428.0,144.0 427.0,150.0 426.0,151.0 424.0,158.0 424.0,159.0 421.0,167.0 421.0,168.0 419.0,172.0 418.0,173.0 412.0,173.0 411.0,173.0 409.0,173.0 408.0,173.0 404.0,174.0 403.0,174.0 399.0,171.0 399.0,170.0 400.0,163.0 400.0,162.0 401.0,155.0 401.0,154.0 402.0,147.0 402.0,146.0 402.0,140.0 402.0,139.0 403.0,134.0 403.0,133.0 404.0,128.0 404.0,127.0 404.0,122.0 404.0,121.0 405.0,116.0 405.0,115.0 405.0,110.0 406.0,109.0 406.0,104.0 406.0,103.0 406.0,101.0 406.0,101.0 404.0,101.0 403.0,101.0 401.0,102.0 401.0,102.0 397.0,101.0 396.0,101.0 391.0,101.0 390.0,101.0 388.0,104.0 388.0,105.0 387.0,109.0 387.0,110.0 386.0,115.0 386.0,116.0 384.0,122.0 384.0,123.0 383.0,131.0 383.0,132.0 381.0,141.0 380.0,142.0 380.0,146.0 380.0,147.0 378.0,154.0 378.0,155.0 376.0,162.0 376.0,163.0 374.0,170.0 374.0,171.0 377.0,177.0 378.0,177.0 381.0,176.0 382.0,176.0 385.0,175.0 386.0,175.0 388.0,170.0 388.0,169.0 389.0,163.0 390.0,162.0 391.0,155.0 391.0,154.0 392.0,147.0"/>
    <polyline points="416.0,141.0 416.0,143.0 416.0,144.0 414.0,152.0 414.0,153.0 415.0,157.0"/>
    <polyline points="426.0,170.0 427.0,171.0 427.0,171.0 427.0,167.0 427.0,166.0 429.0,159.0 429.0,158.0 432.0,151.0 432.0,150.0 434.0,144.0 435.0,143.0 437.0,136.0 437.0,135.0 439.0,130.0 439.0,129.0 441.0,123.0 441.0,122.0 443.0,117.0 443.0,116.0 445.0,111.0 445.0,110.0 447.0,105.0 447.0,104.0 449.0,98.0 449.0,97.0 450.0,96.0 451.0,95.0 458.0,94.0 459.0,94.0 462.0,94.0 463.0,94.0 465.0,94.0 466.0,93.0 470.0,99.0 469.0,100.0 469.0,109.0 469.0,110.0 468.0,119.0 468.0,120.0 467.0,129.0 467.0,130.0 466.0,139.0 466.0,140.0 465.0,149.0 465.0,150.0 469.0,155.0 469.0,155.0 469.0,159.0 469.0,160.0 468.0,167.0 468.0,167.0 464.0,160.0 464.0,159.0 469.0,155.0 469.0,155.0 471.0,150.0 471.0,149.0 473.0,140.0 473.0,139.0 475.0,130.0 475.0,129.0 477.0,120.0 477.0,119.0 479.0,110.0 479.0,109.0 481.0,101.0 481.0,100.0 482.0,95.0 482.0,94.0 484.0,92.0 485.0,92.0 490.0,91.0 491.0,91.0 495.0,92.0 495.0,92.0 494.0,99.0 494.0,100.0 492.0,109.0 492.0,110.0 490.0,119.0 490.0,120.0 488.0,129.0 488.0,130.0 485.0,139.0 485.0,140.0 484.0,149.0 483.0,150.0 484.0,152.0 484.0,152.0 487.0,153.0 488.0,153.0 494.0,154.0 493.0,155.0 492.0,160.0 492.0,161.0 487.0,165.0 486.0,165.0 480.0,166.0 479.0,166.0 473.0,167.0 472.0,167.0 468.0,167.0 468.0,167.0 463.0,167.0 462.0,168.0 459.0,168.0 458.0,168.0 453.0,169.0 452.0,169.0 450.0,165.0 450.0,164.0 450.0,160.0 451.0,159.0 447.0,151.0 446.0,152.0 443.0,155.0 443.0,156.0 441.0,161.0 441.0,162.0 440.0,167.0 439.0,168.0 436.0,170.0 435.0,170.0 431.0,171.0 430.0,171.0 427.0,171.0"/>
    <polyline points="443.0,140.0 444.0,140.0 445.0,140.0 448.0,139.0 448.0,139.0 447.0,138.0 448.0,137.0 449.0,133.0 450.0,132.0 454.0,130.0 454.0,130.0 454.0,132.0 454.0,133.0 453.0,137.0 453.0,138.0 451.0,140.0 450.0,140.0 448.0,139.0"/>
    <polyline points="454.0,124.0 455.0,126.0 455.0,127.0 454.0,130.0 454.0,130.0 451.0,127.0 452.0,126.0 454.0,124.0 454.0,124.0 454.0,122.0 454.0,121.0 455.0,117.0 456.0,116.0 456.0,111.0 457.0,110.0 455.0,108.0"/>
    <polyline points="456.0,72.0 452.0,73.0 451.0,73.0 444.0,74.0 443.0,74.0 436.0,73.0 435.0,73.0 430.0,68.0 430.0,67.0 429.0,60.0 429.0,59.0 430.0,56.0 430.0,55.0 431.0,53.0"/>
    <polyline points="438.0,48.0 440.0,49.0 441.0,50.0 443.0,52.0 443.0,52.0 441.0,54.0 440.0,54.0 434.0,54.0 433.0,54.0 431.0,53.0 431.0,53.0 431.0,51.0 431.0,50.0 432.0,48.0 433.0,47.0 438.0,48.0 438.0,48.0 439.0,45.0 439.0,44.0 439.0,39.0 439.0,38.0 439.0,34.0 439.0,33.0 439.0,28.0 439.0,27.0 440.0,25.0 440.0,25.0 438.0,24.0 437.0,24.0 433.0,29.0 433.0,30.0 433.0,34.0"/>
    <polyline points="440.0,25.0 444.0,24.0 445.0,24.0 450.0,24.0 451.0,24.0 456.0,24.0 457.0,24.0 463.0,24.0 464.0,24.0 470.0,24.0 471.0,24.0 477.0,24.0 478.0,24.0 482.0,26.0"/>
    <polyline points="460.0,10.0 456.0,9.0 455.0,9.0 448.0,9.0 447.0,8.0 440.0,7.0 439.0,6.0 434.0,11.0 433.0,12.0 434.0,18.0"/>
    <polyline points="426.0,8.0 423.0,7.0 422.0,7.0 417.0,7.0 416.0,7.0 411.0,7.0 410.0,7.0 405.0,7.0"/>
    <polyline points="401.0,8.0 398.0,8.0 397.0,8.0 394.0,8.0"/>
    <polyline points="374.0,5.0 369.0,8.0 368.0,8.0 364.0,7.0 363.0,7.0 356.0,7.0 355.0,7.0 352.0,5.0"/>
    <polyline points="344.0,43.0 340.0,45.0 340.0,46.0 346.0,50.0 346.0,50.0 347.0,53.0 347.0,54.0 346.0,58.0 346.0,58.0 340.0,54.0 340.0,53.0 346.0,50.0"/>
    <polygon points="346.0,67.0 347.0,63.0 347.0,62.0 346.0,58.0 346.0,58.0 340.0,62.0 340.0,63.0 346.0,67.0 346.0,67.0 340.0,70.0 340.0,71.0 345.0,75.0 345.0,75.0 346.0,71.0 346.0,70.0"/>
    <line x1="345.0" x2="340.0" y1="75.0" y2="79.0"/>
    <polyline points="321.0,88.0 327.0,89.0 328.0,90.0 332.0,94.0 332.0,95.0 333.0,102.0 333.0,103.0 331.0,112.0 331.0,113.0 329.0,122.0 329.0,123.0 327.0,132.0 326.0,133.0 326.0,137.0 326.0,138.0 325.0,143.0 325.0,144.0 323.0,149.0 323.0,150.0 321.0,154.0 320.0,156.0 317.0,159.0 316.0,160.0 311.0,163.0 310.0,163.0 302.0,165.0 301.0,165.0 293.0,165.0 292.0,166.0 287.0,161.0 287.0,160.0 288.0,155.0 288.0,154.0 290.0,146.0 290.0,145.0 292.0,138.0 292.0,137.0 293.0,130.0 293.0,129.0 295.0,121.0 295.0,120.0 296.0,115.0 297.0,114.0 297.0,110.0 297.0,109.0 298.0,105.0 298.0,105.0 300.0,100.0 300.0,99.0 301.0,93.0 301.0,92.0 303.0,90.0 304.0,90.0 309.0,90.0 310.0,90.0 314.0,89.0 315.0,89.0 320.0,89.0"/>
    <polyline points="281.0,58.0 282.0,56.0 282.0,55.0 281.0,53.0"/>
    <polyline points="271.0,58.0 272.0,60.0 272.0,61.0 271.0,64.0"/>
    <polyline points="263.0,37.0 259.0,36.0 258.0,36.0 255.0,33.0"/>
    <polyline points="249.0,24.0 245.0,25.0 244.0,24.0 240.0,24.0"/>
    <polyline points="240.0,8.0 242.0,8.0 243.0,8.0 246.0,8.0"/>
    <line x1="250.0" x2="253.0" y1="2.0" y2="2.0"/>
    <polyline points="264.0,0.0 265.0,9.0 265.0,10.0 266.0,15.0"/>
    <polyline points="264.0,24.0 266.0,25.0 267.0,25.0 272.0,22.0 273.0,22.0 278.0,22.0 279.0,22.0 285.0,22.0 286.0,22.0 289.0,25.0 289.0,25.0 292.0,22.0 293.0,22.0 296.0,25.0 296.0,25.0 293.0,26.0 292.0,26.0 289.0,25.0"/>
    <polyline points="299.0,23.0 296.0,25.0 296.0,25.0 299.0,26.0 300.0,26.0 305.0,25.0"/>
    <polyline points="370.0,104.0 368.0,104.0 367.0,104.0 359.0,105.0 358.0,105.0 351.0,106.0 350.0,106.0 344.0,106.0 343.0,106.0 338.0,110.0 338.0,111.0 343.0,119.0 344.0,119.0 351.0,118.0 352.0,117.0 359.0,117.0 360.0,117.0 366.0,120.0 366.0,121.0 366.0,125.0 365.0,126.0 364.0,131.0 364.0,132.0 363.0,135.0 363.0,136.0 360.0,139.0 359.0,139.0 356.0,139.0 356.0,139.0 355.0,138.0 355.0,137.0 356.0,132.0 357.0,131.0 358.0,126.0 358.0,125.0 354.0,122.0 353.0,122.0 348.0,123.0 347.0,123.0 345.0,125.0 344.0,126.0 343.0,131.0 343.0,132.0 342.0,137.0 342.0,138.0 341.0,143.0 341.0,144.0 339.0,152.0 339.0,153.0 337.0,161.0 337.0,162.0 335.0,171.0 335.0,172.0 334.0,176.0 334.0,177.0 342.0,181.0 343.0,181.0 345.0,181.0 346.0,180.0 348.0,173.0 348.0,172.0 349.0,166.0 350.0,165.0 351.0,158.0 351.0,157.0 353.0,151.0 354.0,151.0 356.0,157.0 356.0,158.0 355.0,165.0 355.0,166.0 355.0,173.0 355.0,174.0 355.0,181.0 356.0,182.0 357.0,184.0 358.0,184.0 363.0,183.0 364.0,183.0 369.0,181.0 369.0,180.0 369.0,177.0 369.0,176.0 369.0,171.0 369.0,170.0 369.0,166.0 369.0,165.0 369.0,160.0 369.0,159.0 369.0,155.0 369.0,154.0 369.0,149.0 369.0,148.0 370.0,146.0 371.0,145.0 374.0,141.0 375.0,139.0 377.0,132.0 377.0,131.0 379.0,123.0 379.0,122.0 380.0,113.0 380.0,112.0 376.0,105.0 375.0,105.0 371.0,104.0"/>
    <polyline points="443.0,52.0 445.0,53.0 446.0,53.0 451.0,53.0 452.0,53.0 454.0,51.0 454.0,51.0 458.0,50.0 459.0,50.0 461.0,52.0 461.0,52.0 459.0,53.0 458.0,53.0 454.0,51.0"/>
    <polyline points="461.0,52.0 463.0,53.0 464.0,53.0 470.0,53.0 471.0,53.0 474.0,56.0"/>
    <line x1="495.0" x2="496.0" y1="92.0" y2="93.0"/>
    <line x1="521.0" x2="525.0" y1="94.0" y2="94.0"/>
    <polyline points="525.0,99.0 523.0,103.0 523.0,104.0 522.0,110.0 521.0,111.0 520.0,116.0 520.0,117.0 521.0,121.0"/>
    <polyline points="513.0,123.0 515.0,122.0 516.0,122.0 521.0,121.0 521.0,121.0 525.0,122.0 526.0,121.0 528.0,116.0 528.0,115.0 529.0,110.0 529.0,109.0 531.0,104.0 531.0,103.0 526.0,99.0"/>
    <polyline points="534.0,86.0 529.0,87.0 528.0,87.0 524.0,87.0 523.0,88.0 518.0,88.0 517.0,88.0 514.0,89.0 513.0,90.0 511.0,98.0 511.0,99.0 509.0,108.0 509.0,109.0 507.0,118.0 506.0,119.0 505.0,127.0 505.0,128.0 503.0,136.0 503.0,137.0 501.0,146.0 501.0,147.0 499.0,156.0 499.0,157.0 506.0,163.0 507.0,163.0 510.0,162.0 511.0,162.0 512.0,157.0 512.0,156.0 514.0,148.0 514.0,147.0 515.0,141.0 515.0,140.0 517.0,136.0 517.0,136.0 518.0,133.0 518.0,132.0 519.0,130.0"/>
    <polyline points="517.0,136.0 520.0,140.0 520.0,141.0 520.0,147.0 520.0,148.0 520.0,156.0 520.0,157.0 519.0,162.0 519.0,162.0 521.0,162.0 522.0,162.0 525.0,161.0 526.0,161.0 533.0,154.0 533.0,153.0 533.0,145.0 533.0,144.0 533.0,136.0 533.0,135.0 534.0,129.0 535.0,128.0 538.0,124.0 539.0,123.0 541.0,118.0 541.0,117.0 542.0,112.0 542.0,111.0 543.0,106.0 543.0,105.0 544.0,96.0 544.0,95.0 538.0,87.0 537.0,86.0 535.0,86.0"/>
    <polyline points="563.0,105.0 563.0,102.0 563.0,101.0 562.0,92.0 563.0,91.0 561.0,84.0 560.0,84.0 558.0,84.0 557.0,84.0 553.0,84.0 552.0,85.0 549.0,87.0 549.0,88.0 550.0,93.0 550.0,94.0 550.0,99.0 550.0,100.0 550.0,105.0 550.0,106.0 550.0,111.0 550.0,112.0 551.0,117.0 551.0,118.0 551.0,123.0 551.0,124.0 551.0,129.0 551.0,130.0 550.0,136.0 550.0,137.0 549.0,144.0 548.0,145.0 547.0,152.0 547.0,153.0 552.0,158.0 553.0,158.0 557.0,158.0 558.0,158.0 560.0,151.0 560.0,150.0 562.0,141.0 562.0,140.0 565.0,131.0 565.0,130.0 569.0,122.0 569.0,121.0 572.0,114.0 572.0,113.0 575.0,106.0 576.0,105.0 579.0,99.0 580.0,98.0 581.0,93.0 582.0,92.0 585.0,86.0 585.0,85.0 581.0,81.0 580.0,81.0 575.0,82.0 574.0,82.0 572.0,85.0 572.0,86.0 570.0,92.0 570.0,93.0 567.0,98.0 567.0,99.0 565.0,103.0 564.0,104.0 563.0,105.0 563.0,105.0 563.0,111.0 563.0,112.0 563.0,117.0"/>
    <line x1="562.0" x2="567.0" y1="56.0" y2="56.0"/>
    <polyline points="547.0,18.0 549.0,17.0 550.0,16.0 552.0,13.0 553.0,12.0 554.0,10.0 555.0,9.0 558.0,5.0 559.0,4.0 562.0,0.0"/>
    <line x1="604.0" x2="604.0" y1="0.0" y2="3.0"/>
    <polyline points="616.0,0.0 620.0,5.0 621.0,5.0 625.0,0.0"/>
    <polyline points="606.0,17.0 601.0,17.0 601.0,18.0 606.0,18.0"/>
    <polyline points="687.0,3.0 688.0,5.0 689.0,6.0 693.0,8.0 694.0,9.0 696.0,9.0 696.0,9.0 698.0,5.0 697.0,4.0 695.0,3.0 694.0,3.0 692.0,0.0"/>
    <polyline points="696.0,9.0 700.0,6.0 701.0,7.0 704.0,8.0"/>
    <line x1="703.0" x2="703.0" y1="3.0" y2="0.0"/>
    <polyline points="700.0,43.0 698.0,47.0 698.0,48.0 698.0,52.0 699.0,53.0 700.0,56.0"/>
    <polyline points="704.0,97.0 695.0,101.0 694.0,102.0 685.0,105.0"/>
    <polyline points="679.0,110.0 676.0,110.0 675.0,110.0 671.0,112.0 670.0,113.0 665.0,115.0 664.0,116.0 662.0,116.0"/>
    <polyline points="656.0,123.0 652.0,121.0 651.0,122.0 646.0,124.0 645.0,125.0 643.0,123.0"/>
    <polyline points="632.0,184.0 634.0,185.0 635.0,185.0 639.0,187.0 640.0,188.0 640.0,193.0 640.0,193.0 638.0,191.0 637.0,191.0 636.0,193.0"/>
    <polyline points="640.0,193.0 646.0,190.0 647.0,191.0 654.0,196.0"/>
    <polygon points="664.0,199.0 660.0,197.0 659.0,198.0 655.0,201.0 654.0,202.0 655.0,207.0 655.0,207.0 657.0,205.0 658.0,204.0 660.0,202.0 661.0,201.0 664.0,199.0 664.0,199.0 667.0,197.0 668.0,196.0 674.0,193.0 674.0,193.0 668.0,192.0 667.0,193.0 663.0,195.0 662.0,196.0"/>
    <polyline points="672.0,191.0 674.0,193.0 674.0,193.0 676.0,194.0 677.0,195.0 680.0,198.0 681.0,199.0 683.0,201.0 684.0,202.0 680.0,205.0 680.0,205.0 679.0,204.0 678.0,204.0 674.0,203.0 673.0,203.0 667.0,208.0 666.0,209.0 662.0,212.0 661.0,213.0 658.0,216.0 657.0,216.0 653.0,221.0 652.0,222.0 649.0,226.0 648.0,226.0 647.0,227.0 647.0,227.0 641.0,222.0 641.0,221.0 643.0,216.0"/>
    <polyline points="647.0,214.0 648.0,213.0 648.0,213.0 651.0,210.0 652.0,209.0 655.0,207.0 655.0,207.0 652.0,204.0 651.0,204.0 649.0,207.0 648.0,208.0 648.0,213.0 648.0,213.0 646.0,210.0 645.0,211.0 643.0,214.0 646.0,215.0 643.0,216.0 643.0,215.0 643.0,216.0 643.0,216.0 645.0,221.0 645.0,222.0 647.0,227.0 647.0,227.0 647.0,229.0 648.0,230.0 646.0,233.0 646.0,233.0 643.0,236.0 643.0,237.0 643.0,243.0 644.0,244.0 645.0,245.0 645.0,245.0 640.0,245.0 639.0,244.0 635.0,244.0 634.0,244.0 632.0,244.0 631.0,244.0 623.0,244.0 622.0,244.0 618.0,242.0 618.0,242.0 621.0,246.0 621.0,247.0 620.0,248.0 620.0,248.0 618.0,249.0 617.0,249.0 613.0,251.0 611.0,252.0 608.0,253.0 607.0,252.0 608.0,253.0 608.0,253.0 606.0,254.0 605.0,254.0 600.0,256.0 599.0,257.0 594.0,260.0 593.0,261.0 587.0,264.0 586.0,265.0 580.0,268.0 579.0,269.0 575.0,271.0 574.0,272.0 579.0,277.0 580.0,278.0 583.0,280.0 584.0,281.0 587.0,282.0 588.0,282.0 593.0,283.0 594.0,283.0 598.0,284.0 599.0,285.0 602.0,286.0 604.0,287.0 609.0,289.0 610.0,290.0 616.0,293.0 617.0,294.0 611.0,297.0 611.0,297.0 611.0,298.0 612.0,299.0 615.0,304.0 615.0,305.0 615.0,310.0 614.0,311.0 610.0,314.0 609.0,315.0 608.0,318.0"/>
    <polyline points="620.0,318.0 620.0,322.0 620.0,322.0 622.0,327.0 621.0,328.0 620.0,330.0 620.0,330.0 616.0,328.0 613.0,327.0 614.0,325.0 615.0,324.0 620.0,322.0 620.0,322.0 616.0,327.0 613.0,328.0 609.0,335.0 609.0,336.0 608.0,338.0 608.0,338.0 607.0,343.0 607.0,344.0 603.0,349.0 603.0,349.0 601.0,352.0 601.0,353.0 599.0,358.0 598.0,359.0 603.0,363.0 603.0,363.0 597.0,367.0 596.0,368.0 593.0,369.0 593.0,369.0 593.0,367.0 594.0,366.0 596.0,362.0 597.0,361.0 603.0,363.0 603.0,363.0 605.0,359.0 606.0,358.0 611.0,353.0 611.0,352.0 612.0,351.0 612.0,351.0 609.0,348.0 608.0,350.0 603.0,349.0 603.0,349.0 603.0,344.0 604.0,343.0 608.0,338.0"/>
    <polyline points="615.0,330.0 620.0,330.0 620.0,330.0 616.0,335.0 616.0,336.0 615.0,338.0 614.0,338.0 612.0,343.0 611.0,344.0 612.0,351.0 612.0,351.0 614.0,349.0 615.0,348.0 617.0,345.0 618.0,344.0 622.0,338.0 623.0,337.0 625.0,335.0 625.0,335.0 625.0,334.0 625.0,333.0 629.0,328.0 630.0,327.0 626.0,323.0 626.0,323.0 633.0,322.0 634.0,321.0 636.0,318.0 637.0,317.0 643.0,318.0 643.0,318.0 638.0,315.0 639.0,314.0 643.0,309.0 644.0,308.0 643.0,305.0"/>
    <polyline points="651.0,306.0 653.0,305.0 654.0,305.0 657.0,305.0 658.0,305.0 660.0,306.0 660.0,306.0 664.0,303.0 664.0,302.0 665.0,299.0"/>
    <polyline points="669.0,304.0 666.0,306.0 665.0,306.0 660.0,306.0 660.0,306.0 660.0,309.0 659.0,310.0 662.0,316.0 662.0,316.0 661.0,319.0 661.0,320.0 664.0,324.0 664.0,324.0 660.0,322.0"/>
    <polyline points="662.0,316.0 665.0,313.0 666.0,311.0 669.0,315.0 669.0,315.0 669.0,319.0 669.0,320.0 669.0,321.0 669.0,321.0 666.0,322.0 665.0,323.0 664.0,324.0 664.0,324.0 662.0,326.0 662.0,327.0 661.0,333.0 661.0,333.0 663.0,330.0 664.0,329.0 666.0,327.0 667.0,326.0 669.0,321.0 669.0,321.0 672.0,323.0 673.0,324.0 677.0,328.0 678.0,329.0 679.0,330.0 679.0,330.0 680.0,333.0 681.0,333.0 683.0,333.0 683.0,333.0 681.0,329.0 680.0,329.0 679.0,330.0"/>
    <polyline points="661.0,333.0 660.0,333.0 661.0,333.0 660.0,328.0 659.0,329.0 657.0,333.0"/>
    <polyline points="659.0,334.0 657.0,333.0 657.0,333.0 653.0,333.0 652.0,331.0 651.0,331.0 651.0,331.0 650.0,335.0 650.0,336.0 655.0,337.0"/>
    <polyline points="642.0,338.0 643.0,342.0 642.0,343.0 643.0,348.0 643.0,349.0 642.0,352.0 642.0,352.0 640.0,356.0 639.0,357.0 637.0,359.0"/>
    <polyline points="632.0,362.0 630.0,360.0 629.0,360.0 627.0,359.0"/>
    <polyline points="622.0,355.0 618.0,358.0 617.0,360.0 615.0,362.0 614.0,363.0 610.0,368.0 609.0,369.0 605.0,375.0 604.0,376.0 603.0,377.0 603.0,377.0 598.0,378.0 598.0,379.0 602.0,381.0 602.0,381.0 603.0,379.0 603.0,378.0 603.0,377.0 603.0,377.0 599.0,375.0 599.0,374.0 600.0,369.0 600.0,368.0 603.0,363.0"/>
    <line x1="602.0" x2="597.0" y1="381.0" y2="382.0"/>
    <polyline points="592.0,381.0 588.0,381.0 588.0,380.0 586.0,377.0 586.0,377.0 586.0,376.0 586.0,375.0 586.0,374.0 586.0,374.0 589.0,374.0 590.0,375.0 591.0,375.0 591.0,375.0 595.0,371.0 595.0,370.0 593.0,369.0 593.0,369.0 592.0,370.0 592.0,371.0 591.0,375.0 591.0,375.0 592.0,380.0"/>
    <line x1="589.0" x2="586.0" y1="378.0" y2="377.0"/>
    <polyline points="584.0,369.0 584.0,371.0 584.0,372.0 586.0,374.0 586.0,374.0 587.0,372.0 587.0,371.0 584.0,369.0 584.0,369.0 581.0,362.0 580.0,361.0 579.0,360.0"/>
    <polyline points="572.0,364.0 575.0,370.0 575.0,371.0 571.0,374.0 571.0,374.0 569.0,371.0 568.0,370.0 566.0,367.0 566.0,367.0 570.0,363.0 571.0,364.0 572.0,364.0 572.0,364.0 574.0,362.0 575.0,361.0 576.0,360.0 577.0,360.0 579.0,360.0 579.0,360.0 578.0,358.0 578.0,357.0 577.0,356.0 576.0,355.0 573.0,354.0 573.0,354.0 571.0,351.0 570.0,350.0 569.0,351.0 569.0,351.0 569.0,349.0 567.0,348.0 566.0,347.0 565.0,347.0 563.0,348.0 563.0,348.0 565.0,350.0 566.0,351.0 569.0,351.0 569.0,351.0 570.0,352.0 571.0,353.0 573.0,354.0 573.0,354.0 573.0,356.0 572.0,357.0 570.0,359.0 570.0,359.0 568.0,361.0 569.0,362.0 566.0,367.0 566.0,367.0 564.0,366.0 563.0,365.0 561.0,363.0 560.0,362.0 557.0,360.0 557.0,360.0 560.0,356.0 561.0,357.0 565.0,359.0 566.0,360.0 570.0,359.0"/>
    <polyline points="561.0,372.0 563.0,375.0 564.0,376.0 564.0,377.0 564.0,377.0 561.0,382.0 560.0,381.0 555.0,383.0 555.0,383.0 554.0,382.0 555.0,383.0 554.0,376.0 553.0,376.0 550.0,374.0"/>
    <polyline points="543.0,373.0 546.0,374.0 547.0,374.0 550.0,374.0 550.0,374.0 547.0,371.0 546.0,371.0 543.0,373.0 543.0,373.0 540.0,374.0 539.0,374.0 534.0,376.0 533.0,376.0 531.0,375.0"/>
    <polyline points="532.0,379.0 534.0,382.0 535.0,383.0 536.0,384.0 537.0,384.0 538.0,384.0 538.0,384.0 539.0,385.0 540.0,386.0 544.0,388.0 544.0,388.0 543.0,390.0 541.0,391.0 542.0,395.0 542.0,395.0 539.0,393.0 538.0,393.0 529.0,393.0 528.0,394.0 525.0,395.0 525.0,395.0 522.0,390.0 523.0,389.0 524.0,386.0"/>
    <polyline points="528.0,388.0 524.0,386.0 524.0,386.0 528.0,382.0 529.0,381.0 532.0,379.0 532.0,379.0 532.0,378.0 532.0,377.0 531.0,375.0 531.0,375.0 530.0,370.0 531.0,369.0 532.0,365.0 532.0,364.0 532.0,357.0"/>
    <polyline points="533.0,351.0 533.0,354.0 533.0,355.0 532.0,357.0 532.0,357.0 537.0,357.0 538.0,357.0 542.0,357.0 543.0,357.0 548.0,358.0 549.0,358.0 554.0,360.0 555.0,360.0 557.0,360.0 557.0,360.0 558.0,355.0 557.0,354.0 558.0,351.0 558.0,351.0 555.0,347.0 554.0,346.0 556.0,344.0 556.0,344.0 557.0,343.0 558.0,343.0 560.0,344.0 561.0,344.0 562.0,345.0 564.0,346.0 563.0,348.0 563.0,348.0 561.0,348.0 560.0,348.0 558.0,351.0 558.0,351.0 551.0,353.0 550.0,353.0 542.0,351.0 541.0,351.0 539.0,349.0 539.0,348.0 540.0,346.0"/>
    <polyline points="546.0,343.0 549.0,341.0 550.0,341.0 556.0,344.0 556.0,344.0 550.0,345.0 549.0,344.0 546.0,343.0 546.0,343.0 542.0,340.0 541.0,340.0 538.0,341.0 537.0,341.0 534.0,342.0"/>
    <polyline points="528.0,344.0 530.0,341.0 531.0,341.0 534.0,342.0 534.0,342.0 534.0,346.0 534.0,347.0 533.0,351.0 533.0,351.0 531.0,350.0 530.0,350.0 524.0,352.0 524.0,352.0 527.0,349.0"/>
    <polyline points="517.0,347.0 521.0,344.0 522.0,344.0 528.0,344.0 528.0,344.0 522.0,347.0 521.0,348.0 517.0,347.0 517.0,347.0 514.0,349.0 514.0,350.0 517.0,355.0 517.0,355.0 518.0,359.0 518.0,360.0 517.0,362.0 517.0,362.0 514.0,364.0 513.0,365.0 510.0,367.0 509.0,368.0 507.0,369.0 506.0,370.0 503.0,373.0 502.0,374.0 499.0,379.0 498.0,380.0 496.0,386.0 496.0,387.0 497.0,395.0 497.0,395.0 497.0,396.0"/>
    <line x1="497.0" x2="495.0" y1="395.0" y2="391.0"/>
    <polyline points="492.0,396.0 490.0,388.0 490.0,387.0 492.0,380.0 492.0,379.0 492.0,376.0 492.0,376.0 494.0,374.0 495.0,374.0 496.0,373.0 497.0,372.0 498.0,371.0 499.0,370.0 501.0,367.0 501.0,366.0 499.0,364.0"/>
    <polyline points="498.0,362.0 496.0,362.0 496.0,362.0 493.0,364.0 492.0,365.0 489.0,366.0 489.0,366.0 490.0,367.0 490.0,368.0 488.0,370.0 488.0,370.0 488.0,372.0 489.0,373.0 492.0,376.0 492.0,376.0 486.0,376.0 485.0,376.0 483.0,377.0"/>
    <polyline points="475.0,384.0 476.0,381.0 476.0,380.0 475.0,378.0 475.0,378.0 473.0,380.0 473.0,381.0 475.0,384.0 475.0,384.0 473.0,386.0 473.0,387.0 473.0,391.0 473.0,392.0 474.0,396.0"/>
    <line x1="469.0" x2="468.0" y1="394.0" y2="396.0"/>
    <polyline points="463.0,396.0 463.0,395.0 463.0,395.0 459.0,392.0 459.0,391.0 462.0,387.0 462.0,387.0 462.0,391.0 462.0,392.0 463.0,395.0 463.0,395.0 459.0,396.0"/>
    <polygon points="462.0,377.0 462.0,373.0 462.0,372.0 462.0,368.0 462.0,368.0 459.0,372.0 459.0,373.0 462.0,377.0 462.0,377.0 459.0,381.0 459.0,382.0 462.0,387.0 462.0,387.0 462.0,382.0 462.0,381.0"/>
    <polyline points="454.0,365.0 452.0,362.0 451.0,362.0 447.0,364.0"/>
    <polyline points="452.0,358.0 451.0,359.0 450.0,360.0 447.0,364.0 447.0,364.0 444.0,367.0 443.0,367.0 441.0,369.0"/>
    <polyline points="462.0,359.0 465.0,362.0 466.0,362.0 469.0,360.0 469.0,360.0 471.0,357.0 472.0,356.0 475.0,354.0 475.0,354.0 474.0,352.0 474.0,351.0 474.0,349.0 473.0,348.0 470.0,345.0"/>
    <polyline points="464.0,344.0 458.0,349.0 457.0,350.0 453.0,344.0 454.0,343.0 455.0,342.0 455.0,342.0 457.0,340.0 458.0,339.0 464.0,343.0"/>
    <polyline points="462.0,330.0 465.0,332.0 466.0,333.0 470.0,336.0 470.0,337.0 469.0,343.0 469.0,344.0 470.0,345.0 470.0,345.0 468.0,348.0 468.0,349.0 466.0,353.0 465.0,355.0 462.0,359.0 462.0,359.0 462.0,363.0 462.0,364.0 462.0,368.0 462.0,368.0 459.0,364.0 459.0,363.0 462.0,359.0 462.0,359.0 458.0,357.0 457.0,357.0 452.0,358.0 452.0,358.0 451.0,356.0 450.0,355.0 448.0,351.0 448.0,350.0 447.0,344.0 447.0,343.0 450.0,338.0 451.0,337.0 455.0,342.0 455.0,342.0 452.0,336.0 452.0,335.0 457.0,330.0 458.0,329.0 462.0,330.0 462.0,330.0 460.0,328.0 460.0,327.0 461.0,325.0 461.0,325.0 458.0,321.0 457.0,322.0 454.0,324.0 453.0,325.0 446.0,323.0 445.0,323.0 441.0,323.0 441.0,323.0 439.0,322.0 438.0,322.0 435.0,321.0 434.0,320.0 425.0,320.0 424.0,321.0 418.0,324.0"/>
    <polyline points="418.0,339.0 415.0,341.0 414.0,340.0 409.0,339.0 408.0,339.0 400.0,340.0 399.0,340.0 394.0,341.0 393.0,341.0 389.0,341.0 388.0,341.0 379.0,341.0"/>
    <polyline points="381.0,349.0 378.0,350.0 377.0,350.0 375.0,349.0"/>
    <polyline points="379.0,362.0 381.0,363.0 382.0,363.0 388.0,365.0 389.0,365.0 392.0,364.0 393.0,364.0 396.0,361.0 396.0,361.0 398.0,364.0 399.0,364.0 403.0,363.0 403.0,363.0 399.0,361.0 398.0,361.0 396.0,361.0"/>
    <polyline points="403.0,363.0 405.0,363.0 406.0,364.0 409.0,365.0 410.0,365.0 413.0,362.0"/>
    <polyline points="409.0,349.0 406.0,351.0 405.0,351.0 401.0,350.0 400.0,350.0 396.0,349.0"/>
    <polyline points="392.0,330.0 389.0,331.0 388.0,331.0 386.0,330.0"/>
    <polyline points="392.0,322.0 394.0,322.0 395.0,323.0 397.0,327.0 397.0,328.0 403.0,331.0 404.0,332.0 408.0,331.0 409.0,331.0 414.0,327.0 415.0,326.0 418.0,324.0 418.0,324.0 416.0,319.0 417.0,318.0 421.0,313.0 422.0,312.0 424.0,310.0 425.0,309.0 430.0,301.0 429.0,300.0 429.0,298.0"/>
    <polyline points="423.0,289.0 422.0,288.0 422.0,287.0 423.0,283.0 423.0,283.0 425.0,282.0"/>
    <polyline points="417.0,283.0 419.0,284.0 420.0,284.0 423.0,283.0 423.0,283.0 421.0,279.0 421.0,278.0 422.0,274.0 422.0,273.0 423.0,271.0"/>
    <polyline points="425.0,269.0 423.0,271.0 423.0,271.0 421.0,269.0 421.0,268.0 426.0,263.0"/>
    <polyline points="428.0,257.0 425.0,255.0 424.0,255.0 420.0,255.0 419.0,255.0 417.0,255.0 417.0,255.0 412.0,252.0 411.0,251.0 412.0,250.0"/>
    <polyline points="417.0,255.0 416.0,260.0 416.0,261.0 418.0,265.0 418.0,265.0 415.0,268.0 414.0,269.0 412.0,270.0 412.0,271.0 407.0,276.0 407.0,277.0 407.0,279.0"/>
    <polyline points="410.0,284.0 414.0,290.0 415.0,291.0 419.0,292.0 420.0,293.0 423.0,289.0 423.0,289.0 425.0,289.0 426.0,289.0 427.0,288.0 428.0,287.0 432.0,279.0 432.0,278.0 432.0,273.0 431.0,272.0 430.0,268.0 429.0,266.0 426.0,263.0 426.0,263.0 420.0,264.0 419.0,264.0 418.0,265.0"/>
    <polyline points="402.0,267.0 401.0,271.0 400.0,272.0 403.0,279.0 403.0,279.0 398.0,275.0 397.0,276.0 395.0,276.0 395.0,276.0 393.0,275.0 392.0,275.0 391.0,276.0"/>
    <polyline points="395.0,276.0 394.0,277.0 394.0,278.0 397.0,281.0 398.0,282.0 400.0,283.0 400.0,283.0 403.0,281.0 403.0,280.0 403.0,279.0 403.0,279.0 405.0,278.0 406.0,278.0 407.0,279.0 407.0,279.0 408.0,282.0 409.0,283.0 410.0,284.0 410.0,284.0 406.0,286.0 405.0,284.0 400.0,283.0"/>
    <polyline points="392.0,286.0 389.0,285.0 388.0,285.0 383.0,288.0"/>
    <polyline points="385.0,291.0 383.0,288.0 383.0,288.0 382.0,289.0 381.0,290.0 374.0,287.0 374.0,287.0 377.0,291.0 377.0,292.0 377.0,295.0 377.0,296.0 378.0,301.0 377.0,302.0 376.0,306.0 376.0,307.0 377.0,309.0 377.0,309.0 375.0,309.0 374.0,308.0 369.0,307.0 368.0,307.0 366.0,308.0"/>
    <polyline points="377.0,309.0 378.0,310.0 379.0,310.0 384.0,309.0"/>
    <polyline points="388.0,316.0 391.0,317.0 392.0,317.0 396.0,316.0"/>
    <polyline points="375.0,333.0 372.0,331.0 371.0,331.0 368.0,333.0"/>
    <polyline points="367.0,327.0 363.0,326.0 362.0,326.0 358.0,327.0"/>
    <polyline points="359.0,321.0 355.0,321.0 354.0,321.0 351.0,321.0"/>
    <line x1="333.0" x2="328.0" y1="324.0" y2="322.0"/>
    <polyline points="327.0,312.0 329.0,312.0 330.0,312.0 333.0,307.0 333.0,306.0 333.0,300.0 333.0,299.0 333.0,293.0 333.0,292.0 337.0,288.0 338.0,287.0 342.0,284.0"/>
    <polyline points="334.0,284.0 330.0,284.0 329.0,284.0 324.0,286.0 323.0,286.0 321.0,285.0"/>
    <polyline points="314.0,292.0 315.0,291.0 316.0,291.0 322.0,290.0 323.0,290.0 325.0,295.0 324.0,296.0 323.0,303.0 323.0,304.0 321.0,308.0 321.0,309.0 321.0,310.0"/>
    <polyline points="306.0,322.0 309.0,319.0 310.0,319.0 312.0,318.0 313.0,318.0 318.0,312.0 319.0,311.0 321.0,310.0 321.0,310.0 322.0,310.0 323.0,310.0 327.0,312.0 327.0,312.0 324.0,315.0 324.0,316.0 322.0,319.0 321.0,320.0 319.0,322.0 318.0,323.0 314.0,327.0 313.0,328.0 310.0,331.0 309.0,331.0 303.0,331.0 302.0,330.0 297.0,327.0 296.0,326.0 294.0,324.0 293.0,323.0 284.0,323.0 283.0,323.0 276.0,328.0 276.0,329.0 279.0,336.0 279.0,337.0 282.0,342.0 283.0,343.0 287.0,349.0 288.0,350.0 292.0,356.0 292.0,357.0 294.0,361.0 294.0,362.0 295.0,367.0 295.0,368.0 294.0,375.0 294.0,376.0 294.0,384.0 294.0,385.0 293.0,390.0 292.0,391.0 291.0,396.0"/>
    <polyline points="282.0,396.0 281.0,391.0 281.0,390.0 280.0,385.0 280.0,384.0 281.0,380.0"/>
    <polyline points="287.0,380.0 287.0,376.0 288.0,375.0 287.0,372.0"/>
    <polyline points="318.0,388.0 321.0,387.0 322.0,387.0 325.0,388.0"/>
    <line x1="325.0" x2="338.0" y1="396.0" y2="396.0"/>
    <polyline points="340.0,376.0 344.0,378.0 345.0,378.0 349.0,376.0"/>
    <polyline points="366.0,369.0 369.0,369.0 370.0,369.0 374.0,369.0"/>
    <polyline points="359.0,358.0 354.0,358.0 353.0,358.0 349.0,358.0 348.0,358.0 339.0,357.0 338.0,357.0 333.0,356.0 332.0,356.0 328.0,356.0 327.0,356.0 323.0,358.0"/>
    <polyline points="340.0,351.0 343.0,348.0 344.0,348.0 348.0,351.0"/>
    <line x1="373.0" x2="373.0" y1="394.0" y2="396.0"/>
    <polyline points="388.0,388.0 388.0,385.0 388.0,384.0 388.0,382.0"/>
    <polyline points="399.0,387.0 402.0,384.0 403.0,384.0 407.0,387.0"/>
    <polyline points="423.0,396.0 422.0,392.0 422.0,391.0 420.0,386.0 420.0,385.0 418.0,380.0 418.0,379.0 418.0,374.0 418.0,373.0 418.0,368.0 418.0,367.0 419.0,362.0 419.0,361.0 420.0,356.0 421.0,355.0 423.0,350.0 423.0,349.0 426.0,344.0 427.0,343.0 429.0,338.0 430.0,337.0 432.0,335.0"/>
    <polyline points="433.0,330.0 432.0,333.0 432.0,334.0 432.0,335.0 432.0,335.0 435.0,338.0 436.0,339.0 444.0,335.0 443.0,334.0 440.0,326.0 440.0,325.0 441.0,323.0"/>
    <polyline points="461.0,296.0 463.0,298.0 463.0,299.0 462.0,305.0 462.0,306.0 461.0,311.0 460.0,312.0 459.0,318.0 459.0,319.0 461.0,325.0 461.0,325.0 464.0,319.0 465.0,318.0 467.0,312.0 467.0,311.0 468.0,306.0 468.0,305.0 469.0,300.0 469.0,299.0 469.0,297.0"/>
    <polyline points="459.0,284.0 457.0,285.0 456.0,285.0 447.0,284.0 446.0,283.0 437.0,283.0"/>
    <polyline points="439.0,277.0 441.0,278.0 442.0,278.0 445.0,277.0"/>
    <polyline points="457.0,257.0 458.0,263.0 458.0,264.0 459.0,268.0 460.0,270.0 462.0,270.0 462.0,270.0 463.0,271.0 463.0,272.0 466.0,281.0 466.0,282.0 467.0,286.0 467.0,287.0 469.0,292.0 469.0,293.0 469.0,297.0 469.0,297.0 470.0,298.0 471.0,298.0 474.0,293.0 474.0,292.0 475.0,287.0 475.0,286.0 474.0,282.0 473.0,281.0 470.0,272.0 470.0,271.0 468.0,265.0"/>
    <line x1="466.0" x2="470.0" y1="255.0" y2="253.0"/>
    <polyline points="454.0,253.0 452.0,250.0 451.0,249.0 446.0,242.0 445.0,241.0 442.0,239.0"/>
    <line x1="449.0" x2="450.0" y1="239.0" y2="240.0"/>
    <polyline points="443.0,231.0 444.0,230.0 445.0,230.0 451.0,234.0 452.0,235.0 455.0,238.0 455.0,239.0 455.0,244.0 456.0,245.0 458.0,250.0 459.0,251.0 461.0,256.0 462.0,257.0 464.0,261.0 465.0,262.0 462.0,270.0 462.0,270.0 466.0,265.0 467.0,265.0 468.0,265.0 468.0,265.0 470.0,263.0 471.0,262.0 473.0,260.0 474.0,259.0 477.0,256.0 478.0,254.0 481.0,250.0 482.0,249.0 486.0,244.0 486.0,243.0 491.0,238.0 492.0,237.0 498.0,234.0 499.0,233.0 506.0,230.0 507.0,229.0 510.0,229.0 511.0,228.0 518.0,228.0 519.0,228.0 522.0,228.0 522.0,228.0 524.0,228.0 525.0,228.0 530.0,226.0 531.0,226.0 536.0,226.0 537.0,226.0 540.0,226.0 540.0,226.0 543.0,224.0 544.0,224.0 551.0,219.0 552.0,218.0 555.0,217.0 556.0,216.0 562.0,212.0 563.0,212.0 570.0,208.0"/>
    <polyline points="568.0,216.0 572.0,220.0 573.0,219.0 580.0,221.0"/>
    <polyline points="581.0,223.0 583.0,229.0 583.0,230.0 581.0,236.0 580.0,236.0 573.0,239.0 572.0,239.0 568.0,241.0 567.0,242.0 559.0,241.0 558.0,241.0 555.0,237.0 555.0,236.0 554.0,230.0 555.0,229.0 556.0,227.0"/>
    <polyline points="552.0,226.0 556.0,227.0 556.0,227.0 559.0,225.0 560.0,225.0 566.0,223.0 567.0,222.0 568.0,216.0 568.0,216.0 571.0,214.0 572.0,213.0 578.0,205.0 578.0,204.0 577.0,203.0"/>
    <polyline points="586.0,199.0 584.0,202.0 584.0,203.0 585.0,206.0 585.0,206.0 588.0,203.0 588.0,202.0 586.0,199.0 586.0,199.0 587.0,197.0 587.0,196.0 590.0,194.0 591.0,194.0 595.0,197.0 595.0,197.0 596.0,193.0 596.0,192.0 598.0,188.0 599.0,187.0 602.0,186.0 603.0,185.0 608.0,184.0 609.0,183.0 613.0,183.0 614.0,183.0 617.0,184.0 617.0,184.0 619.0,183.0 620.0,183.0 624.0,184.0 624.0,184.0 626.0,187.0 628.0,188.0 624.0,191.0 624.0,191.0 622.0,192.0 621.0,193.0 619.0,195.0 619.0,196.0 618.0,201.0 618.0,201.0 613.0,199.0 612.0,201.0 609.0,199.0 609.0,199.0 610.0,196.0 610.0,195.0 612.0,193.0 612.0,193.0 613.0,191.0 614.0,190.0 615.0,188.0 616.0,187.0 617.0,184.0"/>
    <polyline points="624.0,184.0 628.0,183.0 629.0,184.0 632.0,184.0 632.0,184.0 630.0,187.0"/>
    <polyline points="625.0,188.0 624.0,191.0 624.0,191.0 624.0,193.0 623.0,194.0 623.0,196.0 623.0,196.0 622.0,196.0 621.0,197.0 618.0,201.0 618.0,201.0 617.0,203.0 617.0,204.0 615.0,207.0"/>
    <polyline points="604.0,208.0 603.0,207.0 603.0,206.0 604.0,205.0 604.0,205.0 605.0,206.0 605.0,207.0 604.0,208.0 604.0,208.0 604.0,210.0 604.0,211.0 604.0,217.0 604.0,218.0 605.0,225.0 605.0,226.0 607.0,230.0 608.0,231.0 606.0,236.0 606.0,236.0 603.0,240.0 604.0,241.0 606.0,244.0 606.0,244.0 602.0,244.0 601.0,243.0 599.0,240.0 598.0,239.0 599.0,235.0 599.0,235.0 601.0,237.0 602.0,238.0 606.0,236.0 606.0,236.0 602.0,232.0 601.0,231.0 597.0,231.0 597.0,231.0 597.0,232.0 598.0,233.0 599.0,235.0 599.0,235.0 594.0,233.0 593.0,232.0 594.0,227.0 594.0,227.0 595.0,227.0 596.0,230.0 597.0,231.0 597.0,231.0 600.0,227.0 599.0,226.0 598.0,222.0 597.0,221.0 595.0,216.0 595.0,215.0 596.0,214.0"/>
    <polyline points="598.0,213.0 596.0,214.0 596.0,214.0 594.0,209.0 594.0,208.0 594.0,206.0 594.0,206.0 592.0,201.0 592.0,200.0 595.0,197.0 595.0,197.0 595.0,200.0 595.0,201.0 594.0,206.0"/>
    <polyline points="589.0,222.0 587.0,216.0 587.0,215.0 587.0,212.0 587.0,212.0 585.0,209.0 585.0,208.0 585.0,206.0 585.0,206.0 589.0,208.0 589.0,209.0 587.0,212.0 587.0,212.0 590.0,215.0 591.0,216.0 592.0,221.0 592.0,222.0 594.0,227.0 594.0,227.0 590.0,226.0"/>
    <line x1="574.0" x2="573.0" y1="226.0" y2="230.0"/>
    <polyline points="547.0,233.0 546.0,237.0 546.0,238.0 548.0,241.0"/>
    <line x1="540.0" x2="536.0" y1="230.0" y2="230.0"/>
    <polyline points="540.0,226.0 539.0,227.0 539.0,228.0 536.0,230.0 536.0,230.0 531.0,232.0 530.0,233.0 525.0,236.0 524.0,236.0 523.0,236.0 523.0,236.0 521.0,230.0 522.0,229.0 522.0,228.0"/>
    <polyline points="523.0,236.0 522.0,237.0 522.0,238.0 516.0,242.0 515.0,242.0 514.0,243.0 514.0,244.0 511.0,247.0"/>
    <polyline points="507.0,297.0 503.0,299.0 502.0,299.0 499.0,297.0"/>
    <line x1="518.0" x2="521.0" y1="322.0" y2="320.0"/>
    <polyline points="522.0,321.0 526.0,327.0 526.0,328.0 525.0,332.0 525.0,333.0 522.0,336.0 521.0,336.0 515.0,336.0 514.0,336.0 509.0,332.0 507.0,331.0 508.0,323.0 508.0,323.0 505.0,329.0 504.0,328.0 501.0,326.0 500.0,325.0 498.0,321.0 498.0,320.0 504.0,312.0 505.0,312.0 509.0,312.0 510.0,312.0 514.0,317.0 514.0,318.0 510.0,320.0 509.0,319.0 506.0,321.0 507.0,322.0 508.0,323.0 508.0,323.0 509.0,323.0 510.0,324.0 515.0,328.0 516.0,329.0 518.0,326.0 517.0,325.0 518.0,322.0 518.0,322.0 516.0,324.0"/>
    <polyline points="517.0,355.0 521.0,351.0 522.0,351.0 524.0,352.0 524.0,352.0 524.0,354.0 524.0,355.0 524.0,364.0 526.0,365.0 526.0,369.0"/>
    <polyline points="519.0,368.0 517.0,372.0 517.0,373.0 519.0,377.0 519.0,377.0 521.0,373.0 521.0,372.0 519.0,368.0 519.0,368.0 517.0,365.0 517.0,364.0 517.0,362.0"/>
    <polyline points="506.0,354.0 504.0,352.0 504.0,352.0 503.0,352.0 502.0,353.0 499.0,355.0 499.0,355.0 500.0,357.0 500.0,358.0 502.0,360.0 503.0,361.0 506.0,362.0 507.0,362.0 512.0,359.0 513.0,358.0 517.0,355.0 517.0,355.0 519.0,350.0 519.0,349.0 517.0,347.0 517.0,347.0 513.0,348.0 512.0,348.0 508.0,352.0 508.0,352.0 507.0,353.0 508.0,352.0 507.0,351.0 506.0,351.0 504.0,352.0 504.0,352.0 503.0,356.0"/>
    <polyline points="499.0,355.0 497.0,357.0 496.0,358.0 496.0,362.0 496.0,362.0 493.0,360.0 492.0,361.0 489.0,366.0 489.0,366.0 487.0,367.0 487.0,368.0 488.0,370.0 488.0,370.0 486.0,371.0 485.0,371.0 484.0,373.0 483.0,374.0 483.0,377.0 483.0,377.0 482.0,379.0 482.0,380.0 481.0,386.0 480.0,387.0 483.0,389.0 483.0,389.0 485.0,388.0"/>
    <polyline points="486.0,388.0 486.0,391.0 485.0,390.0 483.0,389.0 483.0,389.0 480.0,396.0"/>
    <polyline points="483.0,396.0 483.0,389.0 483.0,389.0 478.0,390.0"/>
    <polyline points="475.0,368.0 473.0,375.0 473.0,376.0 475.0,378.0 475.0,378.0 476.0,376.0 476.0,375.0 475.0,368.0 475.0,368.0 475.0,366.0 475.0,365.0 475.0,363.0 475.0,363.0 473.0,359.0 473.0,358.0 475.0,354.0 475.0,354.0 476.0,358.0 476.0,359.0 475.0,363.0 475.0,363.0 472.0,364.0 471.0,364.0 469.0,360.0 469.0,360.0 471.0,360.0 472.0,360.0 475.0,363.0"/>
    <polyline points="511.0,396.0 513.0,389.0 513.0,388.0 514.0,381.0 515.0,380.0 519.0,377.0 519.0,377.0 519.0,380.0 519.0,381.0 519.0,385.0"/>
    <line x1="525.0" x2="525.0" y1="395.0" y2="396.0"/>
    <line x1="542.0" x2="545.0" y1="395.0" y2="396.0"/>
    <polyline points="544.0,388.0 545.0,388.0 546.0,388.0 548.0,384.0 548.0,383.0 553.0,381.0"/>
    <polyline points="555.0,383.0 556.0,384.0 556.0,385.0 559.0,390.0 559.0,391.0 558.0,396.0"/>
    <polyline points="563.0,396.0 563.0,390.0 563.0,389.0 562.0,384.0 562.0,383.0 564.0,377.0 564.0,377.0 567.0,380.0 568.0,380.0 572.0,379.0 572.0,379.0 572.0,377.0 572.0,376.0 571.0,374.0 571.0,374.0 576.0,372.0 577.0,374.0 578.0,375.0 578.0,376.0 580.0,380.0 580.0,381.0 581.0,390.0 581.0,391.0 580.0,396.0"/>
    <polyline points="574.0,396.0 575.0,391.0 575.0,390.0 574.0,387.0 574.0,387.0 575.0,384.0 574.0,383.0 572.0,379.0"/>
    <line x1="574.0" x2="576.0" y1="387.0" y2="389.0"/>
    <line x1="588.0" x2="592.0" y1="396.0" y2="394.0"/>
    <polyline points="604.0,396.0 613.0,395.0 613.0,395.0 609.0,393.0 608.0,392.0 606.0,389.0 606.0,389.0 611.0,392.0 612.0,393.0 613.0,395.0 613.0,395.0 609.0,396.0"/>
    <line x1="612.0" x2="613.0" y1="396.0" y2="395.0"/>
    <polyline points="615.0,389.0 615.0,386.0 615.0,385.0 614.0,382.0 614.0,382.0 618.0,380.0 619.0,379.0 624.0,380.0 624.0,380.0 620.0,385.0 619.0,386.0 618.0,388.0 617.0,388.0 615.0,389.0 615.0,389.0 615.0,392.0 615.0,393.0 613.0,395.0 613.0,395.0 605.0,393.0 605.0,392.0 606.0,389.0 606.0,389.0 609.0,386.0 609.0,385.0 611.0,383.0 612.0,383.0 614.0,382.0 614.0,382.0 615.0,377.0 615.0,376.0 618.0,372.0 619.0,372.0 626.0,374.0 626.0,374.0 620.0,369.0 620.0,368.0 622.0,367.0 623.0,365.0 624.0,365.0 624.0,365.0 624.0,362.0 625.0,361.0 627.0,359.0 627.0,359.0 628.0,356.0 629.0,355.0 631.0,353.0 631.0,353.0 633.0,352.0 634.0,352.0 635.0,353.0 635.0,353.0 636.0,350.0 636.0,349.0 635.0,347.0 635.0,347.0 634.0,346.0 633.0,347.0 631.0,349.0 631.0,350.0 631.0,353.0"/>
    <polyline points="635.0,353.0 636.0,355.0 637.0,356.0 637.0,359.0 637.0,359.0 635.0,360.0 634.0,360.0 632.0,362.0 632.0,362.0 630.0,367.0 629.0,367.0 624.0,365.0"/>
    <polyline points="626.0,374.0 626.0,376.0 626.0,377.0 624.0,380.0"/>
    <polyline points="650.0,384.0 654.0,385.0 655.0,384.0 660.0,384.0"/>
    <line x1="678.0" x2="682.0" y1="375.0" y2="372.0"/>
    <line x1="700.0" x2="704.0" y1="355.0" y2="355.0"/>
    <polyline points="704.0,318.0 703.0,329.0 703.0,329.0 697.0,333.0 696.0,333.0 689.0,332.0 688.0,332.0 683.0,333.0 683.0,333.0 683.0,336.0 684.0,337.0 688.0,342.0 689.0,342.0 692.0,345.0 692.0,346.0 691.0,350.0 690.0,351.0 688.0,357.0 688.0,358.0 692.0,366.0 693.0,367.0 696.0,376.0 697.0,377.0 698.0,386.0 698.0,387.0 698.0,396.0"/>
    <polyline points="666.0,350.0 663.0,349.0 662.0,350.0 658.0,352.0 657.0,353.0 654.0,355.0"/>
    <polyline points="642.0,352.0 645.0,350.0 646.0,349.0 649.0,346.0 649.0,345.0 649.0,341.0 650.0,340.0 655.0,337.0 655.0,337.0 654.0,336.0 655.0,337.0 656.0,336.0 655.0,335.0 657.0,333.0 657.0,333.0 658.0,327.0 658.0,326.0 655.0,323.0 654.0,322.0 650.0,322.0"/>
    <polyline points="650.0,320.0 653.0,318.0 653.0,318.0 653.0,320.0 653.0,321.0 650.0,322.0 650.0,321.0 650.0,322.0 650.0,322.0 648.0,326.0 648.0,327.0 651.0,331.0 651.0,331.0 646.0,329.0 645.0,329.0 642.0,334.0"/>
    <polyline points="641.0,324.0 640.0,321.0 641.0,320.0 643.0,318.0"/>
    <polyline points="635.0,308.0 634.0,309.0 633.0,311.0 628.0,311.0 628.0,311.0 629.0,317.0 628.0,318.0 626.0,323.0 626.0,323.0 625.0,323.0 624.0,324.0 620.0,322.0 620.0,322.0 623.0,318.0 620.0,317.0 621.0,315.0 622.0,313.0 623.0,312.0 623.0,312.0 625.0,315.0 626.0,313.0 628.0,311.0 628.0,311.0 628.0,310.0 625.0,309.0 626.0,307.0 627.0,307.0 631.0,307.0 631.0,307.0 628.0,305.0 629.0,304.0 634.0,302.0 634.0,302.0 633.0,304.0 632.0,305.0 631.0,307.0 631.0,307.0 629.0,309.0"/>
    <polyline points="624.0,310.0 623.0,312.0 623.0,312.0 624.0,317.0"/>
    <polyline points="632.0,296.0 632.0,298.0 631.0,299.0 634.0,302.0 634.0,302.0 636.0,300.0 637.0,300.0 645.0,301.0 646.0,301.0 654.0,300.0 655.0,300.0 662.0,299.0 663.0,299.0 665.0,299.0 665.0,299.0 668.0,296.0 669.0,295.0 673.0,299.0 673.0,299.0 672.0,290.0 673.0,289.0 676.0,285.0 677.0,284.0 677.0,280.0 677.0,280.0 675.0,278.0 673.0,277.0 667.0,272.0 666.0,271.0 662.0,266.0"/>
    <polyline points="655.0,268.0 658.0,268.0 659.0,268.0 662.0,266.0 662.0,266.0 660.0,264.0 659.0,263.0 655.0,258.0 654.0,257.0 654.0,255.0 654.0,255.0 653.0,256.0 652.0,256.0 649.0,251.0 649.0,250.0 648.0,249.0 647.0,248.0 645.0,245.0 645.0,245.0 640.0,248.0 639.0,248.0 635.0,248.0 634.0,248.0 632.0,248.0 631.0,248.0 623.0,248.0 622.0,248.0 620.0,248.0"/>
    <polyline points="609.0,247.0 606.0,244.0 606.0,244.0 604.0,247.0 605.0,248.0 607.0,251.0"/>
    <polyline points="606.0,236.0 611.0,239.0 612.0,240.0 615.0,241.0 616.0,242.0 618.0,242.0 618.0,242.0 618.0,239.0 617.0,238.0 615.0,232.0 614.0,231.0 614.0,226.0 614.0,225.0 613.0,224.0 613.0,224.0 608.0,222.0 608.0,221.0 613.0,215.0 613.0,215.0 614.0,221.0 614.0,222.0 613.0,224.0 613.0,224.0 611.0,222.0 611.0,221.0 613.0,215.0 613.0,215.0 608.0,214.0 608.0,213.0 609.0,212.0 609.0,212.0 614.0,213.0 613.0,214.0 613.0,215.0 613.0,215.0 607.0,219.0"/>
    <polyline points="627.0,214.0 627.0,210.0 627.0,209.0 628.0,202.0 629.0,201.0 623.0,196.0"/>
    <polyline points="612.0,193.0 615.0,195.0 614.0,196.0 618.0,201.0 618.0,201.0 615.0,203.0 615.0,204.0 615.0,207.0 615.0,207.0 615.0,210.0 614.0,211.0 609.0,212.0 609.0,212.0 609.0,211.0 609.0,210.0 611.0,204.0 611.0,203.0 609.0,199.0 609.0,199.0 608.0,199.0 607.0,202.0 604.0,205.0 604.0,205.0 603.0,200.0 603.0,199.0 606.0,191.0"/>
    <polyline points="647.0,227.0 643.0,229.0 643.0,230.0 646.0,233.0 646.0,233.0 649.0,235.0"/>
    <line x1="651.0" x2="652.0" y1="240.0" y2="241.0"/>
    <polyline points="654.0,255.0 655.0,251.0 655.0,250.0 658.0,245.0 659.0,244.0 662.0,240.0 663.0,239.0 666.0,234.0 667.0,233.0 671.0,228.0 672.0,227.0 675.0,224.0 676.0,223.0 683.0,218.0 684.0,218.0 686.0,218.0 686.0,218.0 685.0,216.0 684.0,215.0 682.0,209.0 681.0,208.0 680.0,205.0 680.0,205.0 685.0,203.0 686.0,204.0 689.0,207.0 689.0,208.0 690.0,215.0 690.0,216.0 686.0,218.0 686.0,218.0 691.0,218.0 692.0,219.0 693.0,223.0 694.0,224.0 701.0,227.0 702.0,227.0 704.0,229.0"/>
    <polyline points="699.0,235.0 700.0,236.0 699.0,237.0 697.0,240.0 697.0,240.0 695.0,241.0 694.0,244.0 693.0,246.0 696.0,247.0 693.0,250.0 693.0,250.0 691.0,252.0 691.0,253.0 690.0,255.0 689.0,256.0 685.0,263.0 685.0,264.0 683.0,268.0"/>
    <polyline points="675.0,268.0 673.0,264.0 673.0,263.0 675.0,259.0 675.0,258.0 677.0,253.0 677.0,252.0 679.0,249.0 680.0,248.0 684.0,241.0"/>
    <polyline points="689.0,233.0 688.0,234.0 688.0,234.0 684.0,238.0 684.0,239.0 684.0,241.0 684.0,241.0 686.0,239.0 686.0,238.0 688.0,234.0 688.0,234.0 678.0,231.0 677.0,232.0 675.0,235.0 675.0,236.0 675.0,238.0 675.0,238.0 674.0,241.0 673.0,242.0 671.0,244.0 671.0,244.0 671.0,242.0 671.0,241.0 675.0,238.0 675.0,238.0 677.0,237.0 678.0,235.0 688.0,234.0 688.0,234.0 682.0,228.0 681.0,227.0 683.0,227.0"/>
    <line x1="688.0" x2="686.0" y1="223.0" y2="218.0"/>
    <line x1="697.0" x2="696.0" y1="240.0" y2="246.0"/>
    <line x1="692.0" x2="693.0" y1="247.0" y2="250.0"/>
    <polyline points="701.0,255.0 700.0,257.0 700.0,258.0 697.0,263.0 696.0,264.0 694.0,268.0"/>
    <polyline points="677.0,280.0 679.0,281.0 680.0,281.0 684.0,284.0 683.0,285.0 681.0,289.0 680.0,290.0 678.0,294.0 678.0,295.0 679.0,299.0 679.0,299.0 677.0,296.0 676.0,297.0 673.0,299.0 673.0,299.0 676.0,292.0"/>
    <polyline points="673.0,299.0 672.0,302.0 670.0,303.0 669.0,304.0 669.0,304.0 668.0,309.0 667.0,310.0 669.0,315.0 669.0,315.0 672.0,311.0 673.0,310.0 677.0,306.0 677.0,306.0 677.0,303.0 678.0,302.0 679.0,299.0 679.0,299.0 681.0,297.0 682.0,295.0 686.0,290.0 687.0,289.0 688.0,288.0 689.0,288.0 692.0,289.0 692.0,289.0 695.0,288.0 696.0,288.0 703.0,287.0 703.0,287.0 698.0,292.0 698.0,293.0 703.0,329.0 703.0,329.0 697.0,304.0 696.0,304.0 693.0,302.0"/>
    <polyline points="692.0,289.0 691.0,292.0 691.0,293.0 696.0,296.0 697.0,296.0 703.0,329.0 703.0,329.0 697.0,310.0 696.0,310.0 689.0,308.0 688.0,308.0 681.0,308.0 680.0,308.0 677.0,306.0"/>
    <polyline points="656.0,315.0 657.0,318.0 658.0,318.0 662.0,316.0 662.0,316.0 658.0,314.0 657.0,314.0 656.0,315.0 656.0,315.0 655.0,316.0 654.0,317.0 653.0,318.0 653.0,318.0 650.0,316.0 649.0,315.0 651.0,310.0 652.0,309.0 651.0,306.0 651.0,306.0 646.0,304.0 645.0,305.0 643.0,305.0 643.0,305.0 637.0,304.0 636.0,303.0 634.0,302.0 634.0,302.0 628.0,300.0 627.0,300.0 623.0,299.0 622.0,298.0 619.0,296.0 618.0,295.0 611.0,297.0 611.0,297.0 610.0,297.0 609.0,297.0 607.0,296.0 606.0,295.0 601.0,294.0 599.0,293.0 595.0,290.0 594.0,289.0 592.0,290.0"/>
    <polyline points="592.0,323.0 595.0,326.0 595.0,327.0 592.0,331.0"/>
    <polyline points="629.0,340.0 625.0,335.0 625.0,335.0 630.0,339.0 631.0,338.0 636.0,342.0 636.0,342.0 639.0,339.0 640.0,338.0 642.0,338.0 642.0,338.0 642.0,336.0 642.0,335.0 642.0,334.0 642.0,334.0 640.0,332.0 639.0,331.0 632.0,335.0 632.0,336.0 636.0,342.0 636.0,342.0 636.0,344.0 636.0,345.0 635.0,347.0"/>
    <polyline points="643.0,268.0 640.0,267.0 639.0,267.0 635.0,267.0 634.0,267.0 632.0,267.0"/>
    <polyline points="669.0,245.0 669.0,247.0 670.0,247.0 671.0,244.0"/>
    <line x1="703.0" x2="704.0" y1="287.0" y2="287.0"/>
    <line x1="704.0" x2="702.0" y1="158.0" y2="157.0"/>
    <line x1="702.0" x2="704.0" y1="143.0" y2="143.0"/>
    <line x1="519.0" x2="516.0" y1="162.0" y2="163.0"/>
    <polyline points="484.0,152.0 480.0,153.0 479.0,154.0 476.0,155.0"/>
    <polyline points="494.0,127.0 496.0,127.0 497.0,125.0 500.0,123.0"/>
    <polyline points="425.0,220.0 422.0,221.0 422.0,222.0 424.0,224.0 424.0,224.0 421.0,223.0 420.0,223.0 418.0,226.0 418.0,226.0 416.0,222.0"/>
    <polyline points="410.0,225.0 414.0,223.0 415.0,223.0 418.0,226.0 418.0,226.0 418.0,229.0 418.0,230.0 423.0,233.0 423.0,234.0 426.0,238.0 426.0,238.0 422.0,241.0 421.0,241.0 419.0,239.0 419.0,239.0 415.0,237.0 414.0,237.0 412.0,237.0"/>
    <polyline points="419.0,239.0 418.0,242.0 418.0,243.0 418.0,244.0 418.0,244.0 416.0,247.0 416.0,248.0 412.0,250.0 412.0,250.0 411.0,248.0 411.0,247.0 409.0,243.0 408.0,242.0 405.0,238.0 405.0,238.0 406.0,233.0 405.0,232.0 407.0,231.0"/>
    <polyline points="404.0,225.0 407.0,224.0 408.0,224.0 410.0,225.0 410.0,225.0 408.0,228.0 407.0,227.0 404.0,225.0 404.0,225.0 402.0,227.0 401.0,227.0 398.0,223.0"/>
    <polyline points="397.0,235.0 395.0,232.0 394.0,232.0 392.0,234.0 392.0,234.0 387.0,238.0"/>
    <polyline points="380.0,239.0 385.0,243.0 385.0,244.0 385.0,247.0 384.0,248.0 383.0,250.0 383.0,250.0 382.0,250.0 381.0,251.0 379.0,252.0 379.0,252.0 380.0,254.0 380.0,255.0 377.0,258.0 377.0,258.0 374.0,255.0 373.0,254.0 379.0,252.0"/>
    <polyline points="377.0,258.0 376.0,260.0 376.0,261.0 379.0,266.0 380.0,267.0 382.0,269.0 382.0,269.0 388.0,268.0 389.0,268.0 393.0,269.0"/>
    <polyline points="400.0,263.0 400.0,259.0 400.0,258.0 399.0,252.0 398.0,252.0 397.0,252.0 397.0,252.0 391.0,249.0 390.0,249.0 383.0,250.0 383.0,250.0 387.0,252.0 386.0,253.0 384.0,262.0"/>
    <polyline points="382.0,269.0 381.0,272.0 381.0,273.0 384.0,276.0"/>
    <polyline points="384.0,280.0 380.0,281.0 379.0,282.0 374.0,287.0 374.0,287.0 372.0,287.0 371.0,286.0 370.0,286.0"/>
    <polyline points="375.0,274.0 372.0,277.0 371.0,277.0 367.0,275.0 367.0,275.0 366.0,274.0 365.0,273.0 365.0,270.0 364.0,269.0 360.0,264.0 359.0,263.0 357.0,259.0 357.0,258.0 360.0,253.0"/>
    <polyline points="354.0,248.0 355.0,249.0 356.0,250.0 360.0,253.0 360.0,253.0 363.0,250.0 364.0,250.0 366.0,246.0 367.0,245.0 371.0,242.0 372.0,241.0 374.0,239.0 375.0,238.0 379.0,234.0 380.0,234.0 386.0,233.0 387.0,232.0 392.0,234.0 392.0,234.0 388.0,231.0 389.0,230.0 394.0,225.0 395.0,225.0 398.0,223.0 398.0,223.0 400.0,221.0 401.0,220.0 406.0,219.0 407.0,219.0 414.0,217.0 415.0,217.0 423.0,216.0 424.0,216.0 433.0,217.0 434.0,217.0 440.0,223.0 440.0,224.0 442.0,228.0 442.0,229.0 443.0,231.0 443.0,231.0 442.0,237.0 442.0,238.0 442.0,239.0 442.0,239.0 439.0,239.0 438.0,238.0 434.0,235.0 433.0,235.0 431.0,235.0 430.0,235.0 426.0,238.0 426.0,238.0 422.0,238.0 421.0,238.0 419.0,239.0 419.0,239.0 415.0,241.0 414.0,241.0 412.0,237.0 412.0,237.0 410.0,235.0 409.0,234.0 405.0,238.0 405.0,238.0 404.0,237.0 403.0,237.0 398.0,240.0 398.0,241.0 399.0,244.0"/>
    <polyline points="397.0,252.0 396.0,254.0 396.0,255.0 395.0,258.0"/>
    <polyline points="418.0,244.0 420.0,244.0 421.0,245.0 425.0,247.0"/>
    <line x1="426.0" x2="430.0" y1="238.0" y2="239.0"/>
    <polyline points="428.0,232.0 427.0,230.0 426.0,229.0 424.0,224.0 424.0,224.0 429.0,224.0 430.0,224.0 433.0,225.0 434.0,225.0 436.0,229.0"/>
    <polyline points="360.0,272.0 359.0,273.0 360.0,274.0 361.0,275.0 361.0,275.0 356.0,278.0 355.0,278.0 351.0,277.0"/>
    <polyline points="361.0,275.0 363.0,276.0 364.0,276.0 367.0,275.0 367.0,275.0 370.0,282.0 370.0,283.0 370.0,286.0 370.0,286.0 368.0,289.0 368.0,290.0 363.0,291.0 362.0,291.0 356.0,291.0 355.0,291.0 348.0,292.0 347.0,291.0 344.0,292.0"/>
    <polyline points="342.0,299.0 345.0,299.0 346.0,299.0 350.0,299.0"/>
    <polyline points="331.0,272.0 333.0,272.0 334.0,272.0 337.0,271.0 338.0,270.0 340.0,268.0 341.0,267.0 343.0,267.0 343.0,267.0 347.0,271.0 348.0,270.0 354.0,267.0 354.0,266.0 352.0,263.0"/>
    <polyline points="335.0,242.0 334.0,240.0 333.0,239.0 333.0,237.0 333.0,237.0 336.0,232.0 335.0,231.0 332.0,229.0 331.0,229.0 327.0,227.0 326.0,226.0 323.0,231.0 323.0,231.0 324.0,232.0 324.0,233.0 326.0,235.0 327.0,235.0 331.0,238.0 332.0,238.0 333.0,237.0 333.0,237.0 337.0,233.0 338.0,235.0 341.0,241.0 342.0,242.0 344.0,244.0 345.0,245.0 349.0,249.0 350.0,250.0 347.0,255.0 348.0,256.0 351.0,260.0 351.0,261.0 352.0,263.0 352.0,263.0 348.0,264.0 347.0,265.0 343.0,267.0 343.0,267.0 343.0,273.0 342.0,274.0 338.0,278.0 337.0,279.0 332.0,279.0 331.0,279.0 328.0,275.0 329.0,274.0 331.0,272.0 331.0,272.0 327.0,267.0 326.0,268.0 324.0,269.0 323.0,269.0 322.0,270.0 320.0,271.0 320.0,272.0"/>
    <polyline points="313.0,274.0 316.0,274.0 317.0,273.0 320.0,272.0 320.0,272.0 318.0,276.0 317.0,277.0 310.0,280.0 309.0,281.0 303.0,287.0 302.0,288.0 300.0,291.0 299.0,292.0 295.0,284.0 295.0,283.0 292.0,276.0 291.0,275.0 288.0,274.0"/>
    <polyline points="284.0,273.0 282.0,272.0 281.0,272.0 278.0,274.0 278.0,274.0 278.0,279.0 277.0,280.0 279.0,284.0 279.0,284.0 280.0,283.0 281.0,282.0 282.0,280.0 283.0,279.0 284.0,273.0 284.0,273.0 285.0,273.0 286.0,273.0 288.0,274.0 288.0,274.0 288.0,277.0 288.0,278.0 289.0,282.0"/>
    <polyline points="287.0,288.0 290.0,289.0 290.0,290.0 283.0,297.0 282.0,297.0 277.0,293.0 277.0,292.0 278.0,286.0 279.0,285.0 279.0,284.0"/>
    <polyline points="281.0,276.0 278.0,274.0 278.0,274.0 274.0,278.0 273.0,278.0 268.0,283.0 267.0,284.0 265.0,287.0 265.0,288.0 262.0,289.0"/>
    <polyline points="256.0,284.0 257.0,286.0 257.0,287.0 260.0,293.0 260.0,294.0 263.0,299.0 264.0,300.0 264.0,302.0 264.0,302.0 259.0,301.0 258.0,299.0 254.0,296.0"/>
    <polyline points="246.0,303.0 243.0,300.0 243.0,299.0 244.0,294.0 244.0,293.0 244.0,288.0 245.0,287.0 246.0,285.0"/>
    <polyline points="252.0,280.0 252.0,283.0 252.0,284.0 253.0,293.0 254.0,294.0 254.0,296.0 254.0,296.0 253.0,301.0 253.0,302.0 255.0,310.0 255.0,311.0 258.0,318.0 258.0,319.0 259.0,323.0"/>
    <polyline points="269.0,332.0 269.0,328.0 269.0,327.0 270.0,319.0 269.0,318.0 265.0,311.0 264.0,310.0 262.0,306.0 262.0,306.0 266.0,304.0 265.0,303.0 264.0,302.0 264.0,302.0 260.0,303.0 261.0,304.0 262.0,306.0 262.0,306.0 267.0,307.0"/>
    <polyline points="290.0,309.0 293.0,309.0 294.0,309.0 298.0,309.0"/>
    <polyline points="305.0,275.0 301.0,271.0 301.0,270.0 297.0,267.0 296.0,267.0 291.0,265.0 290.0,266.0 285.0,267.0 284.0,267.0 282.0,267.0"/>
    <polyline points="278.0,247.0 277.0,243.0 277.0,242.0 278.0,235.0 279.0,234.0 282.0,228.0 283.0,227.0 286.0,222.0 286.0,222.0 282.0,223.0 281.0,223.0 278.0,223.0 277.0,224.0 274.0,225.0 273.0,225.0 270.0,227.0 269.0,228.0 263.0,233.0 262.0,234.0 261.0,237.0 261.0,237.0 264.0,239.0 264.0,240.0 260.0,241.0 260.0,240.0 260.0,241.0 260.0,241.0 259.0,242.0 259.0,243.0 260.0,244.0 260.0,244.0 258.0,246.0 257.0,248.0 256.0,249.0 256.0,249.0 255.0,248.0 254.0,248.0 247.0,245.0 246.0,244.0 239.0,239.0 238.0,239.0 232.0,234.0 231.0,233.0 224.0,228.0 223.0,228.0 215.0,225.0 214.0,224.0 207.0,223.0 206.0,223.0 199.0,224.0 198.0,224.0 193.0,227.0 192.0,228.0 191.0,229.0 190.0,230.0 188.0,231.0 187.0,232.0 186.0,232.0 186.0,232.0 182.0,232.0 181.0,233.0 179.0,235.0 179.0,236.0 178.0,244.0 178.0,244.0 177.0,245.0 177.0,246.0 176.0,251.0 176.0,251.0 175.0,252.0 174.0,252.0 172.0,253.0 172.0,253.0 169.0,252.0 168.0,252.0 163.0,251.0 162.0,251.0 157.0,251.0 156.0,251.0 151.0,251.0 150.0,251.0 144.0,251.0 143.0,251.0 137.0,250.0 136.0,250.0 130.0,250.0 129.0,250.0 127.0,252.0 127.0,252.0 124.0,250.0 123.0,250.0 115.0,250.0 114.0,250.0 106.0,250.0 105.0,250.0 97.0,249.0 96.0,249.0 88.0,249.0 87.0,249.0 79.0,249.0 78.0,248.0 70.0,248.0 69.0,248.0 61.0,248.0 60.0,248.0 53.0,248.0 52.0,248.0 47.0,248.0 46.0,248.0 42.0,248.0 41.0,248.0 32.0,247.0 31.0,247.0 26.0,247.0 25.0,247.0 21.0,247.0 20.0,247.0 11.0,247.0 10.0,247.0 9.0,248.0"/>
    <polyline points="10.0,252.0 9.0,248.0 9.0,248.0 7.0,247.0 6.0,247.0 0.0,247.0"/>
    <line x1="3.0" x2="0.0" y1="253.0" y2="254.0"/>
    <line x1="3.0" x2="0.0" y1="269.0" y2="275.0"/>
    <line x1="0.0" x2="3.0" y1="280.0" y2="280.0"/>
    <line x1="3.0" x2="0.0" y1="286.0" y2="286.0"/>
    <polyline points="9.0,297.0 7.0,299.0 6.0,299.0 1.0,313.0 1.0,313.0 6.0,306.0 7.0,306.0 10.0,305.0 11.0,305.0 13.0,310.0 13.0,310.0 11.0,311.0 10.0,311.0 7.0,311.0 6.0,311.0 1.0,313.0 1.0,313.0 0.0,332.0"/>
    <line x1="0.0" x2="3.0" y1="338.0" y2="338.0"/>
    <polyline points="9.0,331.0 7.0,330.0 6.0,330.0 1.0,313.0"/>
    <polyline points="14.0,326.0 20.0,325.0 21.0,325.0 24.0,325.0"/>
    <polyline points="36.0,313.0 39.0,317.0 40.0,317.0 49.0,316.0"/>
    <polyline points="59.0,317.0 61.0,315.0 62.0,315.0 65.0,317.0"/>
    <polyline points="63.0,325.0 62.0,326.0 62.0,327.0 64.0,332.0 64.0,333.0 66.0,335.0 66.0,336.0 70.0,343.0 70.0,344.0 73.0,350.0 74.0,351.0 77.0,357.0 77.0,358.0 80.0,363.0 81.0,364.0 86.0,369.0 87.0,370.0 90.0,372.0 91.0,373.0 94.0,375.0 94.0,375.0 92.0,368.0 91.0,367.0 89.0,361.0 88.0,360.0 87.0,356.0 86.0,356.0 84.0,351.0 84.0,350.0 81.0,344.0 81.0,343.0 80.0,342.0 79.0,341.0 76.0,336.0 75.0,335.0 74.0,333.0 74.0,332.0 72.0,326.0 71.0,325.0 71.0,323.0"/>
    <polyline points="85.0,322.0 89.0,320.0 90.0,320.0 92.0,320.0 92.0,320.0 91.0,321.0 91.0,322.0 93.0,324.0 93.0,324.0 90.0,325.0 89.0,325.0 87.0,324.0 85.0,323.0 85.0,322.0 85.0,322.0 83.0,322.0 82.0,322.0 76.0,321.0 75.0,321.0 71.0,323.0 71.0,323.0 69.0,322.0 68.0,322.0 63.0,325.0 63.0,325.0 61.0,325.0 60.0,325.0 56.0,328.0 55.0,329.0 53.0,330.0 52.0,331.0 44.0,337.0 43.0,337.0 36.0,342.0 35.0,343.0 31.0,347.0 30.0,348.0 29.0,354.0 29.0,355.0 29.0,361.0 29.0,361.0 26.0,362.0 25.0,362.0 22.0,361.0 22.0,361.0 20.0,362.0 19.0,362.0 14.0,368.0 13.0,369.0 13.0,375.0 13.0,376.0 14.0,378.0 14.0,378.0 17.0,380.0 18.0,381.0 17.0,384.0 17.0,384.0 16.0,386.0 16.0,387.0 14.0,396.0"/>
    <polyline points="8.0,396.0 9.0,391.0 9.0,390.0 10.0,386.0 11.0,384.0 17.0,384.0 17.0,384.0 12.0,381.0 12.0,380.0 14.0,378.0 14.0,378.0 19.0,377.0 20.0,376.0 25.0,374.0 26.0,374.0 31.0,372.0 32.0,372.0 38.0,372.0 39.0,373.0 42.0,376.0 43.0,377.0 45.0,379.0 46.0,380.0 49.0,382.0 50.0,383.0 52.0,384.0 53.0,385.0 55.0,386.0 56.0,387.0 58.0,389.0 59.0,390.0 60.0,391.0 62.0,392.0 61.0,393.0 60.0,392.0 61.0,393.0 61.0,393.0 60.0,396.0"/>
    <polyline points="61.0,393.0 64.0,393.0 65.0,393.0 70.0,394.0 71.0,394.0 78.0,396.0"/>
    <polyline points="83.0,389.0 86.0,390.0 87.0,390.0 92.0,396.0"/>
    <line x1="99.0" x2="100.0" y1="395.0" y2="396.0"/>
    <polyline points="111.0,396.0 113.0,394.0 113.0,394.0 114.0,394.0 115.0,394.0 118.0,393.0 119.0,393.0 124.0,393.0 125.0,393.0 132.0,395.0 132.0,395.0 135.0,389.0 135.0,388.0 135.0,387.0 135.0,387.0 132.0,386.0 131.0,385.0 125.0,382.0 124.0,382.0 122.0,382.0"/>
    <polyline points="116.0,387.0 113.0,384.0 112.0,384.0 109.0,387.0 109.0,387.0 111.0,391.0 112.0,392.0 113.0,394.0 113.0,394.0 105.0,394.0 104.0,394.0 99.0,395.0 99.0,395.0 97.0,391.0 97.0,390.0 103.0,388.0 103.0,388.0 104.0,389.0 105.0,389.0 109.0,387.0 109.0,387.0 107.0,382.0 107.0,381.0 106.0,378.0 106.0,377.0 98.0,372.0 97.0,371.0 94.0,375.0 94.0,375.0 95.0,377.0 96.0,378.0 101.0,385.0 101.0,386.0 103.0,388.0 103.0,388.0 95.0,387.0 94.0,386.0 87.0,379.0 86.0,378.0 82.0,376.0 82.0,376.0 80.0,377.0 79.0,377.0 77.0,375.0 77.0,374.0 77.0,371.0 77.0,371.0 79.0,373.0 80.0,373.0 82.0,376.0 82.0,376.0 82.0,379.0 82.0,380.0 84.0,384.0 84.0,385.0 83.0,389.0 83.0,389.0 79.0,388.0 78.0,388.0 72.0,385.0 71.0,384.0 66.0,380.0"/>
    <polyline points="68.0,372.0 69.0,374.0 69.0,375.0 66.0,380.0 66.0,380.0 64.0,378.0 63.0,378.0 60.0,372.0 60.0,371.0 63.0,366.0 64.0,365.0 71.0,367.0 72.0,368.0 77.0,371.0 77.0,371.0 77.0,367.0 76.0,366.0 74.0,364.0 73.0,363.0 69.0,359.0 68.0,357.0 65.0,352.0 64.0,351.0 62.0,346.0 61.0,343.0 59.0,339.0 58.0,337.0 56.0,335.0"/>
    <polyline points="44.0,303.0 46.0,305.0 47.0,305.0 50.0,304.0 50.0,304.0 52.0,304.0 53.0,304.0 59.0,304.0 60.0,304.0 66.0,304.0 67.0,304.0 73.0,304.0 74.0,304.0 81.0,304.0 82.0,304.0 88.0,304.0 89.0,304.0 95.0,304.0 96.0,304.0 102.0,304.0 103.0,304.0 107.0,304.0"/>
    <polyline points="105.0,310.0 102.0,311.0 101.0,311.0 98.0,310.0"/>
    <polyline points="101.0,319.0 97.0,319.0 96.0,319.0 92.0,320.0"/>
    <polyline points="100.0,326.0 97.0,326.0 96.0,326.0 93.0,324.0 93.0,324.0 96.0,323.0 97.0,323.0 100.0,326.0 100.0,326.0 104.0,323.0 105.0,323.0 107.0,321.0 107.0,321.0 114.0,321.0 115.0,320.0 117.0,319.0 118.0,319.0 124.0,316.0 125.0,316.0 129.0,315.0 129.0,315.0 130.0,314.0 130.0,313.0 129.0,307.0 129.0,306.0 134.0,302.0 135.0,302.0 136.0,301.0 136.0,301.0 136.0,300.0 136.0,299.0 142.0,296.0 143.0,295.0 145.0,294.0 146.0,293.0 150.0,292.0 150.0,292.0 153.0,290.0 154.0,289.0 156.0,290.0 156.0,290.0 162.0,288.0 163.0,288.0 168.0,286.0 169.0,285.0 171.0,285.0 171.0,285.0 171.0,284.0 171.0,285.0 175.0,290.0 176.0,289.0 183.0,284.0 183.0,283.0 183.0,281.0 183.0,280.0 182.0,279.0"/>
    <polyline points="173.0,283.0 177.0,281.0 179.0,280.0 182.0,279.0 182.0,279.0 182.0,277.0 182.0,276.0 182.0,271.0 182.0,270.0 183.0,267.0 183.0,267.0 189.0,267.0 190.0,268.0 193.0,269.0 193.0,269.0 195.0,270.0 196.0,270.0 200.0,273.0 200.0,273.0 201.0,272.0 202.0,271.0 204.0,271.0 205.0,271.0 207.0,270.0 210.0,269.0 209.0,266.0 209.0,266.0 207.0,267.0 206.0,267.0 204.0,265.0 204.0,265.0 202.0,268.0 201.0,269.0 200.0,273.0 200.0,273.0 199.0,274.0 199.0,275.0 200.0,280.0 200.0,280.0 196.0,277.0 195.0,277.0 193.0,277.0 193.0,277.0 192.0,275.0 192.0,274.0 193.0,269.0 193.0,269.0 193.0,267.0 193.0,266.0 195.0,265.0 196.0,264.0 200.0,261.0 201.0,260.0 204.0,258.0 205.0,257.0 210.0,254.0 211.0,254.0 213.0,254.0 213.0,254.0 216.0,253.0 217.0,253.0 221.0,256.0 221.0,256.0 217.0,257.0 216.0,257.0 213.0,254.0"/>
    <polyline points="214.0,261.0 209.0,266.0 209.0,266.0 217.0,268.0 218.0,267.0 221.0,265.0"/>
    <polyline points="223.0,271.0 221.0,274.0 221.0,274.0 218.0,272.0 217.0,272.0 215.0,273.0 215.0,273.0 217.0,276.0 218.0,276.0 221.0,274.0 221.0,274.0 223.0,274.0 224.0,274.0 225.0,274.0"/>
    <polyline points="224.0,280.0 224.0,284.0 223.0,284.0 220.0,281.0 220.0,281.0 217.0,281.0 216.0,281.0 213.0,282.0 212.0,282.0 207.0,283.0 206.0,283.0 202.0,283.0 201.0,283.0 200.0,284.0 200.0,284.0 199.0,282.0 199.0,281.0 200.0,280.0 200.0,280.0 201.0,276.0 202.0,275.0 204.0,278.0 204.0,278.0 202.0,279.0 201.0,279.0 200.0,280.0"/>
    <polyline points="200.0,284.0 199.0,285.0 200.0,286.0 198.0,289.0 198.0,289.0 196.0,290.0 195.0,290.0 194.0,290.0"/>
    <polyline points="198.0,289.0 202.0,292.0 203.0,291.0 207.0,289.0 207.0,289.0 210.0,289.0 211.0,289.0 213.0,289.0 213.0,289.0 216.0,286.0 218.0,285.0 220.0,281.0 220.0,281.0 223.0,280.0"/>
    <polyline points="224.0,291.0 222.0,291.0 222.0,291.0 224.0,287.0 225.0,287.0 226.0,291.0 225.0,291.0 226.0,291.0 226.0,291.0 227.0,294.0 227.0,295.0 226.0,296.0 226.0,296.0 224.0,297.0 223.0,297.0 219.0,298.0 218.0,298.0 215.0,298.0 215.0,298.0 218.0,293.0 219.0,293.0 222.0,291.0 222.0,291.0 219.0,288.0 218.0,289.0 213.0,289.0"/>
    <line x1="207.0" x2="207.0" y1="289.0" y2="286.0"/>
    <polygon points="209.0,276.0 207.0,275.0 206.0,275.0 204.0,278.0 204.0,278.0 206.0,278.0 207.0,278.0 209.0,276.0 209.0,276.0 212.0,274.0 213.0,274.0 215.0,273.0 215.0,273.0 213.0,276.0 212.0,276.0"/>
    <polyline points="204.0,265.0 206.0,263.0 207.0,263.0 209.0,266.0 209.0,266.0 217.0,264.0 218.0,263.0 221.0,265.0 221.0,265.0 222.0,261.0 222.0,260.0 221.0,256.0"/>
    <polyline points="237.0,276.0 238.0,276.0 239.0,273.0 242.0,267.0 243.0,266.0 246.0,263.0 246.0,263.0 242.0,261.0 241.0,261.0 239.0,261.0 238.0,260.0 235.0,259.0 234.0,259.0 234.0,255.0 235.0,255.0 238.0,255.0 239.0,255.0 243.0,256.0 244.0,256.0 249.0,257.0 250.0,257.0 254.0,257.0 254.0,257.0 255.0,254.0 256.0,253.0 256.0,249.0"/>
    <polyline points="254.0,257.0 255.0,259.0 255.0,260.0 255.0,261.0 255.0,261.0 250.0,262.0 249.0,262.0 246.0,263.0"/>
    <polyline points="255.0,261.0 251.0,266.0 251.0,267.0 250.0,268.0 249.0,269.0 246.0,273.0 246.0,274.0 249.0,277.0 250.0,277.0 252.0,280.0 252.0,280.0 254.0,281.0 255.0,283.0 256.0,284.0 256.0,284.0 260.0,281.0 260.0,280.0 258.0,278.0"/>
    <polyline points="268.0,245.0 266.0,247.0 265.0,249.0 260.0,244.0 260.0,244.0 262.0,243.0 263.0,242.0 260.0,241.0"/>
    <polyline points="260.0,239.0 261.0,237.0 261.0,237.0 265.0,238.0 266.0,236.0 268.0,237.0"/>
    <polyline points="286.0,222.0 289.0,220.0 290.0,219.0 297.0,219.0 298.0,219.0 300.0,218.0 300.0,218.0 303.0,218.0 304.0,218.0 307.0,219.0 307.0,219.0 308.0,222.0"/>
    <polyline points="307.0,219.0 309.0,218.0 310.0,218.0 315.0,220.0 315.0,221.0 316.0,223.0 317.0,224.0 320.0,229.0 320.0,229.0 314.0,228.0 313.0,227.0 310.0,226.0 309.0,226.0 304.0,224.0 303.0,223.0 300.0,221.0 299.0,220.0 300.0,218.0"/>
    <polyline points="298.0,240.0 295.0,241.0 296.0,242.0 298.0,246.0"/>
    <polyline points="312.0,241.0 312.0,243.0 312.0,244.0 314.0,247.0"/>
    <line x1="327.0" x2="327.0" y1="250.0" y2="252.0"/>
    <polyline points="320.0,229.0 321.0,229.0 322.0,230.0 323.0,231.0 323.0,231.0 323.0,224.0 322.0,223.0 323.0,222.0"/>
    <polyline points="226.0,296.0 228.0,301.0 228.0,302.0 227.0,307.0 227.0,307.0 223.0,309.0 222.0,309.0 221.0,308.0 221.0,308.0 217.0,310.0 216.0,310.0 214.0,305.0 214.0,305.0 216.0,304.0 217.0,304.0 221.0,308.0"/>
    <line x1="227.0" x2="229.0" y1="307.0" y2="308.0"/>
    <polyline points="230.0,312.0 231.0,315.0 231.0,316.0 231.0,320.0 231.0,320.0 227.0,320.0 226.0,320.0 223.0,320.0"/>
    <polyline points="231.0,320.0 232.0,323.0 232.0,324.0 233.0,329.0 232.0,330.0 227.0,332.0 226.0,332.0 219.0,334.0 218.0,334.0 214.0,334.0 214.0,334.0 209.0,330.0 208.0,330.0 204.0,332.0 203.0,332.0 202.0,333.0 202.0,333.0 200.0,328.0 200.0,327.0 200.0,325.0"/>
    <polyline points="206.0,324.0 210.0,324.0 211.0,324.0 218.0,323.0 219.0,322.0 223.0,320.0 223.0,320.0 223.0,316.0 223.0,315.0 217.0,315.0 217.0,316.0 210.0,317.0 209.0,317.0 205.0,321.0 205.0,322.0 206.0,324.0 206.0,324.0 204.0,325.0 203.0,326.0 200.0,325.0 200.0,325.0 198.0,322.0 198.0,321.0 198.0,316.0 198.0,315.0 197.0,311.0"/>
    <polyline points="196.0,304.0 195.0,306.0 195.0,307.0 197.0,311.0 197.0,311.0 202.0,314.0 203.0,314.0 209.0,312.0 212.0,311.0 214.0,305.0 214.0,305.0 211.0,305.0 210.0,306.0 207.0,308.0"/>
    <polyline points="195.0,298.0 194.0,300.0 194.0,301.0 196.0,304.0 196.0,304.0 202.0,302.0 203.0,302.0 210.0,300.0 211.0,300.0 215.0,298.0 215.0,298.0 211.0,295.0 210.0,294.0 203.0,296.0 202.0,296.0 195.0,298.0 195.0,298.0 194.0,295.0 194.0,294.0 194.0,290.0 194.0,290.0 193.0,286.0 193.0,285.0 192.0,280.0 192.0,279.0 193.0,277.0"/>
    <polyline points="171.0,285.0 172.0,292.0 172.0,293.0 171.0,295.0 171.0,295.0 169.0,294.0 168.0,294.0 165.0,296.0"/>
    <polyline points="171.0,295.0 172.0,299.0 172.0,300.0 174.0,306.0 175.0,307.0 177.0,313.0 177.0,314.0 178.0,317.0 178.0,317.0 174.0,318.0 173.0,318.0 170.0,317.0"/>
    <polyline points="178.0,317.0 181.0,318.0 182.0,318.0 189.0,318.0"/>
    <polyline points="190.0,318.0 193.0,321.0 193.0,322.0 194.0,327.0 195.0,328.0 196.0,335.0 196.0,336.0 190.0,339.0 189.0,339.0 187.0,340.0 187.0,340.0 185.0,339.0 184.0,339.0 178.0,342.0 178.0,342.0 176.0,342.0 175.0,342.0 169.0,345.0 168.0,345.0 163.0,347.0 162.0,347.0 155.0,350.0 154.0,351.0 150.0,353.0 149.0,353.0 147.0,354.0 147.0,354.0 142.0,356.0 141.0,356.0 138.0,364.0 138.0,365.0 138.0,367.0 138.0,367.0 135.0,368.0 134.0,368.0 125.0,371.0 124.0,371.0 119.0,368.0 119.0,367.0 118.0,364.0 117.0,364.0 111.0,366.0 111.0,366.0 108.0,366.0 107.0,366.0 103.0,363.0"/>
    <polyline points="111.0,366.0 110.0,368.0 110.0,369.0 117.0,375.0 118.0,375.0 124.0,376.0 125.0,376.0 131.0,378.0 132.0,379.0 138.0,381.0 139.0,382.0 143.0,383.0 144.0,383.0 148.0,380.0 148.0,380.0 148.0,379.0 147.0,378.0 144.0,375.0 143.0,374.0 138.0,367.0"/>
    <polyline points="147.0,354.0 143.0,357.0 143.0,358.0 145.0,364.0 146.0,365.0 152.0,374.0 153.0,375.0 154.0,376.0 154.0,376.0 150.0,381.0 149.0,380.0 148.0,380.0 148.0,380.0 147.0,385.0"/>
    <polyline points="148.0,392.0 149.0,391.0 150.0,392.0 157.0,389.0 157.0,389.0 157.0,388.0 155.0,387.0 153.0,385.0 152.0,384.0 154.0,376.0 154.0,376.0 158.0,379.0 159.0,380.0 162.0,383.0 163.0,384.0 166.0,382.0 166.0,382.0 164.0,385.0 164.0,386.0 167.0,387.0 168.0,388.0 170.0,388.0 170.0,388.0 169.0,389.0 169.0,390.0 169.0,395.0 169.0,395.0 167.0,394.0 166.0,393.0 163.0,393.0 162.0,393.0 159.0,390.0 158.0,389.0 157.0,389.0 157.0,389.0 155.0,396.0"/>
    <polyline points="147.0,396.0 148.0,392.0 148.0,392.0 146.0,390.0 145.0,390.0 139.0,387.0 138.0,386.0 135.0,387.0"/>
    <polyline points="131.0,396.0 132.0,395.0 132.0,395.0 138.0,392.0 139.0,393.0 141.0,396.0"/>
    <polyline points="169.0,396.0 169.0,395.0 169.0,395.0 174.0,391.0 175.0,392.0 177.0,393.0 177.0,393.0 180.0,391.0 180.0,390.0 179.0,389.0 179.0,389.0 175.0,388.0 174.0,388.0 170.0,388.0"/>
    <polyline points="166.0,382.0 168.0,382.0 169.0,382.0 174.0,384.0 175.0,384.0 179.0,382.0 179.0,382.0 179.0,380.0 179.0,379.0 179.0,375.0"/>
    <polyline points="186.0,375.0 189.0,374.0 190.0,374.0 191.0,373.0 191.0,373.0 190.0,370.0 189.0,368.0 186.0,364.0 186.0,363.0 183.0,357.0 183.0,356.0 179.0,347.0 178.0,346.0 178.0,342.0"/>
    <polyline points="187.0,340.0 187.0,346.0 187.0,347.0 189.0,355.0 190.0,356.0 191.0,360.0 192.0,361.0 195.0,368.0 196.0,369.0 198.0,372.0 198.0,372.0 193.0,374.0 192.0,373.0 191.0,373.0"/>
    <polyline points="183.0,383.0 179.0,382.0 179.0,382.0 183.0,385.0 184.0,385.0 185.0,386.0 185.0,386.0 184.0,389.0 183.0,389.0 179.0,389.0"/>
    <polyline points="185.0,386.0 186.0,386.0 187.0,386.0 189.0,386.0 190.0,386.0 198.0,387.0 199.0,387.0 202.0,385.0 202.0,384.0 206.0,382.0 206.0,382.0 207.0,380.0 207.0,379.0 206.0,377.0 206.0,377.0 201.0,375.0 200.0,374.0 198.0,372.0 198.0,372.0 194.0,376.0 194.0,377.0 200.0,380.0 201.0,381.0 206.0,382.0 206.0,382.0 208.0,384.0 209.0,385.0 211.0,391.0 211.0,392.0 214.0,396.0"/>
    <polyline points="222.0,396.0 219.0,393.0 219.0,392.0 224.0,385.0 225.0,384.0 230.0,385.0 230.0,386.0 228.0,392.0"/>
    <line x1="234.0" x2="235.0" y1="396.0" y2="394.0"/>
    <line x1="241.0" x2="243.0" y1="396.0" y2="393.0"/>
    <line x1="257.0" x2="259.0" y1="396.0" y2="393.0"/>
    <polyline points="251.0,377.0 246.0,376.0 245.0,375.0 246.0,370.0 246.0,369.0 245.0,364.0 245.0,363.0 245.0,359.0 245.0,358.0 245.0,352.0 244.0,351.0 243.0,346.0 243.0,345.0 242.0,338.0"/>
    <polyline points="237.0,335.0 235.0,340.0 234.0,340.0 227.0,341.0 226.0,341.0 221.0,343.0 219.0,344.0 213.0,348.0 212.0,348.0 207.0,353.0 207.0,354.0 208.0,360.0 209.0,361.0 209.0,368.0 209.0,369.0 208.0,373.0 208.0,374.0 206.0,377.0"/>
    <polyline points="186.0,392.0 182.0,392.0 181.0,392.0 177.0,393.0 177.0,393.0 177.0,396.0"/>
    <polyline points="161.0,331.0 159.0,330.0 158.0,331.0 157.0,331.0"/>
    <polyline points="137.0,340.0 141.0,337.0 142.0,337.0 149.0,334.0 150.0,334.0 156.0,333.0 157.0,332.0 157.0,331.0 157.0,331.0 150.0,330.0 149.0,330.0 142.0,329.0 141.0,329.0 135.0,330.0 135.0,330.0 135.0,335.0 135.0,336.0 137.0,340.0 137.0,340.0 133.0,342.0 132.0,342.0 129.0,336.0 129.0,335.0 132.0,327.0 133.0,327.0 135.0,330.0"/>
    <polyline points="129.0,315.0 133.0,315.0 134.0,315.0 143.0,316.0 144.0,316.0 152.0,316.0 153.0,316.0 162.0,316.0 163.0,316.0 165.0,316.0 166.0,317.0 170.0,317.0 170.0,317.0 170.0,315.0 170.0,314.0 167.0,307.0 166.0,306.0 164.0,300.0 164.0,299.0 165.0,296.0 165.0,296.0 163.0,297.0 162.0,297.0 156.0,299.0 155.0,300.0 149.0,301.0 148.0,302.0 144.0,301.0 143.0,301.0 136.0,301.0"/>
    <polyline points="131.0,298.0 128.0,297.0 127.0,297.0 122.0,297.0 121.0,297.0 116.0,296.0"/>
    <polyline points="112.0,297.0 113.0,298.0 114.0,298.0 116.0,296.0 116.0,296.0 114.0,295.0 113.0,295.0 112.0,297.0 112.0,297.0 110.0,296.0 109.0,296.0 104.0,297.0 103.0,297.0 95.0,295.0 94.0,295.0 87.0,295.0 86.0,296.0 78.0,300.0 77.0,300.0 70.0,300.0 69.0,300.0 61.0,300.0 60.0,300.0 55.0,297.0"/>
    <polyline points="24.0,295.0 27.0,297.0 28.0,297.0 35.0,297.0 36.0,297.0 43.0,297.0 44.0,297.0 52.0,297.0 53.0,297.0 55.0,297.0 55.0,297.0 53.0,300.0 52.0,301.0 50.0,304.0 50.0,304.0 47.0,302.0 46.0,302.0 44.0,303.0 44.0,303.0 41.0,306.0 40.0,306.0 32.0,307.0 31.0,307.0 26.0,308.0 25.0,308.0 22.0,308.0 22.0,308.0 18.0,305.0 17.0,305.0 13.0,310.0 13.0,310.0 17.0,310.0 18.0,310.0 22.0,308.0"/>
    <polyline points="16.0,268.0 20.0,268.0 21.0,268.0 25.0,268.0 26.0,268.0 31.0,268.0 32.0,268.0 41.0,267.0 42.0,267.0 46.0,267.0 47.0,267.0 52.0,267.0 53.0,267.0 60.0,267.0 61.0,267.0 69.0,267.0 70.0,267.0 78.0,266.0 79.0,266.0 87.0,266.0 88.0,266.0 96.0,266.0 97.0,266.0 105.0,266.0 106.0,266.0 114.0,265.0 115.0,265.0 119.0,265.0"/>
    <polyline points="119.0,273.0 114.0,270.0 113.0,270.0 109.0,273.0"/>
    <polyline points="110.0,279.0 113.0,278.0 114.0,278.0 121.0,278.0 122.0,278.0 126.0,278.0 126.0,278.0 125.0,277.0 125.0,276.0 125.0,273.0 125.0,272.0 125.0,267.0 125.0,266.0 127.0,264.0"/>
    <polyline points="127.0,252.0 126.0,254.0 126.0,255.0 126.0,260.0 126.0,261.0 127.0,264.0 127.0,264.0 130.0,265.0 131.0,265.0 136.0,265.0 137.0,265.0 143.0,265.0 144.0,265.0 150.0,265.0"/>
    <polyline points="154.0,270.0 156.0,270.0 157.0,270.0 162.0,270.0 163.0,270.0 168.0,271.0 169.0,271.0 171.0,267.0 171.0,266.0 170.0,261.0 170.0,260.0 171.0,255.0 171.0,254.0 172.0,253.0"/>
    <polyline points="176.0,251.0 178.0,255.0 178.0,256.0 180.0,262.0 181.0,265.0 183.0,267.0 183.0,267.0 186.0,263.0 186.0,262.0 184.0,258.0 184.0,257.0 183.0,252.0 183.0,251.0 182.0,246.0 182.0,245.0 182.0,240.0"/>
    <polyline points="180.0,238.0 178.0,244.0 178.0,244.0 180.0,241.0 181.0,240.0 182.0,240.0 182.0,240.0 184.0,236.0 185.0,235.0 186.0,232.0"/>
    <polyline points="190.0,191.0 187.0,188.0 186.0,187.0 184.0,186.0"/>
    <polyline points="204.0,144.0 206.0,146.0 207.0,145.0 214.0,144.0 214.0,144.0 210.0,138.0 211.0,137.0 215.0,130.0 215.0,130.0 216.0,128.0 216.0,127.0 216.0,123.0 216.0,122.0 218.0,115.0 218.0,114.0 216.0,111.0"/>
    <polyline points="204.0,119.0 207.0,114.0 207.0,113.0 208.0,110.0 209.0,109.0 209.0,104.0 210.0,103.0 211.0,101.0 212.0,100.0 219.0,99.0 220.0,99.0 223.0,99.0 224.0,99.0 231.0,105.0 231.0,106.0 230.0,114.0 230.0,115.0 229.0,123.0 229.0,124.0 229.0,132.0 229.0,133.0 228.0,142.0 228.0,143.0 227.0,147.0 227.0,148.0 226.0,153.0 226.0,154.0 225.0,163.0 225.0,164.0 225.0,168.0 225.0,169.0 226.0,172.0 226.0,172.0 224.0,173.0 223.0,173.0 220.0,173.0 219.0,173.0 211.0,172.0 211.0,171.0 211.0,167.0 211.0,166.0 212.0,161.0 212.0,160.0 210.0,156.0 209.0,156.0 204.0,160.0 204.0,161.0 203.0,166.0 202.0,167.0 201.0,172.0 201.0,173.0 200.0,175.0 199.0,175.0 193.0,176.0 192.0,176.0 188.0,171.0 189.0,170.0 191.0,163.0 191.0,162.0 193.0,155.0 193.0,154.0 196.0,148.0 196.0,147.0 198.0,141.0 198.0,140.0 200.0,135.0 200.0,134.0 201.0,129.0 202.0,128.0 203.0,123.0 203.0,122.0 204.0,119.0 204.0,119.0 200.0,115.0 199.0,115.0 196.0,113.0"/>
    <line x1="191.0" x2="187.0" y1="101.0" y2="102.0"/>
    <polyline points="176.0,89.0 174.0,87.0 173.0,86.0 170.0,82.0"/>
    <polyline points="166.0,83.0 168.0,83.0 169.0,83.0 170.0,82.0 170.0,82.0 171.0,80.0 171.0,79.0 167.0,77.0 166.0,78.0 163.0,76.0"/>
    <polyline points="175.0,62.0 178.0,62.0 179.0,62.0 185.0,61.0"/>
    <polyline points="145.0,60.0 142.0,59.0 141.0,59.0 138.0,60.0"/>
    <polyline points="141.0,137.0 141.0,132.0 141.0,131.0 143.0,122.0 143.0,121.0 145.0,113.0 146.0,112.0 138.0,108.0 137.0,108.0 132.0,115.0 131.0,116.0 130.0,124.0 129.0,125.0 127.0,133.0 127.0,134.0 126.0,140.0 125.0,140.0 120.0,140.0 119.0,140.0 116.0,144.0 116.0,145.0 117.0,150.0 118.0,151.0 119.0,152.0 120.0,152.0 124.0,156.0 123.0,157.0 122.0,162.0 122.0,163.0 120.0,169.0 120.0,170.0 119.0,174.0 119.0,175.0 118.0,180.0 118.0,181.0 120.0,184.0 121.0,183.0 125.0,183.0 126.0,183.0 129.0,183.0 130.0,183.0 132.0,178.0 132.0,177.0 133.0,169.0 134.0,168.0 135.0,160.0 135.0,159.0 137.0,152.0 138.0,151.0 143.0,156.0 143.0,157.0 142.0,165.0 142.0,166.0 140.0,174.0 140.0,175.0 146.0,181.0 147.0,181.0 150.0,181.0 151.0,181.0 153.0,174.0 153.0,173.0 154.0,168.0 154.0,167.0 155.0,163.0 156.0,162.0 156.0,157.0 157.0,156.0 158.0,152.0 158.0,151.0 159.0,142.0 160.0,141.0 161.0,136.0 161.0,135.0 162.0,131.0 162.0,130.0 164.0,121.0 164.0,120.0 166.0,112.0 166.0,111.0 159.0,105.0 158.0,106.0 156.0,106.0 155.0,106.0 153.0,111.0 153.0,112.0 151.0,121.0 151.0,122.0 150.0,126.0 150.0,127.0 148.0,132.0 148.0,133.0 145.0,138.0 144.0,138.0 141.0,137.0 141.0,137.0 138.0,138.0 137.0,138.0 134.0,138.0"/>
    <line x1="138.0" x2="141.0" y1="147.0" y2="145.0"/>
    <polyline points="107.0,140.0 102.0,137.0 101.0,137.0 92.0,132.0 91.0,132.0 83.0,128.0 82.0,128.0 76.0,125.0 75.0,124.0 68.0,121.0 67.0,121.0 60.0,117.0 59.0,117.0 53.0,114.0 52.0,113.0 46.0,111.0 45.0,110.0 40.0,108.0 39.0,107.0 32.0,104.0 31.0,103.0 28.0,102.0 27.0,102.0 21.0,99.0 20.0,98.0 16.0,97.0 15.0,96.0 6.0,92.0 5.0,92.0 0.0,91.0"/>
    <polyline points="11.0,102.0 15.0,103.0 16.0,104.0 20.0,106.0 21.0,107.0 27.0,109.0"/>
    <polyline points="35.0,116.0 37.0,115.0 38.0,116.0 45.0,118.0 46.0,119.0 52.0,122.0 53.0,122.0 59.0,125.0 60.0,125.0 67.0,128.0 68.0,128.0 75.0,131.0 76.0,132.0 82.0,135.0 83.0,135.0 87.0,137.0"/>
    <polyline points="100.0,174.0 97.0,176.0 96.0,176.0 91.0,174.0 90.0,174.0 85.0,173.0 84.0,173.0 80.0,171.0 79.0,171.0 74.0,169.0 73.0,169.0 67.0,167.0 66.0,167.0 58.0,165.0"/>
    <polyline points="50.0,163.0 46.0,161.0 45.0,161.0 40.0,159.0 39.0,159.0 35.0,158.0 34.0,158.0 28.0,156.0 27.0,156.0 23.0,154.0 22.0,154.0 16.0,153.0 15.0,153.0 13.0,156.0 13.0,156.0 10.0,152.0 9.0,152.0 7.0,153.0 7.0,153.0 9.0,155.0 10.0,155.0 13.0,156.0 13.0,156.0 15.0,157.0 16.0,157.0 22.0,159.0 23.0,159.0 27.0,160.0 28.0,161.0 34.0,163.0 35.0,163.0 39.0,164.0 40.0,165.0 45.0,166.0 46.0,167.0 51.0,168.0 52.0,168.0 54.0,169.0 55.0,169.0 57.0,170.0 58.0,171.0 66.0,173.0 67.0,173.0 73.0,175.0 74.0,175.0 79.0,177.0 80.0,178.0 84.0,179.0 85.0,179.0 90.0,181.0 91.0,181.0 96.0,182.0 97.0,182.0 102.0,183.0 103.0,184.0 110.0,187.0 111.0,188.0 114.0,191.0"/>
    <polyline points="106.0,211.0 106.0,213.0 106.0,214.0 105.0,215.0 105.0,215.0 101.0,215.0 100.0,215.0 95.0,216.0 94.0,216.0 90.0,215.0 89.0,215.0 83.0,213.0 82.0,213.0 79.0,213.0 78.0,213.0 73.0,212.0 72.0,212.0 68.0,211.0 67.0,211.0 62.0,210.0 61.0,210.0 59.0,209.0 57.0,208.0 51.0,207.0 50.0,207.0 44.0,206.0 43.0,206.0 36.0,205.0 35.0,205.0 30.0,208.0 28.0,209.0 25.0,212.0 25.0,213.0 31.0,213.0"/>
    <polyline points="26.0,206.0 24.0,204.0 22.0,203.0 21.0,202.0 21.0,202.0 18.0,202.0 17.0,202.0 13.0,201.0 12.0,201.0 6.0,199.0 5.0,199.0 0.0,198.0"/>
    <line x1="0.0" x2="3.0" y1="207.0" y2="207.0"/>
    <line x1="21.0" x2="20.0" y1="202.0" y2="195.0"/>
    <polyline points="0.0,179.0 6.0,176.0 6.0,175.0 8.0,170.0 8.0,169.0 7.0,166.0"/>
    <polyline points="0.0,153.0 3.0,153.0 4.0,153.0 7.0,153.0 7.0,153.0 5.0,151.0 4.0,150.0 0.0,149.0"/>
    <line x1="0.0" x2="1.0" y1="136.0" y2="134.0"/>
    <polyline points="0.0,133.0 1.0,134.0 1.0,134.0 2.0,132.0 3.0,131.0 3.0,128.0 3.0,127.0 4.0,125.0"/>
    <polyline points="0.0,125.0 4.0,125.0 4.0,125.0 3.0,122.0 3.0,121.0 0.0,119.0"/>
    <polyline points="42.0,212.0 42.0,216.0 41.0,217.0 39.0,226.0 39.0,227.0 39.0,233.0 38.0,234.0 41.0,238.0"/>
    <polyline points="54.0,231.0 52.0,228.0 52.0,227.0 54.0,225.0"/>
    <polyline points="64.0,222.0 64.0,227.0 64.0,228.0 63.0,233.0 63.0,234.0 62.0,239.0 63.0,240.0 65.0,243.0"/>
    <polyline points="78.0,242.0 77.0,239.0 77.0,238.0 77.0,232.0 77.0,231.0 78.0,225.0 78.0,224.0 78.0,222.0"/>
    <polyline points="92.0,225.0 90.0,227.0 91.0,228.0 90.0,233.0 91.0,234.0 90.0,239.0 90.0,240.0 92.0,243.0"/>
    <polyline points="106.0,243.0 103.0,240.0 103.0,239.0 103.0,234.0 103.0,233.0 104.0,228.0 104.0,227.0 106.0,225.0"/>
    <polyline points="114.0,219.0 116.0,219.0 117.0,219.0 122.0,219.0 123.0,220.0 127.0,221.0 128.0,221.0 133.0,222.0 134.0,222.0 139.0,222.0 140.0,222.0 143.0,222.0"/>
    <polyline points="114.0,241.0 114.0,235.0 113.0,234.0 112.0,229.0 112.0,228.0 113.0,223.0 113.0,222.0 114.0,219.0 114.0,219.0 111.0,218.0 110.0,218.0 105.0,215.0"/>
    <line x1="75.0" x2="76.0" y1="194.0" y2="191.0"/>
    <polyline points="21.0,222.0 21.0,226.0 21.0,227.0 21.0,229.0 21.0,229.0 19.0,233.0 19.0,234.0 22.0,234.0"/>
    <line x1="22.0" x2="21.0" y1="233.0" y2="229.0"/>
    <polyline points="94.0,282.0 97.0,282.0 98.0,282.0 102.0,282.0"/>
    <polyline points="126.0,278.0 129.0,278.0 130.0,278.0 137.0,278.0 138.0,278.0 145.0,278.0 146.0,278.0 153.0,278.0 154.0,278.0 161.0,278.0 162.0,278.0 166.0,279.0"/>
    <polyline points="156.0,290.0 154.0,292.0 153.0,292.0 150.0,292.0"/>
    <polyline points="125.0,304.0 125.0,306.0 125.0,307.0 121.0,311.0 120.0,311.0 117.0,313.0 116.0,314.0 114.0,316.0 112.0,317.0 107.0,321.0 107.0,321.0 107.0,324.0 107.0,325.0 109.0,332.0 109.0,333.0 110.0,335.0 111.0,336.0 113.0,344.0 114.0,345.0 114.0,349.0 114.0,349.0 110.0,351.0 109.0,351.0 106.0,351.0 105.0,351.0 104.0,352.0 104.0,352.0 102.0,350.0 101.0,350.0 98.0,345.0 97.0,344.0 95.0,340.0"/>
    <polyline points="104.0,352.0 103.0,353.0 103.0,354.0 103.0,358.0 103.0,359.0 103.0,363.0 103.0,363.0 98.0,360.0 97.0,359.0 93.0,356.0"/>
    <polyline points="114.0,349.0 116.0,350.0 117.0,350.0 119.0,348.0 119.0,347.0 119.0,345.0"/>
    <polyline points="202.0,333.0 201.0,335.0 201.0,336.0 205.0,339.0 206.0,338.0 210.0,336.0"/>
    <line x1="212.0" x2="214.0" y1="335.0" y2="334.0"/>
    <line x1="38.0" x2="36.0" y1="396.0" y2="396.0"/>
    <polyline points="29.0,366.0 29.0,364.0 29.0,363.0 29.0,361.0 29.0,361.0 26.0,356.0 25.0,357.0 22.0,361.0"/>
    <line x1="3.0" x2="0.0" y1="348.0" y2="352.0"/>
    <line x1="0.0" x2="0.0" y1="381.0" y2="389.0"/>
    <polyline points="177.0,133.0 179.0,133.0 180.0,133.0 182.0,132.0 182.0,132.0 181.0,130.0 181.0,129.0 182.0,125.0 182.0,124.0 183.0,119.0 183.0,118.0 186.0,115.0 187.0,115.0 194.0,115.0 195.0,114.0 196.0,113.0 196.0,113.0 198.0,107.0 198.0,106.0 195.0,101.0 194.0,101.0 191.0,101.0 191.0,101.0 187.0,99.0 186.0,102.0 180.0,103.0 179.0,103.0 174.0,104.0 173.0,104.0 172.0,110.0 172.0,111.0 170.0,120.0 169.0,121.0 167.0,130.0 167.0,131.0 167.0,135.0 166.0,136.0 165.0,141.0 165.0,142.0 163.0,151.0 163.0,152.0 162.0,156.0 162.0,157.0 161.0,162.0 161.0,163.0 159.0,172.0 159.0,173.0 158.0,177.0 158.0,178.0 166.0,179.0 167.0,179.0 176.0,178.0 177.0,178.0 183.0,174.0 183.0,173.0 177.0,165.0 176.0,165.0 174.0,164.0 174.0,163.0 176.0,154.0 176.0,153.0 180.0,146.0 181.0,146.0 186.0,145.0 187.0,145.0 189.0,140.0 190.0,139.0 187.0,133.0"/>
    <line x1="186.0" x2="182.0" y1="133.0" y2="132.0"/>
    <polyline points="215.0,130.0 215.0,137.0 215.0,138.0 214.0,144.0 214.0,144.0 216.0,146.0"/>
    <line x1="537.0" x2="538.0" y1="379.0" y2="384.0"/>
  </g>
</svg>
