<?xml version="1.0" encoding="utf-8" ?>
<svg xmlns="http://www.w3.org/2000/svg" xmlns:cc="http://creativecommons.org/ns" xmlns:dc="http://purl.org/dc/elements/1.1/" xmlns:ev="http://www.w3.org/2001/xml-events" xmlns:inkscape="http://www.inkscape.org/namespaces/inkscape" xmlns:rdf="http://www.w3.org/1999/02/22-rdf-syntax-ns" xmlns:sodipodi="http://sodipodi.sourceforge.net/DTD/sodipodi-0.dtd" xmlns:xlink="http://www.w3.org/1999/xlink" baseProfile="tiny" height="9.8425cm" version="1.2" viewBox="0 0 372.0 372.0" width="9.8425cm">
  <metadata>
    <rdf:RDF>
      <cc:Work>
        <dc:format>image/svg+xml</dc:format>
        <dc:source>vpype read ./images/skeleton.svg linemerge --tolerance 0.1mm linesort write outputfile.svg
</dc:source>
        <dc:date>2026-02-24T12:24:11.397105</dc:date>
      </cc:Work>
    </rdf:RDF>
  </metadata>
  <defs/>
  <g fill="none" id="layer1" inkscape:groupmode="layer" inkscape:label="1" stroke="#000000" stroke-width="1.0" style="display:inline">
    <polyline points="72.0,3.0 68.0,10.0 67.0,11.0 68.0,17.0 69.0,17.0 74.0,15.0 75.0,14.0 82.0,11.0 83.0,11.0 88.0,10.0 89.0,10.0 93.0,11.0 93.0,11.0 96.0,8.0 97.0,7.0 98.0,5.0"/>
    <polyline points="93.0,11.0 93.0,12.0 93.0,13.0 92.0,15.0 92.0,15.0 96.0,18.0 96.0,19.0 93.0,24.0 93.0,25.0 92.0,30.0 92.0,31.0 92.0,36.0 92.0,37.0 91.0,41.0"/>
    <polyline points="88.0,46.0 84.0,55.0 84.0,56.0 80.0,63.0 80.0,64.0 77.0,71.0 77.0,72.0 74.0,78.0 74.0,79.0 71.0,84.0 70.0,84.0 68.0,82.0 68.0,81.0 65.0,75.0 65.0,74.0 62.0,70.0 61.0,69.0 59.0,65.0 58.0,64.0 59.0,60.0"/>
    <polyline points="60.0,54.0 61.0,50.0 61.0,49.0 62.0,45.0 62.0,44.0 67.0,36.0 68.0,35.0 75.0,30.0 76.0,30.0 82.0,26.0 83.0,26.0 89.0,19.0 90.0,18.0 92.0,15.0 92.0,15.0 97.0,17.0 98.0,16.0 100.0,15.0 101.0,16.0 102.0,17.0 102.0,18.0 104.0,25.0 104.0,26.0 107.0,34.0 107.0,35.0 109.0,41.0 109.0,42.0 111.0,51.0 111.0,52.0 112.0,54.0 112.0,54.0 117.0,55.0 117.0,56.0 117.0,61.0 117.0,62.0 118.0,68.0 118.0,69.0 118.0,72.0 118.0,72.0 114.0,69.0 114.0,68.0 113.0,62.0 113.0,61.0 111.0,56.0 111.0,55.0 112.0,54.0"/>
    <polyline points="116.0,51.0 114.0,42.0 114.0,41.0 113.0,35.0 113.0,34.0 110.0,26.0 110.0,25.0 110.0,20.0"/>
    <polyline points="109.0,21.0 110.0,20.0 110.0,20.0 114.0,21.0 115.0,22.0 119.0,24.0 120.0,24.0 124.0,25.0 125.0,25.0 132.0,20.0 131.0,19.0 125.0,13.0"/>
    <polyline points="124.0,12.0 120.0,13.0 120.0,13.0 123.0,11.0 122.0,10.0 120.0,9.0 120.0,9.0 119.0,10.0 119.0,11.0 120.0,13.0 120.0,13.0 116.0,14.0 115.0,14.0 112.0,10.0 111.0,9.0 111.0,7.0 110.0,6.0 112.0,2.0 113.0,2.0 117.0,6.0 118.0,7.0 120.0,9.0"/>
    <polyline points="138.0,3.0 141.0,4.0 142.0,4.0 146.0,5.0 147.0,6.0 151.0,6.0 152.0,7.0 153.0,6.0 154.0,5.0 156.0,3.0"/>
    <polyline points="86.0,34.0 82.0,36.0 82.0,37.0 79.0,44.0 78.0,45.0 77.0,46.0 77.0,46.0 75.0,45.0 74.0,45.0 71.0,44.0"/>
    <polyline points="77.0,46.0 77.0,47.0 76.0,48.0 76.0,52.0"/>
    <polyline points="125.0,82.0 127.0,88.0 127.0,89.0 127.0,91.0 127.0,91.0 124.0,93.0 123.0,92.0 119.0,92.0 119.0,92.0 118.0,89.0 117.0,88.0 117.0,82.0 117.0,81.0 121.0,77.0 121.0,77.0 120.0,75.0 120.0,74.0 118.0,72.0 118.0,72.0 115.0,74.0 115.0,75.0 121.0,77.0 121.0,77.0 122.0,78.0 123.0,80.0 125.0,82.0 125.0,82.0 130.0,85.0 131.0,86.0 134.0,88.0 134.0,89.0 137.0,91.0 138.0,92.0 142.0,94.0 142.0,94.0 142.0,98.0 142.0,99.0 143.0,103.0 143.0,104.0 143.0,105.0 143.0,105.0 147.0,110.0"/>
    <polyline points="148.0,111.0 150.0,118.0 150.0,119.0 151.0,123.0 151.0,124.0 151.0,129.0 151.0,130.0 152.0,137.0 152.0,138.0 148.0,140.0 147.0,139.0 145.0,136.0 145.0,135.0 143.0,131.0 143.0,130.0 141.0,125.0 140.0,124.0 139.0,120.0 139.0,119.0 139.0,113.0 139.0,112.0 143.0,105.0"/>
    <line x1="149.0" x2="152.0" y1="102.0" y2="104.0"/>
    <polyline points="157.0,100.0 160.0,101.0 160.0,101.0 162.0,101.0 163.0,101.0 165.0,105.0 165.0,106.0 165.0,108.0"/>
    <polyline points="160.0,107.0 161.0,109.0 161.0,110.0 164.0,116.0 165.0,117.0 166.0,119.0 166.0,119.0 167.0,121.0 168.0,123.0 174.0,126.0 174.0,126.0 173.0,122.0 173.0,121.0 171.0,119.0 171.0,119.0 168.0,118.0 167.0,118.0 166.0,119.0"/>
    <polyline points="173.0,111.0 174.0,114.0 175.0,115.0 171.0,119.0 171.0,119.0 177.0,118.0 178.0,119.0 179.0,124.0 180.0,125.0 179.0,127.0 179.0,127.0 178.0,128.0 177.0,128.0 174.0,126.0 174.0,126.0 174.0,129.0 174.0,130.0 175.0,137.0 175.0,138.0 174.0,146.0"/>
    <polyline points="174.0,147.0 172.0,149.0 171.0,149.0 169.0,147.0 168.0,146.0 164.0,140.0 164.0,139.0 161.0,134.0 160.0,133.0 159.0,130.0 158.0,129.0 157.0,120.0 156.0,119.0 155.0,110.0 155.0,109.0 152.0,104.0 152.0,104.0 153.0,102.0 153.0,101.0 153.0,99.0 152.0,98.0 146.0,95.0 145.0,94.0 142.0,94.0"/>
    <polyline points="134.0,106.0 131.0,102.0 131.0,101.0 131.0,99.0 130.0,98.0 127.0,91.0 127.0,91.0 125.0,98.0 125.0,99.0 125.0,103.0 126.0,104.0 128.0,109.0 128.0,110.0 127.0,114.0"/>
    <polyline points="128.0,120.0 127.0,122.0 127.0,123.0 129.0,128.0 129.0,129.0 129.0,133.0 129.0,134.0 130.0,139.0 130.0,140.0 132.0,145.0 133.0,146.0 132.0,150.0 132.0,150.0 137.0,150.0 138.0,150.0 146.0,153.0 147.0,154.0 152.0,158.0"/>
    <polyline points="147.0,168.0 142.0,163.0 142.0,162.0 139.0,155.0"/>
    <polyline points="132.0,150.0 132.0,151.0 132.0,152.0 133.0,154.0 133.0,154.0 129.0,154.0 128.0,152.0 123.0,153.0 123.0,153.0 128.0,149.0"/>
    <polyline points="123.0,145.0 127.0,147.0 127.0,148.0 123.0,153.0 123.0,153.0 125.0,155.0 125.0,156.0 126.0,163.0 126.0,164.0 126.0,172.0 126.0,173.0 126.0,176.0 125.0,177.0 124.0,180.0 123.0,181.0 118.0,185.0 117.0,186.0 115.0,188.0 114.0,189.0 111.0,192.0 111.0,193.0 110.0,199.0 110.0,200.0 110.0,204.0 110.0,204.0 109.0,203.0 108.0,202.0 105.0,205.0 105.0,205.0 106.0,200.0 106.0,199.0 102.0,199.0 103.0,200.0 105.0,205.0 105.0,205.0 106.0,209.0 106.0,210.0 105.0,219.0 104.0,220.0 101.0,223.0 101.0,223.0 98.0,226.0 97.0,227.0 98.0,230.0 99.0,230.0 100.0,230.0 100.0,230.0 100.0,235.0 100.0,236.0 104.0,242.0 105.0,244.0 107.0,243.0 107.0,243.0 106.0,236.0 106.0,235.0 106.0,231.0 106.0,231.0 103.0,227.0 104.0,226.0 101.0,223.0 101.0,223.0 105.0,225.0 106.0,224.0 108.0,223.0"/>
    <polyline points="112.0,228.0 113.0,231.0 113.0,232.0 116.0,234.0 116.0,234.0 117.0,234.0 118.0,237.0 120.0,240.0 121.0,242.0 127.0,243.0 127.0,243.0 124.0,240.0 124.0,239.0 125.0,237.0"/>
    <line x1="116.0" x2="114.0" y1="234.0" y2="239.0"/>
    <polyline points="107.0,243.0 106.0,245.0 106.0,246.0 107.0,249.0 108.0,250.0 109.0,251.0 110.0,253.0 114.0,256.0 115.0,257.0 120.0,261.0 121.0,262.0 123.0,264.0 124.0,265.0 132.0,270.0 133.0,270.0 141.0,272.0 142.0,272.0 147.0,272.0 147.0,272.0 148.0,276.0 148.0,277.0 146.0,281.0 146.0,281.0 142.0,284.0 141.0,285.0 137.0,291.0 136.0,292.0 134.0,297.0 134.0,298.0 141.0,299.0 142.0,298.0 144.0,297.0 145.0,296.0 146.0,295.0 147.0,294.0 149.0,293.0 149.0,293.0 151.0,290.0 151.0,289.0 151.0,285.0 151.0,284.0 152.0,282.0 152.0,282.0 150.0,279.0 149.0,278.0 146.0,281.0"/>
    <polyline points="152.0,282.0 157.0,281.0 158.0,281.0 163.0,279.0 163.0,279.0 163.0,277.0 162.0,276.0 161.0,272.0 160.0,271.0 161.0,269.0 161.0,269.0 164.0,266.0 165.0,266.0 168.0,266.0 169.0,267.0 170.0,266.0 170.0,266.0 175.0,263.0 176.0,263.0 179.0,265.0"/>
    <polyline points="170.0,266.0 171.0,268.0 171.0,269.0 173.0,272.0 174.0,273.0 175.0,276.0"/>
    <polyline points="175.0,280.0 177.0,287.0 177.0,287.0 172.0,289.0 172.0,290.0 175.0,296.0 176.0,297.0 171.0,298.0 170.0,297.0 165.0,299.0 165.0,299.0 164.0,299.0 163.0,299.0 159.0,297.0 159.0,297.0 157.0,295.0 155.0,294.0 162.0,293.0 162.0,293.0 154.0,292.0 153.0,291.0 149.0,293.0"/>
    <polyline points="155.0,306.0 150.0,309.0 149.0,309.0 149.0,305.0 150.0,304.0 155.0,306.0 155.0,306.0 157.0,305.0 158.0,305.0 161.0,306.0 161.0,306.0 162.0,301.0 162.0,300.0 159.0,297.0 159.0,297.0 160.0,295.0 161.0,294.0 162.0,293.0 162.0,293.0 163.0,292.0 164.0,291.0 167.0,294.0 167.0,295.0 165.0,299.0 165.0,299.0 168.0,303.0 168.0,304.0 171.0,309.0 171.0,309.0 175.0,305.0"/>
    <polyline points="176.0,305.0 176.0,309.0 175.0,309.0 171.0,309.0"/>
    <polyline points="177.0,314.0 181.0,316.0 182.0,317.0 185.0,321.0"/>
    <polyline points="185.0,322.0 186.0,326.0 186.0,327.0 183.0,328.0 182.0,328.0 181.0,327.0 180.0,326.0 178.0,322.0 178.0,321.0 177.0,314.0 177.0,314.0 174.0,312.0 174.0,311.0 171.0,309.0 171.0,309.0 170.0,311.0 170.0,312.0 170.0,320.0 170.0,321.0 169.0,323.0 169.0,323.0 167.0,322.0 166.0,320.0 165.0,314.0 165.0,313.0 164.0,305.0 163.0,305.0 161.0,306.0 161.0,306.0 159.0,310.0 159.0,311.0 158.0,313.0 158.0,313.0 154.0,314.0 153.0,315.0 149.0,320.0 149.0,321.0 150.0,323.0 151.0,323.0 156.0,324.0 156.0,324.0 157.0,321.0 157.0,320.0 158.0,313.0"/>
    <polyline points="169.0,323.0 171.0,325.0 171.0,326.0 172.0,328.0"/>
    <polyline points="158.0,332.0 157.0,330.0 157.0,330.0 153.0,327.0 154.0,326.0 156.0,324.0 156.0,324.0 157.0,326.0 157.0,327.0 157.0,330.0 157.0,330.0 152.0,332.0 152.0,333.0 158.0,333.0"/>
    <polyline points="186.0,292.0 187.0,291.0 188.0,291.0 191.0,292.0 191.0,292.0 188.0,296.0 187.0,295.0 186.0,292.0 186.0,292.0 186.0,290.0 184.0,289.0 184.0,288.0"/>
    <polyline points="177.0,287.0 180.0,286.0 181.0,286.0 184.0,288.0 184.0,288.0 187.0,284.0 188.0,285.0 197.0,287.0 198.0,287.0 203.0,289.0 203.0,289.0 207.0,292.0 208.0,292.0 210.0,291.0 210.0,291.0 208.0,289.0 207.0,289.0 203.0,289.0"/>
    <polyline points="210.0,291.0 213.0,292.0 214.0,292.0 215.0,286.0 214.0,285.0 212.0,281.0 212.0,280.0 212.0,274.0 212.0,273.0 215.0,269.0 216.0,268.0 223.0,275.0"/>
    <line x1="234.0" x2="235.0" y1="273.0" y2="271.0"/>
    <polyline points="236.0,267.0 240.0,268.0 241.0,268.0 243.0,267.0 243.0,267.0 245.0,271.0 245.0,272.0 245.0,274.0 245.0,274.0 242.0,276.0 241.0,276.0 236.0,278.0 235.0,279.0 234.0,282.0"/>
    <line x1="247.0" x2="250.0" y1="279.0" y2="276.0"/>
    <polyline points="245.0,274.0 246.0,274.0 247.0,274.0 250.0,276.0 250.0,276.0 253.0,274.0 254.0,273.0 259.0,270.0 260.0,269.0 259.0,265.0 259.0,264.0 258.0,262.0 258.0,262.0 254.0,261.0 253.0,261.0 252.0,259.0 252.0,258.0 247.0,256.0 246.0,256.0 244.0,259.0 244.0,260.0 243.0,265.0 243.0,266.0 243.0,267.0"/>
    <polyline points="258.0,262.0 258.0,260.0 258.0,259.0 258.0,257.0"/>
    <polyline points="266.0,247.0 268.0,251.0 269.0,252.0 272.0,255.0 273.0,256.0 276.0,255.0 276.0,255.0 277.0,252.0 277.0,251.0 276.0,249.0"/>
    <polyline points="276.0,255.0 279.0,255.0 280.0,255.0 281.0,253.0 282.0,252.0 283.0,251.0 283.0,251.0 287.0,247.0 287.0,246.0 284.0,244.0 284.0,244.0 283.0,246.0 283.0,247.0 283.0,251.0"/>
    <polyline points="284.0,244.0 288.0,244.0 289.0,243.0 291.0,241.0 291.0,240.0 295.0,236.0 296.0,235.0 299.0,231.0 299.0,230.0 300.0,225.0 300.0,224.0 301.0,220.0 301.0,220.0 299.0,218.0 299.0,217.0 300.0,215.0"/>
    <polyline points="301.0,220.0 303.0,219.0 304.0,219.0 305.0,218.0 305.0,218.0 307.0,215.0 308.0,214.0 308.0,212.0 308.0,212.0 308.0,207.0 308.0,206.0 307.0,200.0"/>
    <polyline points="307.0,195.0 306.0,197.0 306.0,198.0 307.0,200.0 307.0,200.0 309.0,200.0 310.0,201.0 313.0,202.0 313.0,202.0 314.0,199.0 314.0,198.0 315.0,192.0 315.0,191.0 314.0,184.0 314.0,183.0 312.0,179.0 311.0,178.0 309.0,174.0 308.0,171.0 306.0,169.0 305.0,167.0 298.0,165.0 298.0,165.0 297.0,168.0 298.0,165.0 297.0,164.0 296.0,164.0 291.0,160.0 290.0,158.0 287.0,155.0 287.0,154.0 283.0,150.0"/>
    <polyline points="282.0,143.0 282.0,147.0 282.0,148.0 283.0,150.0 283.0,150.0 283.0,154.0 283.0,155.0 280.0,160.0 279.0,160.0 277.0,161.0 276.0,161.0 270.0,161.0 269.0,161.0 263.0,161.0 262.0,161.0 258.0,161.0 257.0,161.0 255.0,161.0 255.0,161.0 252.0,162.0 251.0,162.0 249.0,159.0 249.0,159.0 251.0,159.0 252.0,159.0 255.0,161.0"/>
    <polyline points="242.0,150.0 244.0,155.0 245.0,156.0 246.0,157.0 247.0,157.0 249.0,159.0 249.0,159.0 248.0,163.0 248.0,164.0 248.0,168.0 248.0,169.0 247.0,171.0 247.0,171.0 245.0,169.0 245.0,168.0 242.0,163.0 241.0,161.0 239.0,157.0 239.0,157.0 234.0,162.0 233.0,162.0 230.0,161.0"/>
    <polyline points="208.0,173.0 209.0,174.0 210.0,175.0 212.0,179.0 214.0,180.0 209.0,184.0 209.0,184.0 208.0,183.0 207.0,183.0 203.0,181.0 202.0,180.0 198.0,177.0 197.0,177.0 195.0,176.0 194.0,175.0 191.0,173.0 190.0,172.0 185.0,171.0 184.0,171.0 182.0,171.0 181.0,171.0 178.0,171.0 177.0,170.0 172.0,170.0 171.0,169.0 169.0,166.0 169.0,165.0 168.0,164.0"/>
    <polyline points="147.0,179.0 145.0,177.0 145.0,176.0 140.0,175.0 140.0,175.0 140.0,176.0 140.0,177.0 141.0,179.0"/>
    <polyline points="147.0,182.0 144.0,186.0 143.0,186.0 139.0,183.0 138.0,183.0 134.0,181.0"/>
    <polyline points="132.0,176.0 133.0,173.0 133.0,172.0 132.0,167.0 132.0,166.0 132.0,163.0 132.0,163.0 131.0,159.0 130.0,158.0 133.0,154.0 133.0,154.0 135.0,158.0 135.0,159.0 132.0,163.0 132.0,163.0 137.0,164.0 138.0,167.0 139.0,172.0 139.0,173.0 140.0,175.0 140.0,175.0 144.0,173.0 144.0,172.0 147.0,168.0 147.0,168.0 149.0,167.0 150.0,167.0 156.0,165.0 157.0,165.0 166.0,163.0 167.0,163.0 168.0,164.0 168.0,164.0 171.0,162.0 172.0,162.0 177.0,162.0 178.0,162.0 181.0,163.0 182.0,162.0 184.0,163.0 185.0,163.0 191.0,165.0 192.0,165.0 197.0,168.0 198.0,168.0 202.0,169.0 203.0,169.0 208.0,173.0 208.0,173.0 204.0,168.0 204.0,167.0 212.0,164.0 213.0,164.0 215.0,164.0 216.0,163.0 217.0,164.0 216.0,165.0 217.0,164.0 217.0,164.0 223.0,161.0 224.0,161.0 226.0,162.0 227.0,162.0 230.0,161.0 230.0,161.0 233.0,159.0 234.0,159.0 239.0,157.0 239.0,157.0 240.0,156.0 240.0,155.0 239.0,149.0 239.0,148.0 237.0,140.0 237.0,139.0 239.0,137.0"/>
    <polyline points="250.0,178.0 250.0,174.0 250.0,173.0 247.0,171.0 247.0,171.0 247.0,173.0 247.0,174.0 250.0,178.0 250.0,178.0 252.0,183.0 252.0,184.0 254.0,187.0 255.0,188.0 254.0,191.0"/>
    <polyline points="224.0,199.0 220.0,190.0 220.0,189.0 216.0,183.0 215.0,181.0 209.0,184.0 209.0,184.0 210.0,185.0 211.0,186.0 212.0,188.0"/>
    <line x1="205.0" x2="204.0" y1="177.0" y2="175.0"/>
    <polyline points="191.0,202.0 194.0,204.0 194.0,205.0 194.0,209.0"/>
    <polyline points="194.0,218.0 194.0,220.0 194.0,221.0 194.0,226.0"/>
    <polyline points="200.0,228.0 201.0,230.0 201.0,231.0 202.0,236.0 202.0,237.0 201.0,240.0 201.0,240.0 202.0,242.0 201.0,243.0 200.0,246.0 200.0,246.0 197.0,249.0 197.0,250.0 196.0,252.0 196.0,252.0 191.0,253.0 190.0,253.0 186.0,256.0 186.0,256.0 183.0,259.0 183.0,260.0 184.0,265.0 184.0,266.0 181.0,272.0 181.0,273.0 187.0,276.0 188.0,275.0 189.0,272.0"/>
    <polyline points="191.0,269.0 198.0,267.0 197.0,266.0 199.0,263.0 200.0,264.0 207.0,266.0 208.0,265.0 212.0,260.0 212.0,259.0 207.0,256.0 206.0,256.0 202.0,256.0"/>
    <polyline points="203.0,252.0 203.0,254.0 203.0,255.0 202.0,256.0 202.0,256.0 200.0,255.0 199.0,254.0 196.0,252.0"/>
    <polyline points="205.0,251.0 206.0,249.0 206.0,248.0 208.0,246.0 208.0,246.0 205.0,247.0 204.0,247.0 200.0,246.0 200.0,246.0 196.0,245.0 195.0,245.0 192.0,244.0 192.0,243.0 195.0,240.0 196.0,240.0 201.0,240.0 201.0,240.0 204.0,240.0 205.0,239.0 208.0,237.0 208.0,236.0 210.0,232.0 211.0,231.0 212.0,229.0"/>
    <polyline points="219.0,229.0 220.0,231.0 219.0,232.0 219.0,235.0"/>
    <polyline points="213.0,239.0 212.0,241.0 211.0,242.0 208.0,246.0 208.0,246.0 212.0,244.0 213.0,244.0 215.0,243.0 216.0,242.0 223.0,238.0 223.0,237.0 225.0,232.0 225.0,231.0 226.0,227.0 227.0,226.0 227.0,221.0 227.0,220.0 227.0,213.0 227.0,212.0 226.0,205.0 226.0,204.0 224.0,202.0"/>
    <polyline points="220.0,210.0 222.0,214.0 222.0,215.0 222.0,220.0 222.0,221.0 220.0,226.0 220.0,227.0 219.0,229.0 219.0,229.0 216.0,229.0 215.0,230.0 212.0,229.0 212.0,229.0 210.0,226.0 210.0,225.0 211.0,216.0 211.0,215.0 211.0,210.0 211.0,209.0 211.0,205.0"/>
    <polyline points="187.0,240.0 184.0,238.0 183.0,238.0 177.0,238.0"/>
    <polyline points="166.0,241.0 168.0,244.0 169.0,245.0 161.0,252.0 160.0,252.0 159.0,249.0"/>
    <polyline points="152.0,255.0 145.0,255.0 144.0,255.0 141.0,256.0"/>
    <polyline points="138.0,249.0 133.0,248.0 132.0,246.0 129.0,245.0 128.0,244.0 127.0,243.0 127.0,243.0 122.0,245.0 123.0,246.0 125.0,251.0 125.0,252.0 127.0,256.0 128.0,257.0 132.0,261.0 133.0,262.0 141.0,266.0 142.0,266.0 147.0,265.0 148.0,264.0 151.0,264.0"/>
    <polyline points="147.0,272.0 149.0,270.0 150.0,270.0 157.0,270.0 158.0,270.0 161.0,269.0 161.0,269.0 160.0,265.0 160.0,264.0 164.0,261.0 165.0,261.0 166.0,260.0 167.0,259.0 173.0,256.0 174.0,256.0 180.0,253.0 181.0,253.0 186.0,256.0 186.0,256.0 183.0,251.0 183.0,250.0 186.0,247.0"/>
    <polyline points="161.0,227.0 159.0,222.0 159.0,221.0 157.0,216.0 156.0,215.0 155.0,210.0 154.0,209.0 158.0,207.0"/>
    <line x1="146.0" x2="147.0" y1="219.0" y2="221.0"/>
    <polyline points="149.0,225.0 144.0,225.0 143.0,225.0 140.0,222.0 139.0,221.0 140.0,219.0"/>
    <polyline points="118.0,228.0 117.0,224.0 116.0,223.0 115.0,220.0 115.0,219.0 111.0,210.0 111.0,209.0 110.0,204.0"/>
    <polyline points="99.0,209.0 100.0,212.0 100.0,213.0 99.0,216.0"/>
    <polyline points="100.0,230.0 101.0,229.0 102.0,229.0 106.0,231.0"/>
    <polyline points="94.0,248.0 95.0,250.0 96.0,251.0 94.0,254.0"/>
    <polyline points="84.0,233.0 84.0,236.0 84.0,237.0 84.0,241.0 84.0,242.0 86.0,243.0 87.0,243.0 89.0,244.0 90.0,245.0 94.0,248.0 94.0,248.0 94.0,244.0 93.0,243.0 92.0,238.0 92.0,237.0 90.0,234.0 89.0,235.0 86.0,234.0 85.0,234.0 84.0,233.0 84.0,233.0 83.0,229.0 82.0,228.0 82.0,225.0"/>
    <polyline points="97.0,195.0 97.0,191.0 98.0,190.0 100.0,182.0 101.0,181.0 107.0,174.0 108.0,173.0 112.0,170.0 113.0,169.0 118.0,164.0 119.0,163.0 121.0,156.0 121.0,155.0 123.0,153.0 123.0,153.0 122.0,148.0 122.0,147.0 123.0,145.0 123.0,145.0 123.0,143.0 123.0,142.0 124.0,140.0 123.0,139.0 123.0,133.0 123.0,132.0 122.0,130.0"/>
    <polyline points="115.0,135.0 118.0,139.0 118.0,140.0 116.0,144.0 115.0,145.0 113.0,149.0 112.0,150.0 108.0,151.0 107.0,151.0 104.0,150.0"/>
    <line x1="108.0" x2="110.0" y1="147.0" y2="146.0"/>
    <polyline points="101.0,146.0 107.0,142.0 108.0,141.0 112.0,138.0 113.0,137.0 115.0,135.0 115.0,135.0 115.0,133.0 115.0,132.0 117.0,127.0 118.0,126.0 122.0,118.0 122.0,117.0 122.0,110.0 121.0,109.0 120.0,103.0 120.0,102.0 119.0,96.0 119.0,95.0 119.0,92.0"/>
    <polyline points="134.0,114.0 134.0,117.0 134.0,118.0 134.0,123.0 134.0,124.0 135.0,127.0"/>
    <line x1="159.0" x2="160.0" y1="103.0" y2="101.0"/>
    <polyline points="179.0,127.0 181.0,129.0 182.0,130.0 183.0,131.0"/>
    <line x1="153.0" x2="150.0" y1="189.0" y2="191.0"/>
    <polyline points="99.0,156.0 96.0,159.0 95.0,160.0 94.0,163.0 94.0,164.0 92.0,172.0 91.0,173.0 87.0,179.0 86.0,180.0 81.0,184.0 80.0,186.0 76.0,190.0 75.0,191.0 74.0,192.0 73.0,193.0 66.0,196.0 65.0,196.0 61.0,192.0 61.0,191.0 62.0,186.0 62.0,185.0 63.0,180.0 64.0,179.0 65.0,176.0 66.0,174.0 68.0,171.0 69.0,170.0 72.0,164.0 73.0,163.0 75.0,158.0 74.0,157.0 74.0,154.0 74.0,154.0 70.0,150.0 69.0,151.0 69.0,156.0 70.0,156.0 74.0,154.0 74.0,154.0 76.0,153.0 77.0,153.0 83.0,150.0 84.0,150.0 93.0,149.0 94.0,149.0 97.0,146.0 97.0,146.0 94.0,144.0 93.0,144.0 84.0,145.0 83.0,145.0 77.0,145.0 76.0,145.0 72.0,148.0 71.0,149.0 74.0,154.0"/>
    <polyline points="89.0,157.0 93.0,155.0 94.0,154.0 98.0,153.0 99.0,153.0 104.0,150.0 104.0,150.0 101.0,148.0 101.0,147.0 101.0,146.0 101.0,146.0 99.0,146.0 98.0,146.0 97.0,146.0"/>
    <polyline points="82.0,168.0 77.0,171.0 76.0,172.0 73.0,178.0 73.0,179.0 71.0,184.0"/>
    <polyline points="71.0,267.0 68.0,267.0 68.0,268.0 71.0,268.0"/>
    <polyline points="163.0,279.0 164.0,280.0 165.0,280.0 170.0,277.0"/>
    <polyline points="196.0,301.0 198.0,301.0 199.0,301.0 202.0,303.0 202.0,303.0 207.0,305.0 208.0,305.0 211.0,305.0 212.0,304.0 219.0,302.0 220.0,301.0 222.0,301.0 222.0,301.0 225.0,300.0 226.0,300.0 229.0,302.0 229.0,302.0 226.0,304.0 225.0,304.0 222.0,301.0"/>
    <polyline points="229.0,302.0 231.0,302.0 232.0,302.0 234.0,302.0"/>
    <polyline points="231.0,309.0 230.0,310.0 230.0,311.0 233.0,314.0 233.0,314.0 235.0,315.0 236.0,315.0 240.0,315.0 240.0,315.0 236.0,310.0 235.0,309.0 231.0,309.0 231.0,309.0 229.0,309.0 228.0,309.0 224.0,308.0 223.0,307.0 220.0,308.0"/>
    <polyline points="215.0,308.0 217.0,308.0 218.0,308.0 220.0,308.0 220.0,308.0 219.0,310.0 220.0,311.0 222.0,312.0 223.0,313.0 224.0,314.0 224.0,314.0 226.0,320.0 226.0,321.0 228.0,324.0 228.0,325.0 233.0,325.0"/>
    <polyline points="233.0,324.0 232.0,321.0 232.0,320.0 233.0,314.0 233.0,314.0 229.0,317.0 228.0,316.0 224.0,314.0"/>
    <polyline points="217.0,317.0 213.0,313.0 212.0,313.0 211.0,317.0 211.0,318.0 213.0,320.0 214.0,321.0 217.0,318.0"/>
    <polyline points="203.0,307.0 205.0,312.0 205.0,313.0 202.0,317.0 201.0,315.0 199.0,313.0 198.0,312.0 197.0,307.0 197.0,306.0 196.0,301.0 196.0,301.0 195.0,300.0 193.0,299.0 191.0,292.0 191.0,292.0 197.0,294.0 198.0,295.0 203.0,297.0"/>
    <line x1="202.0" x2="202.0" y1="303.0" y2="306.0"/>
    <line x1="240.0" x2="243.0" y1="315.0" y2="315.0"/>
    <line x1="307.0" x2="311.0" y1="298.0" y2="298.0"/>
    <polyline points="327.0,289.0 329.0,288.0 330.0,287.0 335.0,286.0 336.0,287.0 342.0,289.0 343.0,289.0 347.0,291.0 348.0,291.0 353.0,293.0 354.0,293.0 359.0,295.0 360.0,295.0 365.0,297.0 366.0,297.0 371.0,298.0"/>
    <polyline points="358.0,351.0 355.0,350.0 354.0,350.0 351.0,351.0"/>
    <polyline points="307.0,233.0 305.0,229.0 305.0,228.0 305.0,222.0 306.0,221.0 305.0,218.0"/>
    <polyline points="308.0,212.0 309.0,213.0 310.0,213.0 313.0,212.0 313.0,211.0 313.0,207.0 313.0,206.0 313.0,202.0"/>
    <polyline points="307.0,189.0 310.0,186.0 309.0,185.0 307.0,180.0 307.0,179.0 304.0,174.0 303.0,173.0 299.0,170.0 298.0,169.0 298.0,165.0 298.0,165.0 302.0,162.0 301.0,161.0 300.0,158.0"/>
    <polyline points="296.0,168.0 295.0,169.0 295.0,169.0 294.0,172.0 295.0,173.0 294.0,176.0 294.0,176.0 291.0,173.0 290.0,172.0 295.0,169.0 295.0,169.0 289.0,169.0 288.0,168.0 287.0,167.0 286.0,166.0 285.0,164.0 284.0,164.0 280.0,164.0"/>
    <polyline points="294.0,176.0 295.0,179.0 296.0,180.0 296.0,183.0"/>
  </g>
</svg>
