<svg xmlns="http://www.w3.org/2000/svg" width="682" height="853">
  <path d="M 278,0 L 279,2" fill="none" stroke="black" stroke-width="1"/>
  <path d="M 206,105 L 204,102 L 203,101 L 203,96 L 204,95 L 201,89 L 200,89 L 195,90 L 194,90 L 190,90 L 189,91 L 184,90 L 183,91 L 179,91 L 178,91 L 173,89 L 172,89 L 168,92 L 167,92 L 160,96 L 160,97 L 162,102 L 162,103 L 161,107 L 160,108 L 156,115 L 156,116 L 158,122 L 158,123 L 157,129 L 157,130 L 157,136 L 157,137 L 160,141 L 161,141 L 166,141 L 167,141 L 172,142 L 173,142 L 178,141 L 179,140 L 186,139" fill="none" stroke="black" stroke-width="1"/>
  <path d="M 258,65 L 258,62 L 258,61 L 256,58 L 256,57 L 251,48 L 251,47 L 245,41 L 244,41 L 239,40 L 238,40 L 233,40 L 232,41 L 227,44 L 226,44 L 219,46 L 218,46 L 214,52 L 214,53 L 211,60 L 210,61 L 208,63 L 207,64 L 202,70 L 202,71 L 206,74 L 207,74 L 209,77 L 209,78 L 213,85 L 213,86 L 213,90 L 213,91 L 214,96 L 215,97 L 216,100" fill="none" stroke="black" stroke-width="1"/>
  <path d="M 261,63 L 258,65" fill="none" stroke="black" stroke-width="1"/>
  <path d="M 262,63 L 265,66 L 266,67 L 268,72 L 268,73 L 267,77 L 266,78 L 262,82 L 261,82 L 259,78 L 258,77 L 259,71 L 258,70 L 258,65" fill="none" stroke="black" stroke-width="1"/>
  <path d="M 247,98 L 243,97 L 242,97 L 240,96 L 239,95 L 237,92 L 237,91 L 232,86 L 231,87 L 229,92 L 229,93 L 228,98 L 227,99 L 221,102 L 220,102 L 216,100" fill="none" stroke="black" stroke-width="1"/>
  <path d="M 215,108 L 217,104 L 218,103 L 216,100" fill="none" stroke="black" stroke-width="1"/>
  <path d="M 246,101 L 243,102 L 242,102 L 237,103 L 236,103 L 232,105 L 231,105 L 229,106 L 228,107 L 221,110 L 220,110 L 217,115 L 217,116 L 216,125 L 216,126 L 215,130 L 215,131 L 213,135 L 212,136 L 205,140 L 204,140 L 196,141 L 195,141 L 188,140 L 187,140 L 186,139" fill="none" stroke="black" stroke-width="1"/>
  <path d="M 254,94 L 255,93 L 255,92 L 253,85 L 253,84 L 251,81" fill="none" stroke="black" stroke-width="1"/>
  <path d="M 254,94 L 251,95 L 250,96 L 247,98" fill="none" stroke="black" stroke-width="1"/>
  <path d="M 246,101 L 245,100 L 246,99 L 247,98" fill="none" stroke="black" stroke-width="1"/>
  <path d="M 254,94 L 257,99 L 257,100 L 251,102 L 250,102 L 246,101" fill="none" stroke="black" stroke-width="1"/>
  <path d="M 186,139 L 185,137 L 185,136 L 183,133" fill="none" stroke="black" stroke-width="1"/>
  <path d="M 201,132 L 198,130 L 197,129 L 193,125 L 192,124 L 193,122" fill="none" stroke="black" stroke-width="1"/>
  <path d="M 347,101 L 349,102 L 350,101 L 359,98 L 360,98 L 364,99 L 365,99 L 369,95 L 368,94 L 365,92 L 364,91 L 358,88 L 357,87 L 353,84 L 352,83 L 354,74 L 353,73 L 353,64 L 353,63 L 354,56 L 354,55 L 355,48 L 354,47 L 353,40 L 352,39 L 350,34 L 349,33 L 345,28 L 344,27 L 337,24 L 336,24 L 328,25 L 327,26 L 318,32 L 317,33 L 313,37 L 312,38 L 310,42 L 310,43 L 306,49 L 306,50 L 306,52" fill="none" stroke="black" stroke-width="1"/>
  <path d="M 310,55 L 308,52 L 307,52 L 306,52" fill="none" stroke="black" stroke-width="1"/>
  <path d="M 301,69 L 301,65 L 301,64 L 302,60 L 302,59 L 306,52" fill="none" stroke="black" stroke-width="1"/>
  <path d="M 301,69 L 299,70 L 298,71 L 293,74 L 293,75 L 299,82 L 300,83 L 307,87 L 308,87 L 317,87 L 318,87 L 320,87 L 321,86 L 323,84" fill="none" stroke="black" stroke-width="1"/>
  <path d="M 306,65 L 301,69" fill="none" stroke="black" stroke-width="1"/>
  <path d="M 341,89 L 339,85 L 338,84 L 333,81 L 332,81 L 329,81 L 328,81 L 323,84" fill="none" stroke="black" stroke-width="1"/>
  <path d="M 341,105 L 338,104 L 337,105 L 334,106 L 333,106 L 330,102 L 330,101 L 327,93 L 326,92 L 323,88 L 322,87 L 323,84" fill="none" stroke="black" stroke-width="1"/>
  <path d="M 347,101 L 344,100 L 343,100 L 341,102 L 341,103 L 341,105" fill="none" stroke="black" stroke-width="1"/>
  <path d="M 347,101 L 348,103 L 347,104 L 344,106 L 343,106 L 341,105" fill="none" stroke="black" stroke-width="1"/>
  <path d="M 72,305 L 72,301 L 71,300 L 68,293 L 67,292 L 63,284 L 63,283 L 61,280 L 61,279 L 58,273 L 58,272 L 55,267 L 54,266 L 47,261 L 46,261 L 37,259 L 36,259 L 27,258 L 26,258 L 18,266 L 17,267 L 16,273 L 16,274 L 18,280 L 18,281 L 23,290 L 24,291 L 27,295" fill="none" stroke="black" stroke-width="1"/>
  <path d="M 131,147 L 126,145 L 125,145 L 117,145 L 116,145 L 110,148 L 109,148 L 106,150 L 105,151 L 103,153 L 102,154 L 103,160 L 103,161 L 104,168 L 104,169 L 104,173 L 104,174 L 103,179 L 103,180 L 103,185 L 103,186 L 107,191 L 107,192 L 107,193" fill="none" stroke="black" stroke-width="1"/>
  <path d="M 107,193 L 106,194 L 105,194 L 102,196 L 101,197 L 94,201 L 93,201 L 88,205 L 87,206 L 86,208 L 85,209 L 84,217 L 84,218 L 84,222 L 84,223 L 84,228 L 84,229 L 86,234 L 87,235 L 90,239 L 91,240 L 97,242 L 98,243 L 105,242 L 106,242 L 114,238 L 115,237 L 119,233 L 120,233 L 121,232" fill="none" stroke="black" stroke-width="1"/>
  <path d="M 102,226 L 94,227" fill="none" stroke="black" stroke-width="1"/>
  <path d="M 122,209 L 119,206 L 119,205 L 117,200 L 116,199 L 109,194 L 108,193 L 107,193" fill="none" stroke="black" stroke-width="1"/>
  <path d="M 138,208 L 136,207 L 135,207 L 127,209 L 126,210 L 122,209" fill="none" stroke="black" stroke-width="1"/>
  <path d="M 121,232 L 121,231 L 121,230 L 121,224 L 121,223 L 122,218 L 122,217 L 123,212 L 123,211 L 122,209" fill="none" stroke="black" stroke-width="1"/>
  <path d="M 161,249 L 161,251 L 160,252 L 155,255 L 154,256 L 148,258 L 147,258 L 142,259 L 141,260 L 136,257 L 135,256 L 133,254 L 132,253 L 129,250 L 128,249 L 126,245 L 125,244 L 124,238 L 124,237 L 121,232" fill="none" stroke="black" stroke-width="1"/>
  <path d="M 164,157 L 159,152 L 158,152 L 151,151 L 151,150 L 149,148 L 148,147 L 141,149 L 140,150 L 138,149" fill="none" stroke="black" stroke-width="1"/>
  <path d="M 208,165 L 199,161 L 198,160 L 190,157 L 189,157 L 181,156 L 180,156 L 172,154 L 171,154 L 167,154 L 166,154 L 164,157" fill="none" stroke="black" stroke-width="1"/>
  <path d="M 161,184 L 158,181 L 158,180 L 159,171 L 158,170 L 158,161 L 160,160 L 164,157" fill="none" stroke="black" stroke-width="1"/>
  <path d="M 205,176 L 201,174 L 200,174 L 197,176" fill="none" stroke="black" stroke-width="1"/>
  <path d="M 161,184 L 161,186 L 161,187 L 160,191 L 160,192 L 158,194 L 157,195 L 149,199 L 148,200 L 146,202 L 145,203 L 141,206 L 140,206 L 138,208" fill="none" stroke="black" stroke-width="1"/>
  <path d="M 144,243 L 143,240 L 143,239 L 144,234 L 144,233 L 142,228 L 142,227 L 141,222 L 141,221 L 140,216 L 139,215 L 137,210 L 137,209 L 138,208" fill="none" stroke="black" stroke-width="1"/>
  <path d="M 161,184 L 157,182 L 156,182 L 155,183" fill="none" stroke="black" stroke-width="1"/>
  <path d="M 170,192 L 173,189 L 171,188 L 168,187 L 167,186 L 165,185 L 164,185 L 161,184" fill="none" stroke="black" stroke-width="1"/>
  <path d="M 187,194 L 185,193 L 184,192 L 176,190 L 175,190 L 170,192" fill="none" stroke="black" stroke-width="1"/>
  <path d="M 181,199 L 178,198 L 177,197 L 173,195 L 172,194 L 170,192" fill="none" stroke="black" stroke-width="1"/>
  <path d="M 168,192 L 170,192" fill="none" stroke="black" stroke-width="1"/>
  <path d="M 204,199 L 201,198 L 200,198 L 193,196 L 192,195 L 187,194" fill="none" stroke="black" stroke-width="1"/>
  <path d="M 203,212 L 200,209 L 199,209 L 193,207 L 192,206 L 189,201 L 188,200 L 187,194" fill="none" stroke="black" stroke-width="1"/>
  <path d="M 194,225 L 193,224 L 192,223 L 188,219 L 188,218 L 186,216 L 185,215 L 183,212" fill="none" stroke="black" stroke-width="1"/>
  <path d="M 209,166 L 212,169 L 213,170 L 216,174 L 217,175 L 221,180 L 222,181 L 224,190 L 224,191 L 221,194 L 220,195 L 218,197 L 217,198 L 209,200 L 208,201 L 204,199" fill="none" stroke="black" stroke-width="1"/>
  <path d="M 203,212 L 201,208 L 201,207 L 205,203 L 206,202 L 204,199" fill="none" stroke="black" stroke-width="1"/>
  <path d="M 194,225 L 195,225 L 196,224 L 201,220 L 202,219 L 204,216 L 203,215 L 203,212" fill="none" stroke="black" stroke-width="1"/>
  <path d="M 162,234 L 161,232 L 161,231 L 161,226 L 161,225 L 161,223" fill="none" stroke="black" stroke-width="1"/>
  <path d="M 173,237 L 167,234 L 166,234 L 164,233 L 163,233 L 162,234" fill="none" stroke="black" stroke-width="1"/>
  <path d="M 161,249 L 160,243 L 160,242 L 161,237 L 161,236 L 162,234" fill="none" stroke="black" stroke-width="1"/>
  <path d="M 173,237 L 174,238 L 173,239 L 168,243 L 167,244 L 164,249 L 163,250 L 161,249" fill="none" stroke="black" stroke-width="1"/>
  <path d="M 194,225 L 194,226 L 194,227 L 190,232 L 189,233 L 185,235 L 184,235 L 181,237 L 180,237 L 176,237 L 175,237 L 173,237" fill="none" stroke="black" stroke-width="1"/>
  <path d="M 27,295 L 20,298 L 19,299 L 13,306 L 13,307 L 12,316 L 12,317 L 11,321" fill="none" stroke="black" stroke-width="1"/>
  <path d="M 56,298 L 54,301 L 53,301 L 48,303 L 47,303 L 43,304 L 42,304 L 35,299 L 34,299 L 29,296 L 28,295 L 27,295" fill="none" stroke="black" stroke-width="1"/>
  <path d="M 125,302 L 127,300 L 127,299 L 128,293 L 128,292 L 123,290 L 122,290 L 116,288 L 115,288 L 111,285 L 110,284 L 102,280 L 101,280 L 93,279 L 92,279 L 85,282 L 84,283 L 77,290 L 77,291 L 80,297 L 80,298 L 82,303 L 82,304 L 80,307" fill="none" stroke="black" stroke-width="1"/>
  <path d="M 15,320 L 14,322 L 13,322 L 11,321" fill="none" stroke="black" stroke-width="1"/>
  <path d="M 40,320 L 41,322 L 41,323 L 41,328 L 41,329 L 46,334 L 45,335 L 39,339 L 38,339 L 35,341 L 34,341 L 31,342 L 30,342 L 27,342 L 26,342 L 20,341 L 19,341 L 13,339 L 12,339 L 9,336 L 9,335 L 7,330 L 7,329 L 10,324 L 10,323 L 11,321" fill="none" stroke="black" stroke-width="1"/>
  <path d="M 28,320 L 25,318 L 24,318 L 22,320" fill="none" stroke="black" stroke-width="1"/>
  <path d="M 49,340 L 47,341 L 46,342 L 40,346 L 39,347 L 32,355 L 32,356 L 30,360 L 30,361 L 28,366 L 28,367 L 30,372 L 31,373 L 36,377 L 37,378 L 44,383 L 45,384 L 52,392 L 53,392 L 61,390 L 62,389 L 71,387 L 72,387 L 81,389 L 82,390 L 84,391 L 85,391 L 87,392" fill="none" stroke="black" stroke-width="1"/>
  <path d="M 60,349 L 58,350 L 57,350 L 52,351 L 51,351 L 49,351" fill="none" stroke="black" stroke-width="1"/>
  <path d="M 69,350 L 68,346 L 68,345 L 66,343 L 65,342 L 66,341" fill="none" stroke="black" stroke-width="1"/>
  <path d="M 60,346 L 60,349" fill="none" stroke="black" stroke-width="1"/>
  <path d="M 69,350 L 63,350 L 62,350 L 60,349" fill="none" stroke="black" stroke-width="1"/>
  <path d="M 74,350 L 71,350 L 70,350 L 69,350" fill="none" stroke="black" stroke-width="1"/>
  <path d="M 61,377 L 60,374 L 60,373 L 60,367 L 60,366 L 63,360 L 64,359 L 66,353 L 66,352 L 69,350" fill="none" stroke="black" stroke-width="1"/>
  <path d="M 79,356 L 80,354 L 80,353 L 77,350 L 76,350 L 74,350" fill="none" stroke="black" stroke-width="1"/>
  <path d="M 79,356 L 77,356 L 76,356 L 72,354 L 72,353 L 74,350" fill="none" stroke="black" stroke-width="1"/>
  <path d="M 71,352 L 74,350" fill="none" stroke="black" stroke-width="1"/>
  <path d="M 79,370 L 77,367 L 77,366 L 78,360 L 78,359 L 79,356" fill="none" stroke="black" stroke-width="1"/>
  <path d="M 99,309 L 96,308 L 95,308 L 92,309" fill="none" stroke="black" stroke-width="1"/>
  <path d="M 125,302 L 121,302 L 120,303 L 119,305 L 118,306 L 114,311 L 113,312 L 108,314 L 107,315 L 105,314" fill="none" stroke="black" stroke-width="1"/>
  <path d="M 134,307 L 133,305 L 132,304 L 129,301 L 128,301 L 125,302" fill="none" stroke="black" stroke-width="1"/>
  <path d="M 122,323 L 123,322 L 123,321 L 122,316 L 123,315 L 124,311 L 124,310 L 125,305 L 125,304 L 125,302" fill="none" stroke="black" stroke-width="1"/>
  <path d="M 99,361 L 99,367 L 100,368 L 102,376 L 102,377 L 102,384 L 102,385 L 96,390 L 95,390 L 90,392 L 89,392 L 87,392" fill="none" stroke="black" stroke-width="1"/>
  <path d="M 87,393 L 87,392" fill="none" stroke="black" stroke-width="1"/>
  <path d="M 99,361 L 98,360 L 98,359 L 96,355 L 95,355 L 94,350 L 94,349 L 93,348" fill="none" stroke="black" stroke-width="1"/>
  <path d="M 124,356 L 120,354 L 119,353 L 112,348 L 111,347 L 105,341 L 105,340 L 107,339" fill="none" stroke="black" stroke-width="1"/>
  <path d="M 122,323 L 118,323 L 117,323 L 115,327" fill="none" stroke="black" stroke-width="1"/>
  <path d="M 127,326 L 125,325 L 124,324 L 122,323" fill="none" stroke="black" stroke-width="1"/>
  <path d="M 137,339 L 137,334 L 137,333 L 132,327 L 131,326 L 127,326" fill="none" stroke="black" stroke-width="1"/>
  <path d="M 137,339 L 134,339 L 133,339 L 130,334 L 129,333 L 126,328 L 126,327 L 127,326" fill="none" stroke="black" stroke-width="1"/>
  <path d="M 136,347 L 137,346 L 137,345 L 137,342 L 137,341 L 137,339" fill="none" stroke="black" stroke-width="1"/>
  <path d="M 138,354 L 139,353 L 139,352 L 136,347" fill="none" stroke="black" stroke-width="1"/>
  <path d="M 138,354 L 134,353 L 133,352 L 136,347" fill="none" stroke="black" stroke-width="1"/>
  <path d="M 144,365 L 143,363 L 143,362 L 142,360 L 142,359 L 141,357 L 140,355 L 138,354" fill="none" stroke="black" stroke-width="1"/>
  <path d="M 137,374 L 135,375 L 134,375 L 128,375 L 127,374 L 122,372 L 121,372 L 114,369 L 113,368 L 108,366 L 107,365 L 102,362 L 101,361 L 99,361" fill="none" stroke="black" stroke-width="1"/>
  <path d="M 141,371 L 139,372 L 138,372 L 137,374" fill="none" stroke="black" stroke-width="1"/>
  <path d="M 138,389 L 137,385 L 137,384 L 137,377 L 137,376 L 137,374" fill="none" stroke="black" stroke-width="1"/>
  <path d="M 141,371 L 147,370 L 146,369 L 144,365" fill="none" stroke="black" stroke-width="1"/>
  <path d="M 141,371 L 140,370 L 140,369 L 144,365" fill="none" stroke="black" stroke-width="1"/>
  <path d="M 2,850 L 3,849" fill="none" stroke="black" stroke-width="1"/>
  <path d="M 93,411 L 93,410 L 92,409 L 90,404 L 90,403 L 84,399 L 83,399 L 76,403 L 76,404 L 79,407" fill="none" stroke="black" stroke-width="1"/>
  <path d="M 100,409 L 99,407" fill="none" stroke="black" stroke-width="1"/>
  <path d="M 61,425 L 59,424 L 58,424 L 56,424 L 55,425 L 52,430 L 51,431 L 46,440 L 46,441 L 50,444 L 51,445 L 53,445" fill="none" stroke="black" stroke-width="1"/>
  <path d="M 93,411 L 90,413 L 89,413 L 85,415 L 84,416 L 78,415 L 77,415 L 74,416 L 73,417 L 70,419 L 69,419 L 64,421 L 63,421 L 61,422 L 60,423 L 61,425" fill="none" stroke="black" stroke-width="1"/>
  <path d="M 66,436 L 67,429 L 67,428 L 64,427 L 63,427 L 61,425" fill="none" stroke="black" stroke-width="1"/>
  <path d="M 111,421 L 107,420 L 106,419 L 102,415 L 101,414 L 97,412 L 96,412 L 93,411" fill="none" stroke="black" stroke-width="1"/>
  <path d="M 94,425 L 91,423 L 90,424 L 86,429 L 86,430 L 88,434 L 88,435 L 91,437 L 92,438 L 96,439 L 97,439 L 101,439 L 102,439 L 104,436 L 104,435 L 106,431 L 107,429 L 109,427" fill="none" stroke="black" stroke-width="1"/>
  <path d="M 63,444 L 59,445 L 58,445 L 53,445" fill="none" stroke="black" stroke-width="1"/>
  <path d="M 53,450 L 52,448 L 52,447 L 53,445" fill="none" stroke="black" stroke-width="1"/>
  <path d="M 76,450 L 73,449 L 72,449 L 68,451 L 67,451 L 59,453 L 58,453 L 53,450" fill="none" stroke="black" stroke-width="1"/>
  <path d="M 59,465 L 58,463 L 57,462 L 55,457 L 55,456 L 53,450" fill="none" stroke="black" stroke-width="1"/>
  <path d="M 75,448 L 76,450" fill="none" stroke="black" stroke-width="1"/>
  <path d="M 87,452 L 85,453 L 84,453 L 79,454 L 78,454 L 76,450" fill="none" stroke="black" stroke-width="1"/>
  <path d="M 65,476 L 66,471 L 66,470 L 62,465 L 61,464 L 59,465" fill="none" stroke="black" stroke-width="1"/>
  <path d="M 65,476 L 62,476 L 61,475 L 60,471 L 60,470 L 59,465" fill="none" stroke="black" stroke-width="1"/>
  <path d="M 80,488 L 78,489 L 77,490 L 75,490 L 74,490 L 68,488 L 67,488 L 65,485 L 65,484 L 65,479 L 65,478 L 65,476" fill="none" stroke="black" stroke-width="1"/>
  <path d="M 86,472 L 87,471 L 87,470 L 88,464 L 88,463 L 88,460" fill="none" stroke="black" stroke-width="1"/>
  <path d="M 88,478 L 83,477 L 82,479 L 81,481 L 81,482 L 80,488" fill="none" stroke="black" stroke-width="1"/>
  <path d="M 88,478 L 89,475 L 89,474 L 86,472" fill="none" stroke="black" stroke-width="1"/>
  <path d="M 88,478 L 84,475 L 84,474 L 86,472" fill="none" stroke="black" stroke-width="1"/>
  <path d="M 102,476 L 100,477 L 99,477 L 97,476 L 96,476 L 92,476 L 91,476 L 88,478" fill="none" stroke="black" stroke-width="1"/>
  <path d="M 80,488 L 84,488 L 85,487 L 89,482 L 88,481 L 88,478" fill="none" stroke="black" stroke-width="1"/>
  <path d="M 114,410 L 114,413 L 114,414 L 111,421" fill="none" stroke="black" stroke-width="1"/>
  <path d="M 109,427 L 111,423 L 111,422 L 111,421" fill="none" stroke="black" stroke-width="1"/>
  <path d="M 116,429 L 113,424 L 112,424 L 109,427" fill="none" stroke="black" stroke-width="1"/>
  <path d="M 116,429 L 113,430 L 112,431 L 109,427" fill="none" stroke="black" stroke-width="1"/>
  <path d="M 108,448 L 109,446 L 109,445 L 109,441 L 109,440 L 110,433 L 111,432 L 109,427" fill="none" stroke="black" stroke-width="1"/>
  <path d="M 123,456 L 123,452 L 122,451 L 121,446 L 121,445 L 120,441 L 120,440 L 117,432 L 117,431 L 116,429" fill="none" stroke="black" stroke-width="1"/>
  <path d="M 108,458 L 109,455 L 109,454 L 108,448" fill="none" stroke="black" stroke-width="1"/>
  <path d="M 108,458 L 103,455 L 103,454 L 108,448" fill="none" stroke="black" stroke-width="1"/>
  <path d="M 113,459 L 112,460 L 111,460 L 108,458" fill="none" stroke="black" stroke-width="1"/>
  <path d="M 128,453 L 125,455 L 124,455 L 123,456" fill="none" stroke="black" stroke-width="1"/>
  <path d="M 120,461 L 121,459 L 122,458 L 123,456" fill="none" stroke="black" stroke-width="1"/>
  <path d="M 130,451 L 128,453" fill="none" stroke="black" stroke-width="1"/>
  <path d="M 125,469 L 126,464 L 126,463 L 127,457 L 126,456 L 128,453" fill="none" stroke="black" stroke-width="1"/>
  <path d="M 109,477 L 105,475 L 104,475 L 102,476" fill="none" stroke="black" stroke-width="1"/>
  <path d="M 109,477 L 105,480 L 104,480 L 102,476" fill="none" stroke="black" stroke-width="1"/>
  <path d="M 125,469 L 123,471 L 122,472 L 120,473 L 119,474 L 114,477 L 113,477 L 111,477 L 110,477 L 109,477" fill="none" stroke="black" stroke-width="1"/>
  <path d="M 131,451 L 133,458 L 133,459 L 132,463 L 132,464 L 131,466 L 130,467 L 125,469" fill="none" stroke="black" stroke-width="1"/>
  <path d="M 91,518 L 89,519 L 88,520 L 84,521 L 83,521 L 81,523 L 80,524 L 79,532 L 79,533 L 81,540 L 82,541 L 83,543 L 83,544 L 91,550 L 92,550 L 96,552 L 97,552 L 102,553 L 103,553 L 110,555 L 111,555 L 117,551 L 117,550 L 117,549" fill="none" stroke="black" stroke-width="1"/>
  <path d="M 103,509 L 99,509 L 98,510 L 94,512 L 93,513 L 91,516 L 91,517 L 91,518" fill="none" stroke="black" stroke-width="1"/>
  <path d="M 97,517 L 94,518 L 93,518 L 91,518" fill="none" stroke="black" stroke-width="1"/>
  <path d="M 110,507 L 108,507 L 107,508 L 103,509" fill="none" stroke="black" stroke-width="1"/>
  <path d="M 97,517 L 99,515 L 100,514 L 103,509" fill="none" stroke="black" stroke-width="1"/>
  <path d="M 104,519 L 101,522 L 100,522 L 97,517" fill="none" stroke="black" stroke-width="1"/>
  <path d="M 95,529 L 94,524 L 95,523 L 97,517" fill="none" stroke="black" stroke-width="1"/>
  <path d="M 116,508 L 113,505 L 112,505 L 110,507" fill="none" stroke="black" stroke-width="1"/>
  <path d="M 116,508 L 113,510 L 112,510 L 110,507" fill="none" stroke="black" stroke-width="1"/>
  <path d="M 136,527 L 131,525 L 130,525 L 124,518 L 123,517 L 120,515 L 119,514 L 118,512 L 118,511 L 116,508" fill="none" stroke="black" stroke-width="1"/>
  <path d="M 87,537 L 89,535 L 89,534 L 87,532" fill="none" stroke="black" stroke-width="1"/>
  <path d="M 110,526 L 109,531" fill="none" stroke="black" stroke-width="1"/>
  <path d="M 111,525 L 111,532 L 110,532 L 109,531" fill="none" stroke="black" stroke-width="1"/>
  <path d="M 108,544 L 109,543 L 110,542 L 110,540 L 110,539 L 109,534 L 109,533 L 109,531" fill="none" stroke="black" stroke-width="1"/>
  <path d="M 108,544 L 103,544 L 102,544 L 97,545 L 96,545 L 94,544" fill="none" stroke="black" stroke-width="1"/>
  <path d="M 117,549 L 114,548 L 113,548 L 111,547 L 110,546 L 108,544" fill="none" stroke="black" stroke-width="1"/>
  <path d="M 127,546 L 125,547 L 124,547 L 120,548 L 119,549 L 117,549" fill="none" stroke="black" stroke-width="1"/>
  <path d="M 136,527 L 137,524 L 137,523 L 135,517 L 134,516 L 130,513 L 129,513 L 127,514" fill="none" stroke="black" stroke-width="1"/>
  <path d="M 127,546 L 134,548 L 135,547 L 137,540 L 137,539 L 137,531 L 137,530 L 136,527" fill="none" stroke="black" stroke-width="1"/>
  <path d="M 127,546 L 126,544 L 126,543 L 129,539 L 130,538 L 133,531 L 133,530 L 136,527" fill="none" stroke="black" stroke-width="1"/>
  <path d="M 143,594 L 146,597 L 147,597 L 150,590 L 150,589 L 145,582 L 144,581 L 140,576 L 140,575 L 140,572 L 140,571 L 133,567 L 132,567 L 128,568 L 127,567 L 121,569 L 120,570 L 115,575 L 114,576 L 113,581" fill="none" stroke="black" stroke-width="1"/>
  <path d="M 113,581 L 111,583 L 110,584 L 107,587 L 106,588 L 106,596 L 106,597 L 108,601 L 109,602 L 111,606 L 112,607 L 115,612 L 116,613 L 119,614 L 120,615 L 125,616 L 126,616 L 131,615 L 132,615 L 138,612 L 139,612 L 140,613" fill="none" stroke="black" stroke-width="1"/>
  <path d="M 124,580 L 120,581 L 119,581 L 113,581" fill="none" stroke="black" stroke-width="1"/>
  <path d="M 143,594 L 141,590 L 141,589 L 139,583 L 138,582 L 133,578 L 132,578 L 127,579 L 126,579 L 124,580" fill="none" stroke="black" stroke-width="1"/>
  <path d="M 129,594 L 131,594 L 132,595 L 135,598 L 136,599 L 135,603 L 134,604 L 132,605 L 131,605 L 126,603 L 125,603 L 121,597 L 121,596 L 122,589 L 122,588 L 122,583 L 122,582 L 124,580" fill="none" stroke="black" stroke-width="1"/>
  <path d="M 140,613 L 141,610 L 141,609 L 141,606 L 141,605 L 145,599 L 145,598 L 143,594" fill="none" stroke="black" stroke-width="1"/>
  <path d="M 139,623 L 140,621 L 141,620 L 141,618 L 142,617 L 140,613" fill="none" stroke="black" stroke-width="1"/>
  <path d="M 139,623 L 138,630 L 138,631 L 135,632 L 134,632 L 129,639 L 130,640 L 132,643 L 132,644 L 138,651 L 139,652 L 142,654 L 143,654 L 147,651" fill="none" stroke="black" stroke-width="1"/>
  <path d="M 136,621 L 139,623" fill="none" stroke="black" stroke-width="1"/>
  <path d="M 147,651 L 152,657 L 153,657 L 155,657 L 156,656 L 162,652 L 163,651 L 166,646 L 167,645 L 167,640 L 167,639 L 167,630 L 167,629 L 162,624 L 161,624 L 156,624 L 155,624 L 149,622 L 148,623 L 143,624 L 142,625 L 139,623" fill="none" stroke="black" stroke-width="1"/>
  <path d="M 147,651 L 148,650 L 149,649 L 148,648" fill="none" stroke="black" stroke-width="1"/>
  <path d="M 193,692 L 194,689 L 194,688 L 193,683 L 192,682 L 191,677 L 191,676 L 186,673 L 185,673 L 179,676 L 178,676 L 169,679 L 168,679 L 163,685 L 163,686 L 163,690 L 163,691 L 160,699 L 161,700 L 163,703 L 164,704 L 167,706 L 168,707 L 172,709 L 173,709 L 178,707 L 179,707 L 185,707 L 186,706 L 189,703 L 189,702 L 191,695 L 191,694 L 193,692" fill="none" stroke="black" stroke-width="1"/>
  <path d="M 193,692 L 189,689 L 188,688 L 185,686 L 184,686 L 182,686 L 181,686 L 180,686" fill="none" stroke="black" stroke-width="1"/>
  <path d="M 193,692 L 188,693 L 187,693 L 185,693 L 184,693 L 183,692" fill="none" stroke="black" stroke-width="1"/>
  <path d="M 210,729 L 205,729 L 204,729 L 199,728 L 198,728 L 195,729 L 194,730 L 190,735 L 190,736 L 191,739" fill="none" stroke="black" stroke-width="1"/>
  <path d="M 199,738 L 196,740 L 195,740 L 191,739" fill="none" stroke="black" stroke-width="1"/>
  <path d="M 211,730 L 214,732 L 215,733 L 220,739 L 221,739 L 226,742 L 226,743 L 225,746 L 224,747 L 219,754 L 218,754 L 211,754 L 210,754 L 205,754 L 204,754 L 199,754 L 198,754 L 193,753 L 192,752 L 189,747 L 189,746 L 189,742 L 190,741 L 191,739" fill="none" stroke="black" stroke-width="1"/>
  <path d="M 202,737 L 199,738" fill="none" stroke="black" stroke-width="1"/>
  <path d="M 203,737 L 209,740 L 209,741 L 203,745 L 202,745 L 197,742 L 197,741 L 199,738" fill="none" stroke="black" stroke-width="1"/>
  <path d="M 247,770 L 241,772 L 240,772 L 234,771 L 233,771 L 227,774 L 226,775 L 222,779 L 221,780 L 222,786 L 222,787 L 225,791 L 226,791 L 228,790" fill="none" stroke="black" stroke-width="1"/>
  <path d="M 233,794 L 234,793 L 234,792 L 228,790" fill="none" stroke="black" stroke-width="1"/>
  <path d="M 233,794 L 228,793 L 227,792 L 228,790" fill="none" stroke="black" stroke-width="1"/>
  <path d="M 249,797 L 244,795 L 243,795 L 241,796 L 240,796 L 236,795 L 235,795 L 233,794" fill="none" stroke="black" stroke-width="1"/>
  <path d="M 245,777 L 249,774 L 249,773 L 247,770" fill="none" stroke="black" stroke-width="1"/>
  <path d="M 245,777 L 243,774 L 242,773 L 247,770" fill="none" stroke="black" stroke-width="1"/>
  <path d="M 247,787 L 249,785 L 249,784 L 248,781 L 248,780 L 245,777" fill="none" stroke="black" stroke-width="1"/>
  <path d="M 261,791 L 256,791 L 255,791 L 251,787 L 250,786 L 247,787" fill="none" stroke="black" stroke-width="1"/>
  <path d="M 249,797 L 246,794 L 246,793 L 247,787" fill="none" stroke="black" stroke-width="1"/>
  <path d="M 257,798 L 253,801 L 252,801 L 249,797" fill="none" stroke="black" stroke-width="1"/>
  <path d="M 262,792 L 269,793 L 270,793 L 276,799 L 277,800 L 279,804 L 279,805 L 279,811 L 278,812 L 271,815 L 270,816 L 262,817 L 261,816 L 257,815 L 256,814 L 253,811 L 253,810 L 252,803 L 251,802 L 249,797" fill="none" stroke="black" stroke-width="1"/>
  <path d="M 458,100 L 457,96 L 456,95 L 454,89 L 454,88 L 455,83 L 455,82 L 455,75 L 455,74 L 456,67 L 456,66 L 457,59 L 456,58 L 453,52 L 452,51 L 447,44 L 446,43 L 440,41 L 439,41 L 436,39 L 436,38 L 431,33 L 430,33 L 421,38 L 420,39 L 415,42 L 414,42 L 410,46 L 409,46 L 403,54 L 402,55 L 401,62 L 401,63 L 401,71 L 401,72 L 402,80 L 402,81 L 401,86 L 401,87 L 405,93 L 405,94 L 405,97 L 405,98 L 410,101" fill="none" stroke="black" stroke-width="1"/>
  <path d="M 415,109 L 413,106 L 412,104 L 410,101" fill="none" stroke="black" stroke-width="1"/>
  <path d="M 417,116 L 414,116 L 413,116 L 410,113 L 409,112 L 407,108 L 406,107 L 410,101" fill="none" stroke="black" stroke-width="1"/>
  <path d="M 424,114 L 420,114 L 419,114 L 417,116" fill="none" stroke="black" stroke-width="1"/>
  <path d="M 426,121 L 420,122 L 419,122 L 416,119 L 416,118 L 417,116" fill="none" stroke="black" stroke-width="1"/>
  <path d="M 438,120 L 436,111 L 436,110 L 431,101 L 431,100 L 430,97" fill="none" stroke="black" stroke-width="1"/>
  <path d="M 421,104 L 424,112 L 424,113 L 424,114" fill="none" stroke="black" stroke-width="1"/>
  <path d="M 426,121 L 427,118 L 427,117 L 424,114" fill="none" stroke="black" stroke-width="1"/>
  <path d="M 458,100 L 456,102 L 455,103 L 453,106 L 453,107 L 451,114 L 451,115 L 449,121 L 448,121 L 443,122 L 443,123 L 440,128 L 439,128 L 430,122 L 429,122 L 426,121" fill="none" stroke="black" stroke-width="1"/>
  <path d="M 459,100 L 458,100" fill="none" stroke="black" stroke-width="1"/>
  <path d="M 550,168 L 551,165 L 552,164 L 551,159 L 551,158 L 549,152 L 549,151 L 547,146 L 547,145 L 550,137 L 550,136 L 548,128 L 547,127 L 542,122 L 541,121 L 533,121 L 532,121 L 527,120 L 526,120 L 522,120 L 521,120 L 512,121 L 511,121 L 509,122 L 507,123 L 502,127 L 501,128 L 495,131 L 494,132 L 491,134 L 490,135 L 489,136 L 488,137 L 483,143 L 482,143 L 476,148 L 475,149 L 472,153 L 472,154 L 471,159 L 471,160 L 469,165 L 468,166 L 468,171 L 469,172 L 469,176" fill="none" stroke="black" stroke-width="1"/>
  <path d="M 483,150 L 481,157 L 481,158 L 480,162" fill="none" stroke="black" stroke-width="1"/>
  <path d="M 469,176 L 468,177 L 467,178 L 465,185 L 466,186 L 468,192 L 468,193 L 470,197 L 471,198 L 474,204 L 475,205 L 478,211 L 479,212 L 481,214 L 482,215 L 486,217 L 487,217 L 492,220 L 493,221 L 498,220 L 499,220 L 502,221 L 503,221 L 507,220" fill="none" stroke="black" stroke-width="1"/>
  <path d="M 471,183 L 471,180 L 471,179 L 469,176" fill="none" stroke="black" stroke-width="1"/>
  <path d="M 507,220 L 506,218 L 506,217 L 505,213 L 505,212 L 507,209" fill="none" stroke="black" stroke-width="1"/>
  <path d="M 547,176 L 546,177 L 546,178 L 543,184 L 542,185 L 541,190 L 541,191 L 538,196 L 537,197 L 534,198 L 533,198 L 530,201 L 530,202 L 528,207 L 527,208 L 525,212 L 524,213 L 519,218 L 518,219 L 512,222 L 511,222 L 507,220" fill="none" stroke="black" stroke-width="1"/>
  <path d="M 550,168 L 546,170 L 545,170 L 544,168" fill="none" stroke="black" stroke-width="1"/>
  <path d="M 547,176 L 549,172 L 549,171 L 550,168" fill="none" stroke="black" stroke-width="1"/>
  <path d="M 534,184 L 534,187 L 534,188 L 530,192 L 529,193 L 527,195" fill="none" stroke="black" stroke-width="1"/>
  <path d="M 541,174 L 547,176" fill="none" stroke="black" stroke-width="1"/>
  <path d="M 622,288 L 625,288 L 626,288 L 628,287 L 629,286 L 632,284 L 632,283 L 633,279 L 634,278 L 636,274 L 637,272 L 639,267 L 639,266 L 640,259 L 640,258 L 639,251 L 639,250 L 638,244 L 638,243 L 636,236 L 635,235 L 633,232 L 632,232 L 628,231 L 627,231 L 621,230 L 620,231 L 614,231 L 613,231 L 604,234 L 603,234 L 596,235 L 595,236 L 587,238 L 586,239 L 579,242 L 578,242 L 572,245 L 571,246 L 566,250 L 565,251 L 561,255 L 560,256 L 556,260 L 555,261 L 553,265 L 552,266 L 550,270 L 550,271 L 550,276 L 550,277 L 550,282 L 550,283 L 551,288 L 552,289 L 556,296 L 557,297 L 560,300 L 561,301 L 567,303 L 568,302 L 570,300" fill="none" stroke="black" stroke-width="1"/>
  <path d="M 558,269 L 558,273" fill="none" stroke="black" stroke-width="1"/>
  <path d="M 557,285 L 556,282 L 556,281 L 557,279" fill="none" stroke="black" stroke-width="1"/>
  <path d="M 571,264 L 573,261 L 574,260 L 574,257" fill="none" stroke="black" stroke-width="1"/>
  <path d="M 577,271 L 577,268 L 577,267 L 571,264" fill="none" stroke="black" stroke-width="1"/>
  <path d="M 569,264 L 571,264" fill="none" stroke="black" stroke-width="1"/>
  <path d="M 569,279 L 569,277 L 569,276 L 568,274" fill="none" stroke="black" stroke-width="1"/>
  <path d="M 569,279 L 568,278 L 567,279 L 565,281" fill="none" stroke="black" stroke-width="1"/>
  <path d="M 569,279 L 568,283 L 567,284 L 565,281" fill="none" stroke="black" stroke-width="1"/>
  <path d="M 566,291 L 566,287 L 566,286 L 565,281" fill="none" stroke="black" stroke-width="1"/>
  <path d="M 566,291 L 565,292 L 564,292 L 563,291" fill="none" stroke="black" stroke-width="1"/>
  <path d="M 570,300 L 571,296 L 571,295 L 566,291" fill="none" stroke="black" stroke-width="1"/>
  <path d="M 575,281 L 573,283" fill="none" stroke="black" stroke-width="1"/>
  <path d="M 573,288 L 574,288" fill="none" stroke="black" stroke-width="1"/>
  <path d="M 600,287 L 600,289 L 600,290 L 597,293 L 596,293 L 592,290 L 591,288 L 588,284 L 588,283 L 585,280 L 584,279 L 579,277 L 578,277 L 577,278" fill="none" stroke="black" stroke-width="1"/>
  <path d="M 601,246 L 599,244 L 599,243 L 600,240" fill="none" stroke="black" stroke-width="1"/>
  <path d="M 607,243 L 609,240" fill="none" stroke="black" stroke-width="1"/>
  <path d="M 621,249 L 619,244 L 619,243 L 617,239" fill="none" stroke="black" stroke-width="1"/>
  <path d="M 582,270 L 586,271 L 587,271 L 591,268 L 591,267 L 594,262 L 594,261 L 590,257 L 589,257 L 586,257 L 585,257 L 580,263" fill="none" stroke="black" stroke-width="1"/>
  <path d="M 601,271 L 598,270 L 597,270 L 595,271" fill="none" stroke="black" stroke-width="1"/>
  <path d="M 607,252 L 605,253 L 604,253 L 601,253" fill="none" stroke="black" stroke-width="1"/>
  <path d="M 611,251 L 610,250 L 609,251 L 607,252" fill="none" stroke="black" stroke-width="1"/>
  <path d="M 610,261 L 608,257 L 607,256 L 607,252" fill="none" stroke="black" stroke-width="1"/>
  <path d="M 621,249 L 614,249 L 613,249 L 611,251" fill="none" stroke="black" stroke-width="1"/>
  <path d="M 620,264 L 619,262 L 619,261 L 616,257 L 615,256 L 612,253 L 611,252 L 611,251" fill="none" stroke="black" stroke-width="1"/>
  <path d="M 628,247 L 626,246 L 625,247 L 623,248 L 622,248 L 621,249" fill="none" stroke="black" stroke-width="1"/>
  <path d="M 620,264 L 615,263 L 614,263 L 610,261" fill="none" stroke="black" stroke-width="1"/>
  <path d="M 605,268 L 612,265 L 612,264 L 610,261" fill="none" stroke="black" stroke-width="1"/>
  <path d="M 617,274 L 615,275 L 614,275 L 610,275" fill="none" stroke="black" stroke-width="1"/>
  <path d="M 624,259 L 624,261 L 624,262 L 623,263 L 622,263 L 620,264" fill="none" stroke="black" stroke-width="1"/>
  <path d="M 622,288 L 622,285 L 622,284 L 619,280 L 619,279 L 623,273 L 622,272 L 621,271 L 620,270 L 618,268 L 618,267 L 620,264" fill="none" stroke="black" stroke-width="1"/>
  <path d="M 600,287 L 597,286 L 596,286 L 594,286" fill="none" stroke="black" stroke-width="1"/>
  <path d="M 606,284 L 603,285 L 602,286 L 600,287" fill="none" stroke="black" stroke-width="1"/>
  <path d="M 617,294 L 616,293 L 615,294 L 614,292" fill="none" stroke="black" stroke-width="1"/>
  <path d="M 617,294 L 618,292 L 618,291 L 622,288" fill="none" stroke="black" stroke-width="1"/>
  <path d="M 614,304 L 616,300 L 616,299 L 617,296 L 617,295 L 617,294" fill="none" stroke="black" stroke-width="1"/>
  <path d="M 628,274 L 628,270 L 628,269 L 630,263 L 631,262 L 633,260 L 633,259 L 634,255" fill="none" stroke="black" stroke-width="1"/>
  <path d="M 584,313 L 582,312 L 581,312 L 578,310 L 577,309 L 572,304 L 572,303 L 570,300" fill="none" stroke="black" stroke-width="1"/>
  <path d="M 591,312 L 589,313 L 588,314 L 584,313" fill="none" stroke="black" stroke-width="1"/>
  <path d="M 614,304 L 613,308 L 612,309 L 610,313 L 609,314 L 604,317 L 603,317 L 598,319 L 597,320 L 593,320 L 592,319 L 587,316 L 587,315 L 584,313" fill="none" stroke="black" stroke-width="1"/>
  <path d="M 614,304 L 612,305 L 611,305 L 610,305" fill="none" stroke="black" stroke-width="1"/>
  <path d="M 587,385 L 584,384 L 583,384 L 575,389 L 574,390 L 571,395 L 570,396 L 569,397 L 568,398 L 562,398 L 561,398 L 557,403 L 556,404 L 555,409 L 555,410 L 553,414 L 552,414 L 548,416" fill="none" stroke="black" stroke-width="1"/>
  <path d="M 547,421 L 548,419 L 548,418 L 548,416" fill="none" stroke="black" stroke-width="1"/>
  <path d="M 545,414 L 548,416" fill="none" stroke="black" stroke-width="1"/>
  <path d="M 549,422 L 547,421" fill="none" stroke="black" stroke-width="1"/>
  <path d="M 586,465 L 584,469 L 583,469 L 581,468 L 580,468 L 573,463 L 573,462 L 569,456 L 568,455 L 562,450 L 561,449 L 558,443 L 557,442 L 553,436 L 552,436 L 546,431 L 545,430 L 543,425 L 543,424 L 547,421" fill="none" stroke="black" stroke-width="1"/>
  <path d="M 571,414 L 569,411 L 568,410 L 565,412" fill="none" stroke="black" stroke-width="1"/>
  <path d="M 556,417 L 559,423 L 559,424 L 563,429 L 564,430 L 568,432 L 569,432 L 575,427 L 575,426 L 575,424" fill="none" stroke="black" stroke-width="1"/>
  <path d="M 587,402 L 584,405 L 583,405 L 579,407 L 578,408 L 575,412 L 575,413 L 575,418 L 576,419 L 575,424" fill="none" stroke="black" stroke-width="1"/>
  <path d="M 589,425 L 587,424 L 586,424 L 584,423 L 583,423 L 579,424 L 578,424 L 575,424" fill="none" stroke="black" stroke-width="1"/>
  <path d="M 593,448 L 591,444 L 590,443 L 584,440 L 583,440 L 576,444 L 575,445 L 579,447" fill="none" stroke="black" stroke-width="1"/>
  <path d="M 643,375 L 640,373 L 639,373 L 634,371 L 633,371 L 627,369 L 626,369 L 622,367 L 621,366 L 616,365 L 615,366 L 610,367 L 609,368 L 603,371 L 602,371 L 597,374 L 596,375 L 592,377 L 591,377 L 586,380 L 585,381 L 587,385" fill="none" stroke="black" stroke-width="1"/>
  <path d="M 596,385 L 590,386 L 589,386 L 587,385" fill="none" stroke="black" stroke-width="1"/>
  <path d="M 602,398 L 597,396 L 596,397 L 593,398" fill="none" stroke="black" stroke-width="1"/>
  <path d="M 589,425 L 590,423 L 591,422 L 593,415 L 594,414 L 592,411" fill="none" stroke="black" stroke-width="1"/>
  <path d="M 595,435 L 593,431 L 593,430 L 589,425" fill="none" stroke="black" stroke-width="1"/>
  <path d="M 602,435 L 597,435 L 596,435 L 595,435" fill="none" stroke="black" stroke-width="1"/>
  <path d="M 593,438 L 595,435" fill="none" stroke="black" stroke-width="1"/>
  <path d="M 611,380 L 611,377 L 612,376 L 613,373" fill="none" stroke="black" stroke-width="1"/>
  <path d="M 652,399 L 653,397 L 653,396 L 653,391 L 653,390 L 652,382 L 652,381 L 646,375 L 645,375 L 643,375" fill="none" stroke="black" stroke-width="1"/>
  <path d="M 632,391 L 635,388 L 636,388 L 637,386 L 637,385 L 644,377 L 644,376 L 643,375" fill="none" stroke="black" stroke-width="1"/>
  <path d="M 624,387 L 619,384 L 618,384 L 613,384" fill="none" stroke="black" stroke-width="1"/>
  <path d="M 632,381 L 629,380 L 628,380 L 627,382 L 627,383 L 624,387" fill="none" stroke="black" stroke-width="1"/>
  <path d="M 624,398 L 623,395 L 623,394 L 624,389 L 624,388 L 624,387" fill="none" stroke="black" stroke-width="1"/>
  <path d="M 608,395 L 609,394 L 609,393 L 605,391 L 604,391 L 601,393 L 599,394 L 602,398" fill="none" stroke="black" stroke-width="1"/>
  <path d="M 608,395 L 605,396 L 604,397 L 602,398" fill="none" stroke="black" stroke-width="1"/>
  <path d="M 614,401 L 613,399 L 613,398 L 612,396 L 611,396 L 608,395" fill="none" stroke="black" stroke-width="1"/>
  <path d="M 609,401 L 608,404" fill="none" stroke="black" stroke-width="1"/>
  <path d="M 626,407 L 620,405 L 619,405 L 614,401" fill="none" stroke="black" stroke-width="1"/>
  <path d="M 613,413 L 615,411 L 615,410 L 615,408 L 615,407 L 614,401" fill="none" stroke="black" stroke-width="1"/>
  <path d="M 652,405 L 653,402 L 653,401 L 652,399" fill="none" stroke="black" stroke-width="1"/>
  <path d="M 652,405 L 647,402 L 647,401 L 652,399" fill="none" stroke="black" stroke-width="1"/>
  <path d="M 646,399 L 652,399" fill="none" stroke="black" stroke-width="1"/>
  <path d="M 633,436 L 635,436 L 636,435 L 642,431 L 642,430 L 643,429 L 644,429 L 649,427 L 650,426 L 653,418 L 653,417 L 653,408 L 653,407 L 652,405" fill="none" stroke="black" stroke-width="1"/>
  <path d="M 613,413 L 611,413 L 610,412 L 607,414 L 607,415 L 609,420" fill="none" stroke="black" stroke-width="1"/>
  <path d="M 614,424 L 618,420 L 616,419 L 613,415 L 613,414 L 613,413" fill="none" stroke="black" stroke-width="1"/>
  <path d="M 614,424 L 611,421 L 610,420 L 609,420" fill="none" stroke="black" stroke-width="1"/>
  <path d="M 608,426 L 607,423 L 607,422 L 609,420" fill="none" stroke="black" stroke-width="1"/>
  <path d="M 614,424 L 611,425 L 610,425 L 608,426" fill="none" stroke="black" stroke-width="1"/>
  <path d="M 602,435 L 605,431 L 606,430 L 608,426" fill="none" stroke="black" stroke-width="1"/>
  <path d="M 620,422 L 614,424" fill="none" stroke="black" stroke-width="1"/>
  <path d="M 613,434 L 613,431 L 613,430 L 614,427 L 614,426 L 614,424" fill="none" stroke="black" stroke-width="1"/>
  <path d="M 600,442 L 603,438 L 603,437 L 602,435" fill="none" stroke="black" stroke-width="1"/>
  <path d="M 600,442 L 598,438 L 598,437 L 602,435" fill="none" stroke="black" stroke-width="1"/>
  <path d="M 608,442 L 607,441 L 606,441 L 600,442" fill="none" stroke="black" stroke-width="1"/>
  <path d="M 608,442 L 607,447 L 606,447 L 601,445 L 601,444 L 600,442" fill="none" stroke="black" stroke-width="1"/>
  <path d="M 627,435 L 624,437 L 623,437 L 621,438 L 620,439 L 615,442 L 614,442 L 610,443 L 609,443 L 608,442" fill="none" stroke="black" stroke-width="1"/>
  <path d="M 640,416 L 635,413 L 634,413 L 633,411" fill="none" stroke="black" stroke-width="1"/>
  <path d="M 648,416 L 643,411 L 642,410 L 637,411 L 636,412 L 640,416" fill="none" stroke="black" stroke-width="1"/>
  <path d="M 639,423 L 641,421 L 641,420 L 640,416" fill="none" stroke="black" stroke-width="1"/>
  <path d="M 627,424 L 626,431 L 626,432 L 627,435" fill="none" stroke="black" stroke-width="1"/>
  <path d="M 633,436 L 631,435 L 630,435 L 627,435" fill="none" stroke="black" stroke-width="1"/>
  <path d="M 632,441 L 631,442 L 630,441 L 628,439 L 628,438 L 627,435" fill="none" stroke="black" stroke-width="1"/>
  <path d="M 632,441 L 634,438 L 634,437 L 633,436" fill="none" stroke="black" stroke-width="1"/>
  <path d="M 592,465 L 594,470 L 595,469 L 601,468 L 602,467 L 608,463 L 609,462 L 613,459 L 614,459 L 618,458 L 619,457 L 624,454 L 625,454 L 629,450 L 629,449 L 631,444 L 632,443 L 632,441" fill="none" stroke="black" stroke-width="1"/>
  <path d="M 605,458 L 602,457 L 601,457 L 599,458" fill="none" stroke="black" stroke-width="1"/>
  <path d="M 592,465 L 589,465 L 588,465 L 586,465" fill="none" stroke="black" stroke-width="1"/>
  <path d="M 592,465 L 589,470 L 588,470 L 586,465" fill="none" stroke="black" stroke-width="1"/>
  <path d="M 584,464 L 586,465" fill="none" stroke="black" stroke-width="1"/>
  <path d="M 560,562 L 555,563 L 554,564 L 552,570 L 552,571 L 553,572" fill="none" stroke="black" stroke-width="1"/>
  <path d="M 558,569 L 555,572 L 554,572 L 553,572" fill="none" stroke="black" stroke-width="1"/>
  <path d="M 558,600 L 555,600 L 554,599 L 551,593 L 551,592 L 551,583 L 551,582 L 551,579 L 551,578 L 553,572" fill="none" stroke="black" stroke-width="1"/>
  <path d="M 573,559 L 567,560 L 566,560 L 564,561 L 563,561 L 560,562" fill="none" stroke="black" stroke-width="1"/>
  <path d="M 558,569 L 561,565 L 561,564 L 560,562" fill="none" stroke="black" stroke-width="1"/>
  <path d="M 559,576 L 557,574 L 557,573 L 558,569" fill="none" stroke="black" stroke-width="1"/>
  <path d="M 558,600 L 557,593 L 557,592 L 559,588" fill="none" stroke="black" stroke-width="1"/>
  <path d="M 568,609 L 567,609 L 566,609 L 564,607 L 563,607 L 559,603 L 558,602 L 558,600" fill="none" stroke="black" stroke-width="1"/>
  <path d="M 631,515 L 632,512 L 631,511 L 630,510 L 629,510 L 626,511" fill="none" stroke="black" stroke-width="1"/>
  <path d="M 570,571 L 567,570 L 566,572 L 565,574 L 565,575 L 565,577" fill="none" stroke="black" stroke-width="1"/>
  <path d="M 570,571 L 570,574 L 570,575 L 567,578 L 566,578 L 565,577" fill="none" stroke="black" stroke-width="1"/>
  <path d="M 564,576 L 565,577" fill="none" stroke="black" stroke-width="1"/>
  <path d="M 586,538 L 583,537 L 582,537 L 578,539 L 577,540 L 572,547 L 571,548 L 569,554" fill="none" stroke="black" stroke-width="1"/>
  <path d="M 575,552 L 573,550 L 572,549 L 569,554" fill="none" stroke="black" stroke-width="1"/>
  <path d="M 575,552 L 573,554 L 572,554 L 569,554" fill="none" stroke="black" stroke-width="1"/>
  <path d="M 573,559 L 568,557 L 568,556 L 569,554" fill="none" stroke="black" stroke-width="1"/>
  <path d="M 580,547 L 580,549 L 580,550 L 578,553 L 577,553 L 575,552" fill="none" stroke="black" stroke-width="1"/>
  <path d="M 573,559 L 574,557 L 574,556 L 575,552" fill="none" stroke="black" stroke-width="1"/>
  <path d="M 600,529 L 598,530 L 597,530 L 592,533 L 591,533 L 589,535 L 588,536 L 586,538" fill="none" stroke="black" stroke-width="1"/>
  <path d="M 584,542 L 585,541 L 585,540 L 586,538" fill="none" stroke="black" stroke-width="1"/>
  <path d="M 584,542 L 582,543 L 581,544 L 580,547" fill="none" stroke="black" stroke-width="1"/>
  <path d="M 584,542 L 582,548 L 581,548 L 580,547" fill="none" stroke="black" stroke-width="1"/>
  <path d="M 586,550 L 586,553" fill="none" stroke="black" stroke-width="1"/>
  <path d="M 589,553 L 590,553" fill="none" stroke="black" stroke-width="1"/>
  <path d="M 574,571 L 574,565 L 574,564 L 573,559" fill="none" stroke="black" stroke-width="1"/>
  <path d="M 574,571 L 573,566 L 572,566 L 570,571" fill="none" stroke="black" stroke-width="1"/>
  <path d="M 574,571 L 573,570 L 572,570 L 570,571" fill="none" stroke="black" stroke-width="1"/>
  <path d="M 577,578 L 575,575 L 575,574 L 574,571" fill="none" stroke="black" stroke-width="1"/>
  <path d="M 591,558 L 587,562" fill="none" stroke="black" stroke-width="1"/>
  <path d="M 592,558 L 593,559 L 593,560 L 592,562 L 591,562 L 587,562" fill="none" stroke="black" stroke-width="1"/>
  <path d="M 583,570 L 584,567 L 585,566 L 587,562" fill="none" stroke="black" stroke-width="1"/>
  <path d="M 570,592 L 570,588" fill="none" stroke="black" stroke-width="1"/>
  <path d="M 582,578 L 577,578" fill="none" stroke="black" stroke-width="1"/>
  <path d="M 580,585 L 581,582 L 581,581 L 577,578" fill="none" stroke="black" stroke-width="1"/>
  <path d="M 580,585 L 576,582 L 576,581 L 577,578" fill="none" stroke="black" stroke-width="1"/>
  <path d="M 583,578 L 589,583 L 589,584 L 583,590 L 582,590 L 580,588 L 580,587 L 580,585" fill="none" stroke="black" stroke-width="1"/>
  <path d="M 594,593 L 592,594 L 591,594 L 589,596 L 589,597 L 593,599 L 594,599 L 596,598" fill="none" stroke="black" stroke-width="1"/>
  <path d="M 606,529 L 605,531 L 605,532 L 605,535 L 604,536 L 598,539 L 597,540 L 595,544" fill="none" stroke="black" stroke-width="1"/>
  <path d="M 601,569 L 598,568 L 597,568 L 593,572 L 593,573 L 597,579 L 598,580 L 602,577" fill="none" stroke="black" stroke-width="1"/>
  <path d="M 608,522 L 604,523 L 603,524 L 600,529" fill="none" stroke="black" stroke-width="1"/>
  <path d="M 606,529 L 604,530 L 603,530 L 600,529" fill="none" stroke="black" stroke-width="1"/>
  <path d="M 624,517 L 620,513 L 619,513 L 615,515 L 614,516 L 611,518 L 610,519 L 608,522" fill="none" stroke="black" stroke-width="1"/>
  <path d="M 606,529 L 609,525 L 609,524 L 608,522" fill="none" stroke="black" stroke-width="1"/>
  <path d="M 617,547 L 611,546 L 610,546 L 610,550 L 611,551 L 616,550 L 616,549 L 617,547" fill="none" stroke="black" stroke-width="1"/>
  <path d="M 608,568 L 605,566 L 604,566 L 601,569" fill="none" stroke="black" stroke-width="1"/>
  <path d="M 602,577 L 600,573 L 600,572 L 601,569" fill="none" stroke="black" stroke-width="1"/>
  <path d="M 608,568 L 609,570 L 609,571 L 607,575 L 606,576 L 605,577 L 604,577 L 602,577" fill="none" stroke="black" stroke-width="1"/>
  <path d="M 613,567 L 611,569 L 610,569 L 608,568" fill="none" stroke="black" stroke-width="1"/>
  <path d="M 620,541 L 615,540 L 614,541 L 613,544 L 613,545 L 617,547" fill="none" stroke="black" stroke-width="1"/>
  <path d="M 622,512 L 624,517" fill="none" stroke="black" stroke-width="1"/>
  <path d="M 631,515 L 628,516 L 627,516 L 624,517" fill="none" stroke="black" stroke-width="1"/>
  <path d="M 624,522 L 624,521 L 624,520 L 624,517" fill="none" stroke="black" stroke-width="1"/>
  <path d="M 624,522 L 620,524 L 619,524 L 619,529 L 620,529 L 624,522" fill="none" stroke="black" stroke-width="1"/>
  <path d="M 636,522 L 634,522 L 633,522 L 628,522 L 627,522 L 624,522" fill="none" stroke="black" stroke-width="1"/>
  <path d="M 644,517 L 640,515 L 639,514 L 634,513 L 633,513 L 631,515" fill="none" stroke="black" stroke-width="1"/>
  <path d="M 649,522 L 650,520 L 649,519 L 646,518 L 645,518 L 644,517" fill="none" stroke="black" stroke-width="1"/>
  <path d="M 643,522 L 644,520 L 644,519 L 644,517" fill="none" stroke="black" stroke-width="1"/>
  <path d="M 643,522 L 641,521 L 640,521 L 636,522" fill="none" stroke="black" stroke-width="1"/>
  <path d="M 635,525 L 634,524 L 635,523 L 636,522" fill="none" stroke="black" stroke-width="1"/>
  <path d="M 635,525 L 632,529 L 631,529 L 629,530 L 628,531 L 627,535" fill="none" stroke="black" stroke-width="1"/>
  <path d="M 643,526 L 641,527 L 640,527 L 635,525" fill="none" stroke="black" stroke-width="1"/>
  <path d="M 634,537 L 635,531 L 634,530 L 635,525" fill="none" stroke="black" stroke-width="1"/>
  <path d="M 643,526 L 644,524 L 644,523 L 643,522" fill="none" stroke="black" stroke-width="1"/>
  <path d="M 649,522 L 646,524 L 645,525 L 643,526" fill="none" stroke="black" stroke-width="1"/>
  <path d="M 649,529 L 648,527 L 647,526 L 649,522" fill="none" stroke="black" stroke-width="1"/>
  <path d="M 634,537 L 631,533 L 630,532 L 627,535" fill="none" stroke="black" stroke-width="1"/>
  <path d="M 630,541 L 627,539 L 627,538 L 627,535" fill="none" stroke="black" stroke-width="1"/>
  <path d="M 641,536 L 639,535 L 638,534 L 634,537" fill="none" stroke="black" stroke-width="1"/>
  <path d="M 635,540 L 634,539 L 634,538 L 634,537" fill="none" stroke="black" stroke-width="1"/>
  <path d="M 635,540 L 633,540 L 632,541 L 630,541" fill="none" stroke="black" stroke-width="1"/>
  <path d="M 629,548 L 630,545 L 630,544 L 630,541" fill="none" stroke="black" stroke-width="1"/>
  <path d="M 641,542 L 639,542 L 638,542 L 635,540" fill="none" stroke="black" stroke-width="1"/>
  <path d="M 649,533 L 643,535 L 642,535 L 641,536" fill="none" stroke="black" stroke-width="1"/>
  <path d="M 641,542 L 640,539 L 640,538 L 641,536" fill="none" stroke="black" stroke-width="1"/>
  <path d="M 646,542 L 643,543 L 642,543 L 641,542" fill="none" stroke="black" stroke-width="1"/>
  <path d="M 653,533 L 652,532 L 651,533 L 649,533" fill="none" stroke="black" stroke-width="1"/>
  <path d="M 646,542 L 650,538 L 650,537 L 649,533" fill="none" stroke="black" stroke-width="1"/>
  <path d="M 646,542 L 645,538 L 645,537 L 649,533" fill="none" stroke="black" stroke-width="1"/>
  <path d="M 650,549 L 648,545 L 648,544 L 646,542" fill="none" stroke="black" stroke-width="1"/>
  <path d="M 662,521 L 661,522 L 660,520 L 656,521" fill="none" stroke="black" stroke-width="1"/>
  <path d="M 653,533 L 656,529 L 655,528 L 656,526" fill="none" stroke="black" stroke-width="1"/>
  <path d="M 658,549 L 659,545 L 659,544 L 659,537 L 659,536 L 653,533" fill="none" stroke="black" stroke-width="1"/>
  <path d="M 623,548 L 621,547 L 620,547 L 617,547" fill="none" stroke="black" stroke-width="1"/>
  <path d="M 629,548 L 626,547 L 625,547 L 623,548" fill="none" stroke="black" stroke-width="1"/>
  <path d="M 623,554 L 622,551 L 622,550 L 623,548" fill="none" stroke="black" stroke-width="1"/>
  <path d="M 629,548 L 630,550 L 630,551 L 626,554 L 625,554 L 623,554" fill="none" stroke="black" stroke-width="1"/>
  <path d="M 621,560 L 623,557 L 623,556 L 623,554" fill="none" stroke="black" stroke-width="1"/>
  <path d="M 650,549 L 647,551 L 646,551 L 644,553" fill="none" stroke="black" stroke-width="1"/>
  <path d="M 641,558 L 640,557 L 641,558 L 642,557 L 643,556 L 644,553" fill="none" stroke="black" stroke-width="1"/>
  <path d="M 639,556 L 644,553" fill="none" stroke="black" stroke-width="1"/>
  <path d="M 621,560 L 618,560 L 617,560 L 613,562 L 613,563 L 613,565 L 613,566 L 613,567" fill="none" stroke="black" stroke-width="1"/>
  <path d="M 624,566 L 622,563 L 622,562 L 621,560" fill="none" stroke="black" stroke-width="1"/>
  <path d="M 637,560 L 635,560 L 634,560 L 631,562 L 631,563 L 630,566" fill="none" stroke="black" stroke-width="1"/>
  <path d="M 624,566 L 618,567 L 617,567 L 613,567" fill="none" stroke="black" stroke-width="1"/>
  <path d="M 619,575 L 618,576 L 617,576 L 614,579 L 613,580 L 614,581" fill="none" stroke="black" stroke-width="1"/>
  <path d="M 619,582 L 618,582 L 617,582 L 614,581" fill="none" stroke="black" stroke-width="1"/>
  <path d="M 621,588 L 619,588 L 618,588 L 613,586 L 613,585 L 614,581" fill="none" stroke="black" stroke-width="1"/>
  <path d="M 630,566 L 626,565 L 625,565 L 624,566" fill="none" stroke="black" stroke-width="1"/>
  <path d="M 623,572 L 623,570 L 623,569 L 624,566" fill="none" stroke="black" stroke-width="1"/>
  <path d="M 637,560 L 635,564 L 634,564 L 630,566" fill="none" stroke="black" stroke-width="1"/>
  <path d="M 632,573 L 633,570 L 633,569 L 630,566" fill="none" stroke="black" stroke-width="1"/>
  <path d="M 632,573 L 629,570 L 629,569 L 630,566" fill="none" stroke="black" stroke-width="1"/>
  <path d="M 623,572 L 622,572 L 621,573 L 619,575" fill="none" stroke="black" stroke-width="1"/>
  <path d="M 619,582 L 620,578 L 620,577 L 619,575" fill="none" stroke="black" stroke-width="1"/>
  <path d="M 625,578 L 622,579 L 621,579 L 619,582" fill="none" stroke="black" stroke-width="1"/>
  <path d="M 621,588 L 620,586 L 619,585 L 619,582" fill="none" stroke="black" stroke-width="1"/>
  <path d="M 625,578 L 625,575 L 625,574 L 623,572" fill="none" stroke="black" stroke-width="1"/>
  <path d="M 629,578 L 627,578 L 626,578 L 625,578" fill="none" stroke="black" stroke-width="1"/>
  <path d="M 628,583 L 625,581 L 625,580 L 625,578" fill="none" stroke="black" stroke-width="1"/>
  <path d="M 639,574 L 635,575 L 634,574 L 632,573" fill="none" stroke="black" stroke-width="1"/>
  <path d="M 629,578 L 630,576 L 631,575 L 632,573" fill="none" stroke="black" stroke-width="1"/>
  <path d="M 628,583 L 629,581 L 629,580 L 629,578" fill="none" stroke="black" stroke-width="1"/>
  <path d="M 637,580 L 635,581 L 634,582 L 631,582 L 630,583 L 628,583" fill="none" stroke="black" stroke-width="1"/>
  <path d="M 627,588 L 627,586 L 627,585 L 628,583" fill="none" stroke="black" stroke-width="1"/>
  <path d="M 641,558 L 639,559 L 638,559 L 637,560" fill="none" stroke="black" stroke-width="1"/>
  <path d="M 639,574 L 639,571 L 638,570 L 637,567 L 637,566 L 637,560" fill="none" stroke="black" stroke-width="1"/>
  <path d="M 649,566 L 647,566 L 646,565 L 641,558" fill="none" stroke="black" stroke-width="1"/>
  <path d="M 641,582 L 643,578 L 643,577 L 642,573 L 641,573 L 639,574" fill="none" stroke="black" stroke-width="1"/>
  <path d="M 637,580 L 638,578 L 638,577 L 639,574" fill="none" stroke="black" stroke-width="1"/>
  <path d="M 641,582 L 640,581 L 639,581 L 637,580" fill="none" stroke="black" stroke-width="1"/>
  <path d="M 648,584 L 647,584 L 646,584 L 641,582" fill="none" stroke="black" stroke-width="1"/>
  <path d="M 658,549 L 654,549 L 653,549 L 650,549" fill="none" stroke="black" stroke-width="1"/>
  <path d="M 659,557 L 659,553 L 659,552 L 658,549" fill="none" stroke="black" stroke-width="1"/>
  <path d="M 660,557 L 659,557" fill="none" stroke="black" stroke-width="1"/>
  <path d="M 655,563 L 657,561 L 658,560 L 659,557" fill="none" stroke="black" stroke-width="1"/>
  <path d="M 655,563 L 652,563 L 651,564 L 649,566" fill="none" stroke="black" stroke-width="1"/>
  <path d="M 653,570 L 652,569 L 651,568 L 649,566" fill="none" stroke="black" stroke-width="1"/>
  <path d="M 653,570 L 655,566 L 656,565 L 655,563" fill="none" stroke="black" stroke-width="1"/>
  <path d="M 648,584 L 650,580 L 650,579 L 653,574 L 653,573 L 653,570" fill="none" stroke="black" stroke-width="1"/>
  <path d="M 649,594 L 649,591 L 649,590 L 648,586 L 648,585 L 648,584" fill="none" stroke="black" stroke-width="1"/>
  <path d="M 596,598 L 600,597 L 600,596 L 601,591 L 601,590 L 598,589 L 597,589 L 596,590 L 595,591 L 594,593" fill="none" stroke="black" stroke-width="1"/>
  <path d="M 596,598 L 595,597 L 595,596 L 594,593" fill="none" stroke="black" stroke-width="1"/>
  <path d="M 627,588 L 626,589 L 625,589 L 621,588" fill="none" stroke="black" stroke-width="1"/>
  <path d="M 642,601 L 639,597 L 638,596 L 633,593 L 632,593 L 628,591 L 627,590 L 627,588" fill="none" stroke="black" stroke-width="1"/>
  <path d="M 646,599 L 647,600 L 648,599 L 652,597 L 652,596 L 649,594" fill="none" stroke="black" stroke-width="1"/>
  <path d="M 646,599 L 646,597 L 646,596 L 649,594" fill="none" stroke="black" stroke-width="1"/>
  <path d="M 577,609 L 576,607 L 577,606 L 574,605 L 573,606 L 568,609" fill="none" stroke="black" stroke-width="1"/>
  <path d="M 578,616 L 575,615 L 574,615 L 569,612 L 569,611 L 568,609" fill="none" stroke="black" stroke-width="1"/>
  <path d="M 589,622 L 584,616 L 583,616 L 581,616 L 580,616 L 578,616" fill="none" stroke="black" stroke-width="1"/>
  <path d="M 584,627 L 580,624 L 579,623 L 577,618 L 577,617 L 578,616" fill="none" stroke="black" stroke-width="1"/>
  <path d="M 597,615 L 597,611 L 597,610 L 593,607 L 592,607 L 587,609" fill="none" stroke="black" stroke-width="1"/>
  <path d="M 597,615 L 593,612 L 592,612 L 587,609" fill="none" stroke="black" stroke-width="1"/>
  <path d="M 589,622 L 586,615 L 586,614 L 587,609" fill="none" stroke="black" stroke-width="1"/>
  <path d="M 598,620 L 593,620 L 592,620 L 589,622" fill="none" stroke="black" stroke-width="1"/>
  <path d="M 584,627 L 587,624 L 588,623 L 589,622" fill="none" stroke="black" stroke-width="1"/>
  <path d="M 598,620 L 599,618 L 599,617 L 597,615" fill="none" stroke="black" stroke-width="1"/>
  <path d="M 598,620 L 594,618 L 594,617 L 597,615" fill="none" stroke="black" stroke-width="1"/>
  <path d="M 607,621 L 605,621 L 604,621 L 601,621 L 600,621 L 598,620" fill="none" stroke="black" stroke-width="1"/>
  <path d="M 630,608 L 626,609 L 625,609 L 618,605 L 617,604 L 611,599 L 610,599 L 608,601" fill="none" stroke="black" stroke-width="1"/>
  <path d="M 627,600 L 628,605 L 629,606 L 630,608" fill="none" stroke="black" stroke-width="1"/>
  <path d="M 642,601 L 641,604 L 641,605 L 637,610 L 636,610 L 634,611 L 633,611 L 630,608" fill="none" stroke="black" stroke-width="1"/>
  <path d="M 622,622 L 625,621 L 626,621 L 631,616 L 631,615 L 632,613 L 632,612 L 630,608" fill="none" stroke="black" stroke-width="1"/>
  <path d="M 613,621 L 613,618 L 613,617 L 610,614 L 609,614 L 606,617 L 606,618 L 607,621" fill="none" stroke="black" stroke-width="1"/>
  <path d="M 613,621 L 610,622 L 609,622 L 607,621" fill="none" stroke="black" stroke-width="1"/>
  <path d="M 617,622 L 616,622 L 615,622 L 613,621" fill="none" stroke="black" stroke-width="1"/>
  <path d="M 622,622 L 619,622 L 618,622 L 617,622" fill="none" stroke="black" stroke-width="1"/>
  <path d="M 620,629 L 617,624 L 617,623 L 617,622" fill="none" stroke="black" stroke-width="1"/>
  <path d="M 620,629 L 623,624 L 623,623 L 622,622" fill="none" stroke="black" stroke-width="1"/>
  <path d="M 646,599 L 644,601 L 643,601 L 642,601" fill="none" stroke="black" stroke-width="1"/>
  <path d="M 617,631 L 611,633 L 610,633 L 602,633 L 601,634 L 594,636 L 593,636 L 586,631 L 585,630 L 584,627" fill="none" stroke="black" stroke-width="1"/>
  <path d="M 619,630 L 620,629" fill="none" stroke="black" stroke-width="1"/>
  <path d="M 516,687 L 511,687 L 511,688 L 516,688" fill="none" stroke="black" stroke-width="1"/>
  <path d="M 575,694 L 575,692 L 574,691 L 573,690" fill="none" stroke="black" stroke-width="1"/>
  <path d="M 533,719 L 526,721 L 525,721 L 518,724 L 517,726 L 514,731 L 513,732 L 510,739 L 509,740 L 507,742 L 506,742 L 503,745 L 503,746 L 502,748 L 501,749 L 499,753 L 498,754 L 498,757" fill="none" stroke="black" stroke-width="1"/>
  <path d="M 510,755 L 507,757 L 506,757 L 505,760 L 504,761 L 501,764 L 500,765 L 497,767 L 497,768 L 498,771 L 499,772 L 500,774" fill="none" stroke="black" stroke-width="1"/>
  <path d="M 501,773 L 500,774" fill="none" stroke="black" stroke-width="1"/>
  <path d="M 502,774 L 502,778 L 501,778 L 500,774" fill="none" stroke="black" stroke-width="1"/>
  <path d="M 499,786 L 499,781 L 500,780 L 500,774" fill="none" stroke="black" stroke-width="1"/>
  <path d="M 544,702 L 542,703 L 541,703 L 536,708 L 535,709 L 536,711" fill="none" stroke="black" stroke-width="1"/>
  <path d="M 555,697 L 552,699 L 551,699 L 549,699 L 548,699 L 544,702" fill="none" stroke="black" stroke-width="1"/>
  <path d="M 546,704 L 544,702" fill="none" stroke="black" stroke-width="1"/>
  <path d="M 575,694 L 570,693 L 569,693 L 560,694 L 559,694 L 555,697" fill="none" stroke="black" stroke-width="1"/>
  <path d="M 556,703 L 553,701 L 553,700 L 555,697" fill="none" stroke="black" stroke-width="1"/>
  <path d="M 572,692 L 575,694" fill="none" stroke="black" stroke-width="1"/>
  <path d="M 583,701 L 580,698 L 579,698 L 575,694" fill="none" stroke="black" stroke-width="1"/>
  <path d="M 575,702 L 578,700 L 578,699 L 575,694" fill="none" stroke="black" stroke-width="1"/>
  <path d="M 567,708 L 561,708 L 561,709 L 567,709" fill="none" stroke="black" stroke-width="1"/>
  <path d="M 624,725 L 625,723 L 625,722 L 620,715 L 619,714 L 614,709 L 613,708 L 609,704 L 608,704 L 600,702 L 600,701 L 599,697 L 598,696 L 595,696" fill="none" stroke="black" stroke-width="1"/>
  <path d="M 605,713 L 602,711 L 601,711 L 598,713 L 599,714 L 603,716 L 604,717 L 606,714" fill="none" stroke="black" stroke-width="1"/>
  <path d="M 535,717 L 533,719" fill="none" stroke="black" stroke-width="1"/>
  <path d="M 522,737 L 520,735 L 521,734 L 525,729 L 526,729 L 527,727 L 527,726 L 528,723 L 528,722 L 533,719" fill="none" stroke="black" stroke-width="1"/>
  <path d="M 540,730 L 539,730 L 538,730 L 534,733 L 533,734 L 531,739 L 531,740 L 529,743" fill="none" stroke="black" stroke-width="1"/>
  <path d="M 561,727 L 558,725 L 557,725 L 551,728 L 551,729 L 554,733" fill="none" stroke="black" stroke-width="1"/>
  <path d="M 560,731 L 558,732 L 557,732 L 554,733" fill="none" stroke="black" stroke-width="1"/>
  <path d="M 554,735 L 554,733" fill="none" stroke="black" stroke-width="1"/>
  <path d="M 560,731 L 560,730 L 560,731 L 565,730 L 565,729 L 561,727" fill="none" stroke="black" stroke-width="1"/>
  <path d="M 560,729 L 561,727" fill="none" stroke="black" stroke-width="1"/>
  <path d="M 578,716 L 573,719 L 573,720 L 578,724 L 579,724 L 583,720 L 584,719 L 579,716" fill="none" stroke="black" stroke-width="1"/>
  <path d="M 581,742 L 583,740 L 583,739 L 581,737 L 580,736 L 578,736" fill="none" stroke="black" stroke-width="1"/>
  <path d="M 597,725 L 595,724 L 594,724 L 588,730 L 588,731 L 594,738 L 595,738 L 598,732" fill="none" stroke="black" stroke-width="1"/>
  <path d="M 604,736 L 603,730 L 603,729 L 600,725 L 599,725 L 597,725" fill="none" stroke="black" stroke-width="1"/>
  <path d="M 598,732 L 596,730 L 596,729 L 597,725" fill="none" stroke="black" stroke-width="1"/>
  <path d="M 604,736 L 602,737 L 601,737 L 598,732" fill="none" stroke="black" stroke-width="1"/>
  <path d="M 609,735 L 607,735 L 606,736 L 604,736" fill="none" stroke="black" stroke-width="1"/>
  <path d="M 605,742 L 605,740 L 605,739 L 604,736" fill="none" stroke="black" stroke-width="1"/>
  <path d="M 513,786 L 509,782 L 508,781 L 509,777" fill="none" stroke="black" stroke-width="1"/>
  <path d="M 522,764 L 519,766 L 518,766 L 513,772 L 513,773 L 516,777" fill="none" stroke="black" stroke-width="1"/>
  <path d="M 527,777 L 525,776 L 524,775 L 519,773 L 518,774 L 516,777" fill="none" stroke="black" stroke-width="1"/>
  <path d="M 527,777 L 526,778 L 526,779 L 519,780 L 518,780 L 516,777" fill="none" stroke="black" stroke-width="1"/>
  <path d="M 517,793 L 515,787 L 514,786 L 513,786" fill="none" stroke="black" stroke-width="1"/>
  <path d="M 513,797 L 508,790 L 508,789 L 513,786" fill="none" stroke="black" stroke-width="1"/>
  <path d="M 544,744 L 540,741 L 539,742 L 535,747 L 535,748 L 538,751 L 539,752 L 540,752" fill="none" stroke="black" stroke-width="1"/>
  <path d="M 549,746 L 546,744 L 545,744 L 544,744" fill="none" stroke="black" stroke-width="1"/>
  <path d="M 540,752 L 541,748 L 542,747 L 544,744" fill="none" stroke="black" stroke-width="1"/>
  <path d="M 549,746 L 550,748 L 550,749 L 546,754 L 545,754 L 540,752" fill="none" stroke="black" stroke-width="1"/>
  <path d="M 548,743 L 549,746" fill="none" stroke="black" stroke-width="1"/>
  <path d="M 522,764 L 523,762 L 523,761 L 522,759" fill="none" stroke="black" stroke-width="1"/>
  <path d="M 527,777 L 528,771 L 528,770 L 525,764 L 524,763 L 522,764" fill="none" stroke="black" stroke-width="1"/>
  <path d="M 534,759 L 538,764" fill="none" stroke="black" stroke-width="1"/>
  <path d="M 548,765 L 541,765 L 540,764 L 538,764" fill="none" stroke="black" stroke-width="1"/>
  <path d="M 539,777 L 537,769 L 537,768 L 538,764" fill="none" stroke="black" stroke-width="1"/>
  <path d="M 546,770 L 541,776 L 540,776 L 539,777" fill="none" stroke="black" stroke-width="1"/>
  <path d="M 538,778 L 539,777" fill="none" stroke="black" stroke-width="1"/>
  <path d="M 547,762 L 548,765" fill="none" stroke="black" stroke-width="1"/>
  <path d="M 550,765 L 548,765" fill="none" stroke="black" stroke-width="1"/>
  <path d="M 546,770 L 546,769 L 546,768 L 548,765" fill="none" stroke="black" stroke-width="1"/>
  <path d="M 551,766 L 554,771 L 554,772 L 551,776 L 550,776 L 546,770" fill="none" stroke="black" stroke-width="1"/>
  <path d="M 557,756 L 558,757" fill="none" stroke="black" stroke-width="1"/>
  <path d="M 562,758 L 560,757 L 559,757 L 558,757" fill="none" stroke="black" stroke-width="1"/>
  <path d="M 556,757 L 558,757" fill="none" stroke="black" stroke-width="1"/>
  <path d="M 528,799 L 526,800 L 525,800 L 524,797" fill="none" stroke="black" stroke-width="1"/>
  <path d="M 535,788 L 532,787 L 531,787 L 528,792 L 528,793 L 528,799" fill="none" stroke="black" stroke-width="1"/>
  <path d="M 541,791 L 538,786 L 537,786 L 535,788" fill="none" stroke="black" stroke-width="1"/>
  <path d="M 541,791 L 538,791 L 537,791 L 535,788" fill="none" stroke="black" stroke-width="1"/>
  <path d="M 533,796 L 534,793 L 535,792 L 535,788" fill="none" stroke="black" stroke-width="1"/>
  <path d="M 533,796 L 531,794 L 530,794 L 528,799" fill="none" stroke="black" stroke-width="1"/>
  <path d="M 533,796 L 531,799 L 530,799 L 528,799" fill="none" stroke="black" stroke-width="1"/>
  <path d="M 540,796 L 538,797 L 537,797 L 533,796" fill="none" stroke="black" stroke-width="1"/>
  <path d="M 542,790 L 541,791" fill="none" stroke="black" stroke-width="1"/>
  <path d="M 540,796 L 539,794 L 539,793 L 541,791" fill="none" stroke="black" stroke-width="1"/>
  <path d="M 543,791 L 544,794 L 544,795 L 543,796 L 542,796 L 540,796" fill="none" stroke="black" stroke-width="1"/>
  <path d="M 565,792 L 565,790 L 564,789 L 560,782 L 559,782 L 555,784 L 555,785 L 559,791 L 560,792 L 562,793 L 563,793 L 565,792" fill="none" stroke="black" stroke-width="1"/>
  <path d="M 574,744 L 570,743 L 569,743 L 565,747 L 565,748 L 566,754 L 567,754 L 569,756" fill="none" stroke="black" stroke-width="1"/>
  <path d="M 577,745 L 574,744" fill="none" stroke="black" stroke-width="1"/>
  <path d="M 570,750 L 571,748 L 571,747 L 574,744" fill="none" stroke="black" stroke-width="1"/>
  <path d="M 575,756 L 576,754 L 576,753 L 573,749 L 572,749 L 570,750" fill="none" stroke="black" stroke-width="1"/>
  <path d="M 569,756 L 568,753 L 569,752 L 570,750" fill="none" stroke="black" stroke-width="1"/>
  <path d="M 575,756 L 573,757 L 572,757 L 569,756" fill="none" stroke="black" stroke-width="1"/>
  <path d="M 578,746 L 581,751 L 582,752 L 578,756 L 577,756 L 575,756" fill="none" stroke="black" stroke-width="1"/>
  <path d="M 573,768 L 571,768 L 570,768 L 567,772 L 567,773 L 570,777 L 571,777 L 573,777" fill="none" stroke="black" stroke-width="1"/>
  <path d="M 579,774 L 579,771 L 578,770 L 576,768 L 575,767 L 573,768" fill="none" stroke="black" stroke-width="1"/>
  <path d="M 573,777 L 573,771 L 573,770 L 573,768" fill="none" stroke="black" stroke-width="1"/>
  <path d="M 579,774 L 576,775 L 575,775 L 573,777" fill="none" stroke="black" stroke-width="1"/>
  <path d="M 579,774 L 576,779 L 575,779 L 573,777" fill="none" stroke="black" stroke-width="1"/>
  <path d="M 581,775 L 579,774" fill="none" stroke="black" stroke-width="1"/>
  <path d="M 578,780 L 579,774" fill="none" stroke="black" stroke-width="1"/>
  <path d="M 601,744 L 598,744 L 597,744 L 597,748 L 598,748 L 601,747" fill="none" stroke="black" stroke-width="1"/>
  <path d="M 605,742 L 604,742 L 603,743 L 601,744" fill="none" stroke="black" stroke-width="1"/>
  <path d="M 601,747 L 600,746 L 601,745 L 601,744" fill="none" stroke="black" stroke-width="1"/>
  <path d="M 605,742 L 606,744 L 607,745 L 604,749 L 603,749 L 601,747" fill="none" stroke="black" stroke-width="1"/>
  <path d="M 600,762 L 598,761 L 597,761 L 595,759 L 594,757 L 590,762" fill="none" stroke="black" stroke-width="1"/>
  <path d="M 594,770 L 593,766 L 593,765 L 590,762" fill="none" stroke="black" stroke-width="1"/>
  <path d="M 594,770 L 590,772 L 589,771 L 586,766 L 586,765 L 590,762" fill="none" stroke="black" stroke-width="1"/>
  <path d="M 585,762 L 590,762" fill="none" stroke="black" stroke-width="1"/>
  <path d="M 599,774 L 598,773 L 597,773 L 594,770" fill="none" stroke="black" stroke-width="1"/>
  <path d="M 607,761 L 604,761 L 603,761 L 600,762" fill="none" stroke="black" stroke-width="1"/>
  <path d="M 599,774 L 600,771 L 600,770 L 599,765 L 599,764 L 600,762" fill="none" stroke="black" stroke-width="1"/>
  <path d="M 607,777 L 604,777 L 603,777 L 599,774" fill="none" stroke="black" stroke-width="1"/>
  <path d="M 618,755 L 615,756 L 614,757 L 611,758 L 610,759 L 607,761" fill="none" stroke="black" stroke-width="1"/>
  <path d="M 609,769 L 608,767 L 608,766 L 608,763 L 608,762 L 607,761" fill="none" stroke="black" stroke-width="1"/>
  <path d="M 614,770 L 611,769 L 610,768 L 609,769" fill="none" stroke="black" stroke-width="1"/>
  <path d="M 607,777 L 608,774 L 608,773 L 609,769" fill="none" stroke="black" stroke-width="1"/>
  <path d="M 613,776 L 611,776 L 610,776 L 607,777" fill="none" stroke="black" stroke-width="1"/>
  <path d="M 608,784 L 608,781 L 608,780 L 607,777" fill="none" stroke="black" stroke-width="1"/>
  <path d="M 568,791 L 565,792" fill="none" stroke="black" stroke-width="1"/>
  <path d="M 569,792 L 573,795 L 573,796 L 569,800 L 568,800 L 564,796 L 564,795 L 565,792" fill="none" stroke="black" stroke-width="1"/>
  <path d="M 590,799 L 592,800 L 593,800 L 595,794 L 595,793 L 591,788 L 590,788 L 587,790 L 586,791 L 584,795 L 584,796 L 586,800 L 587,800 L 590,799" fill="none" stroke="black" stroke-width="1"/>
  <path d="M 590,794 L 590,799" fill="none" stroke="black" stroke-width="1"/>
  <path d="M 608,784 L 605,789 L 604,790 L 603,792 L 602,793 L 601,801 L 601,802 L 595,808 L 594,808 L 588,813 L 587,813 L 586,814" fill="none" stroke="black" stroke-width="1"/>
  <path d="M 613,776 L 611,782 L 610,782 L 608,784" fill="none" stroke="black" stroke-width="1"/>
  <path d="M 624,725 L 621,725 L 620,725 L 617,728 L 617,729 L 620,734 L 621,734 L 623,733" fill="none" stroke="black" stroke-width="1"/>
  <path d="M 623,733 L 624,729 L 624,728 L 624,725" fill="none" stroke="black" stroke-width="1"/>
  <path d="M 618,755 L 618,754 L 618,753 L 621,745 L 621,744 L 622,736 L 622,735 L 623,733" fill="none" stroke="black" stroke-width="1"/>
  <path d="M 614,770 L 616,766 L 616,765 L 619,760 L 619,759 L 618,755" fill="none" stroke="black" stroke-width="1"/>
  <path d="M 613,776 L 613,775 L 614,774 L 614,770" fill="none" stroke="black" stroke-width="1"/>
  <path d="M 565,822 L 564,822 L 563,823 L 554,825 L 553,824 L 544,820 L 543,819 L 541,817 L 540,816 L 538,812 L 538,811 L 537,807" fill="none" stroke="black" stroke-width="1"/>
  <path d="M 556,807 L 552,806 L 551,806 L 547,809 L 547,810 L 551,811 L 552,810 L 557,812" fill="none" stroke="black" stroke-width="1"/>
  <path d="M 557,812 L 558,809 L 557,808 L 556,807" fill="none" stroke="black" stroke-width="1"/>
  <path d="M 557,812 L 553,809 L 553,808 L 556,807" fill="none" stroke="black" stroke-width="1"/>
  <path d="M 578,812 L 576,810 L 575,810 L 573,811" fill="none" stroke="black" stroke-width="1"/>
  <path d="M 578,812 L 576,813 L 575,814 L 573,811" fill="none" stroke="black" stroke-width="1"/>
  <path d="M 571,817 L 571,816 L 571,815 L 573,811" fill="none" stroke="black" stroke-width="1"/>
  <path d="M 586,814 L 584,812 L 583,811 L 578,812" fill="none" stroke="black" stroke-width="1"/>
  <path d="M 581,818 L 580,816 L 580,815 L 578,812" fill="none" stroke="black" stroke-width="1"/>
  <path d="M 571,817 L 570,817 L 569,817 L 566,820 L 565,821 L 565,822" fill="none" stroke="black" stroke-width="1"/>
  <path d="M 573,823 L 574,821 L 573,820 L 571,817" fill="none" stroke="black" stroke-width="1"/>
  <path d="M 573,823 L 570,824 L 569,824 L 565,822" fill="none" stroke="black" stroke-width="1"/>
  <path d="M 581,818 L 582,820 L 582,821 L 576,824 L 575,824 L 573,823" fill="none" stroke="black" stroke-width="1"/>
  <path d="M 586,814 L 584,817 L 583,818 L 581,818" fill="none" stroke="black" stroke-width="1"/>
  <path d="M 679,1 L 679,2" fill="none" stroke="black" stroke-width="1"/>
  <path d="M 681,192 L 679,193" fill="none" stroke="black" stroke-width="1"/>
  <path d="M 681,445 L 679,446" fill="none" stroke="black" stroke-width="1"/>
  <path d="M 674,839 L 673,834 L 673,833 L 674,829" fill="none" stroke="black" stroke-width="1"/>
  <path d="M 675,852 L 676,848" fill="none" stroke="black" stroke-width="1"/>
</svg>