<svg xmlns="http://www.w3.org/2000/svg" width="372" height="372">
  <path d="M 72,3 L 68,10 L 67,11 L 68,17 L 69,17 L 74,15 L 75,14 L 82,11 L 83,11 L 88,10 L 89,10 L 93,11" fill="none" stroke="black" stroke-width="1"/>
  <path d="M 93,11 L 96,8 L 97,7 L 98,5" fill="none" stroke="black" stroke-width="1"/>
  <path d="M 92,15 L 93,13 L 93,12 L 93,11" fill="none" stroke="black" stroke-width="1"/>
  <path d="M 112,54 L 111,52 L 111,51 L 109,42 L 109,41 L 107,35 L 107,34 L 104,26 L 104,25 L 102,18 L 102,17 L 101,16 L 100,15 L 98,16 L 97,17 L 92,15" fill="none" stroke="black" stroke-width="1"/>
  <path d="M 91,41 L 92,37 L 92,36 L 92,31 L 92,30 L 93,25 L 93,24 L 96,19 L 96,18 L 92,15" fill="none" stroke="black" stroke-width="1"/>
  <path d="M 60,54 L 61,50 L 61,49 L 62,45 L 62,44 L 67,36 L 68,35 L 75,30 L 76,30 L 82,26 L 83,26 L 89,19 L 90,18 L 92,15" fill="none" stroke="black" stroke-width="1"/>
  <path d="M 77,46 L 78,45 L 79,44 L 82,37 L 82,36 L 86,34" fill="none" stroke="black" stroke-width="1"/>
  <path d="M 77,46 L 75,45 L 74,45 L 71,44" fill="none" stroke="black" stroke-width="1"/>
  <path d="M 76,52 L 76,48 L 77,47 L 77,46" fill="none" stroke="black" stroke-width="1"/>
  <path d="M 88,46 L 84,55 L 84,56 L 80,63 L 80,64 L 77,71 L 77,72 L 74,78 L 74,79 L 71,84 L 70,84 L 68,82 L 68,81 L 65,75 L 65,74 L 62,70 L 61,69 L 59,65 L 58,64 L 59,60" fill="none" stroke="black" stroke-width="1"/>
  <path d="M 120,9 L 118,7 L 117,6 L 113,2 L 112,2 L 110,6 L 111,7 L 111,9 L 112,10 L 115,14 L 116,14 L 120,13" fill="none" stroke="black" stroke-width="1"/>
  <path d="M 120,13 L 123,11 L 122,10 L 120,9" fill="none" stroke="black" stroke-width="1"/>
  <path d="M 120,13 L 119,11 L 119,10 L 120,9" fill="none" stroke="black" stroke-width="1"/>
  <path d="M 124,12 L 120,13" fill="none" stroke="black" stroke-width="1"/>
  <path d="M 125,13 L 131,19 L 132,20 L 125,25 L 124,25 L 120,24 L 119,24 L 115,22 L 114,21 L 110,20" fill="none" stroke="black" stroke-width="1"/>
  <path d="M 116,51 L 114,42 L 114,41 L 113,35 L 113,34 L 110,26 L 110,25 L 110,20" fill="none" stroke="black" stroke-width="1"/>
  <path d="M 109,21 L 110,20" fill="none" stroke="black" stroke-width="1"/>
  <path d="M 118,72 L 118,69 L 118,68 L 117,62 L 117,61 L 117,56 L 117,55 L 112,54" fill="none" stroke="black" stroke-width="1"/>
  <path d="M 118,72 L 114,69 L 114,68 L 113,62 L 113,61 L 111,56 L 111,55 L 112,54" fill="none" stroke="black" stroke-width="1"/>
  <path d="M 156,3 L 154,5 L 153,6 L 152,7 L 151,6 L 147,6 L 146,5 L 142,4 L 141,4 L 138,3" fill="none" stroke="black" stroke-width="1"/>
  <path d="M 121,77 L 120,75 L 120,74 L 118,72" fill="none" stroke="black" stroke-width="1"/>
  <path d="M 121,77 L 115,75 L 115,74 L 118,72" fill="none" stroke="black" stroke-width="1"/>
  <path d="M 125,82 L 123,80 L 122,78 L 121,77" fill="none" stroke="black" stroke-width="1"/>
  <path d="M 119,92 L 118,89 L 117,88 L 117,82 L 117,81 L 121,77" fill="none" stroke="black" stroke-width="1"/>
  <path d="M 142,94 L 138,92 L 137,91 L 134,89 L 134,88 L 131,86 L 130,85 L 125,82" fill="none" stroke="black" stroke-width="1"/>
  <path d="M 127,91 L 127,89 L 127,88 L 125,82" fill="none" stroke="black" stroke-width="1"/>
  <path d="M 74,154 L 74,157 L 75,158 L 73,163 L 72,164 L 69,170 L 68,171 L 66,174 L 65,176 L 64,179 L 63,180 L 62,185 L 62,186 L 61,191 L 61,192 L 65,196 L 66,196 L 73,193 L 74,192 L 75,191 L 76,190 L 80,186 L 81,184 L 86,180 L 87,179 L 91,173 L 92,172 L 94,164 L 94,163 L 95,160 L 96,159 L 99,156" fill="none" stroke="black" stroke-width="1"/>
  <path d="M 97,146 L 94,144 L 93,144 L 84,145 L 83,145 L 77,145 L 76,145 L 72,148 L 71,149 L 74,154" fill="none" stroke="black" stroke-width="1"/>
  <path d="M 74,154 L 70,150 L 69,151 L 69,156 L 70,156 L 74,154" fill="none" stroke="black" stroke-width="1"/>
  <path d="M 97,146 L 94,149 L 93,149 L 84,150 L 83,150 L 77,153 L 76,153 L 74,154" fill="none" stroke="black" stroke-width="1"/>
  <path d="M 104,150 L 99,153 L 98,153 L 94,154 L 93,155 L 89,157" fill="none" stroke="black" stroke-width="1"/>
  <path d="M 101,146 L 99,146 L 98,146 L 97,146" fill="none" stroke="black" stroke-width="1"/>
  <path d="M 115,135 L 113,137 L 112,138 L 108,141 L 107,142 L 101,146" fill="none" stroke="black" stroke-width="1"/>
  <path d="M 104,150 L 101,148 L 101,147 L 101,146" fill="none" stroke="black" stroke-width="1"/>
  <path d="M 115,135 L 118,139 L 118,140 L 116,144 L 115,145 L 113,149 L 112,150 L 108,151 L 107,151 L 104,150" fill="none" stroke="black" stroke-width="1"/>
  <path d="M 82,168 L 77,171 L 76,172 L 73,178 L 73,179 L 71,184" fill="none" stroke="black" stroke-width="1"/>
  <path d="M 123,153 L 121,155 L 121,156 L 119,163 L 118,164 L 113,169 L 112,170 L 108,173 L 107,174 L 101,181 L 100,182 L 98,190 L 97,191 L 97,195" fill="none" stroke="black" stroke-width="1"/>
  <path d="M 105,205 L 106,200 L 106,199 L 102,199 L 103,200 L 105,205" fill="none" stroke="black" stroke-width="1"/>
  <path d="M 108,147 L 110,146" fill="none" stroke="black" stroke-width="1"/>
  <path d="M 127,91 L 124,93 L 123,92 L 119,92" fill="none" stroke="black" stroke-width="1"/>
  <path d="M 115,135 L 115,133 L 115,132 L 117,127 L 118,126 L 122,118 L 122,117 L 122,110 L 121,109 L 120,103 L 120,102 L 119,96 L 119,95 L 119,92" fill="none" stroke="black" stroke-width="1"/>
  <path d="M 134,106 L 131,102 L 131,101 L 131,99 L 130,98 L 127,91" fill="none" stroke="black" stroke-width="1"/>
  <path d="M 127,114 L 128,110 L 128,109 L 126,104 L 125,103 L 125,99 L 125,98 L 127,91" fill="none" stroke="black" stroke-width="1"/>
  <path d="M 135,127 L 134,124 L 134,123 L 134,118 L 134,117 L 134,114" fill="none" stroke="black" stroke-width="1"/>
  <path d="M 123,145 L 123,143 L 123,142 L 124,140 L 123,139 L 123,133 L 123,132 L 122,130" fill="none" stroke="black" stroke-width="1"/>
  <path d="M 132,150 L 133,146 L 132,145 L 130,140 L 130,139 L 129,134 L 129,133 L 129,129 L 129,128 L 127,123 L 127,122 L 128,120" fill="none" stroke="black" stroke-width="1"/>
  <path d="M 123,153 L 127,148 L 127,147 L 123,145" fill="none" stroke="black" stroke-width="1"/>
  <path d="M 123,153 L 122,148 L 122,147 L 123,145" fill="none" stroke="black" stroke-width="1"/>
  <path d="M 128,149 L 123,153" fill="none" stroke="black" stroke-width="1"/>
  <path d="M 133,154 L 129,154 L 128,152 L 123,153" fill="none" stroke="black" stroke-width="1"/>
  <path d="M 110,204 L 110,200 L 110,199 L 111,193 L 111,192 L 114,189 L 115,188 L 117,186 L 118,185 L 123,181 L 124,180 L 125,177 L 126,176 L 126,173 L 126,172 L 126,164 L 126,163 L 125,156 L 125,155 L 123,153" fill="none" stroke="black" stroke-width="1"/>
  <path d="M 152,158 L 147,154 L 146,153 L 138,150 L 137,150 L 132,150" fill="none" stroke="black" stroke-width="1"/>
  <path d="M 133,154 L 132,152 L 132,151 L 132,150" fill="none" stroke="black" stroke-width="1"/>
  <path d="M 132,163 L 135,159 L 135,158 L 133,154" fill="none" stroke="black" stroke-width="1"/>
  <path d="M 132,163 L 131,159 L 130,158 L 133,154" fill="none" stroke="black" stroke-width="1"/>
  <path d="M 140,175 L 139,173 L 139,172 L 138,167 L 137,164 L 132,163" fill="none" stroke="black" stroke-width="1"/>
  <path d="M 132,176 L 133,173 L 133,172 L 132,167 L 132,166 L 132,163" fill="none" stroke="black" stroke-width="1"/>
  <path d="M 152,104 L 153,102 L 153,101 L 153,99 L 152,98 L 146,95 L 145,94 L 142,94" fill="none" stroke="black" stroke-width="1"/>
  <path d="M 143,105 L 143,104 L 143,103 L 142,99 L 142,98 L 142,94" fill="none" stroke="black" stroke-width="1"/>
  <path d="M 147,110 L 143,105" fill="none" stroke="black" stroke-width="1"/>
  <path d="M 148,111 L 150,118 L 150,119 L 151,123 L 151,124 L 151,129 L 151,130 L 152,137 L 152,138 L 148,140 L 147,139 L 145,136 L 145,135 L 143,131 L 143,130 L 141,125 L 140,124 L 139,120 L 139,119 L 139,113 L 139,112 L 143,105" fill="none" stroke="black" stroke-width="1"/>
  <path d="M 149,102 L 152,104" fill="none" stroke="black" stroke-width="1"/>
  <path d="M 174,147 L 172,149 L 171,149 L 169,147 L 168,146 L 164,140 L 164,139 L 161,134 L 160,133 L 159,130 L 158,129 L 157,120 L 156,119 L 155,110 L 155,109 L 152,104" fill="none" stroke="black" stroke-width="1"/>
  <path d="M 165,108 L 165,106 L 165,105 L 163,101 L 162,101 L 160,101" fill="none" stroke="black" stroke-width="1"/>
  <path d="M 159,103 L 160,101" fill="none" stroke="black" stroke-width="1"/>
  <path d="M 157,100 L 160,101" fill="none" stroke="black" stroke-width="1"/>
  <path d="M 166,119 L 165,117 L 164,116 L 161,110 L 161,109 L 160,107" fill="none" stroke="black" stroke-width="1"/>
  <path d="M 171,119 L 168,118 L 167,118 L 166,119" fill="none" stroke="black" stroke-width="1"/>
  <path d="M 174,126 L 168,123 L 167,121 L 166,119" fill="none" stroke="black" stroke-width="1"/>
  <path d="M 171,119 L 175,115 L 174,114 L 173,111" fill="none" stroke="black" stroke-width="1"/>
  <path d="M 179,127 L 180,125 L 179,124 L 178,119 L 177,118 L 171,119" fill="none" stroke="black" stroke-width="1"/>
  <path d="M 174,126 L 173,122 L 173,121 L 171,119" fill="none" stroke="black" stroke-width="1"/>
  <path d="M 179,127 L 178,128 L 177,128 L 174,126" fill="none" stroke="black" stroke-width="1"/>
  <path d="M 174,146 L 175,138 L 175,137 L 174,130 L 174,129 L 174,126" fill="none" stroke="black" stroke-width="1"/>
  <path d="M 139,155 L 142,162 L 142,163 L 147,168" fill="none" stroke="black" stroke-width="1"/>
  <path d="M 168,164 L 167,163 L 166,163 L 157,165 L 156,165 L 150,167 L 149,167 L 147,168" fill="none" stroke="black" stroke-width="1"/>
  <path d="M 140,175 L 144,173 L 144,172 L 147,168" fill="none" stroke="black" stroke-width="1"/>
  <path d="M 208,173 L 203,169 L 202,169 L 198,168 L 197,168 L 192,165 L 191,165 L 185,163 L 184,163 L 182,162 L 181,163 L 178,162 L 177,162 L 172,162 L 171,162 L 168,164" fill="none" stroke="black" stroke-width="1"/>
  <path d="M 209,184 L 208,183 L 207,183 L 203,181 L 202,180 L 198,177 L 197,177 L 195,176 L 194,175 L 191,173 L 190,172 L 185,171 L 184,171 L 182,171 L 181,171 L 178,171 L 177,170 L 172,170 L 171,169 L 169,166 L 169,165 L 168,164" fill="none" stroke="black" stroke-width="1"/>
  <path d="M 183,131 L 182,130 L 181,129 L 179,127" fill="none" stroke="black" stroke-width="1"/>
  <path d="M 147,179 L 145,177 L 145,176 L 140,175" fill="none" stroke="black" stroke-width="1"/>
  <path d="M 141,179 L 140,177 L 140,176 L 140,175" fill="none" stroke="black" stroke-width="1"/>
  <path d="M 147,182 L 144,186 L 143,186 L 139,183 L 138,183 L 134,181" fill="none" stroke="black" stroke-width="1"/>
  <path d="M 153,189 L 150,191" fill="none" stroke="black" stroke-width="1"/>
  <path d="M 217,164 L 216,165 L 217,164 L 216,163 L 215,164 L 213,164 L 212,164 L 204,167 L 204,168 L 208,173" fill="none" stroke="black" stroke-width="1"/>
  <path d="M 209,184 L 214,180 L 212,179 L 210,175 L 209,174 L 208,173" fill="none" stroke="black" stroke-width="1"/>
  <path d="M 230,161 L 227,162 L 226,162 L 224,161 L 223,161 L 217,164" fill="none" stroke="black" stroke-width="1"/>
  <path d="M 204,175 L 205,177" fill="none" stroke="black" stroke-width="1"/>
  <path d="M 224,199 L 220,190 L 220,189 L 216,183 L 215,181 L 209,184" fill="none" stroke="black" stroke-width="1"/>
  <path d="M 212,188 L 211,186 L 210,185 L 209,184" fill="none" stroke="black" stroke-width="1"/>
  <path d="M 239,157 L 240,156 L 240,155 L 239,149 L 239,148 L 237,140 L 237,139 L 239,137" fill="none" stroke="black" stroke-width="1"/>
  <path d="M 239,157 L 234,159 L 233,159 L 230,161" fill="none" stroke="black" stroke-width="1"/>
  <path d="M 239,157 L 234,162 L 233,162 L 230,161" fill="none" stroke="black" stroke-width="1"/>
  <path d="M 247,171 L 245,169 L 245,168 L 242,163 L 241,161 L 239,157" fill="none" stroke="black" stroke-width="1"/>
  <path d="M 249,159 L 247,157 L 246,157 L 245,156 L 244,155 L 242,150" fill="none" stroke="black" stroke-width="1"/>
  <path d="M 255,161 L 252,159 L 251,159 L 249,159" fill="none" stroke="black" stroke-width="1"/>
  <path d="M 255,161 L 252,162 L 251,162 L 249,159" fill="none" stroke="black" stroke-width="1"/>
  <path d="M 247,171 L 248,169 L 248,168 L 248,164 L 248,163 L 249,159" fill="none" stroke="black" stroke-width="1"/>
  <path d="M 283,150 L 283,154 L 283,155 L 280,160 L 279,160 L 277,161 L 276,161 L 270,161 L 269,161 L 263,161 L 262,161 L 258,161 L 257,161 L 255,161" fill="none" stroke="black" stroke-width="1"/>
  <path d="M 250,178 L 250,174 L 250,173 L 247,171" fill="none" stroke="black" stroke-width="1"/>
  <path d="M 250,178 L 247,174 L 247,173 L 247,171" fill="none" stroke="black" stroke-width="1"/>
  <path d="M 254,191 L 255,188 L 254,187 L 252,184 L 252,183 L 250,178" fill="none" stroke="black" stroke-width="1"/>
  <path d="M 71,267 L 68,267 L 68,268 L 71,268" fill="none" stroke="black" stroke-width="1"/>
  <path d="M 84,233 L 83,229 L 82,228 L 82,225" fill="none" stroke="black" stroke-width="1"/>
  <path d="M 94,248 L 94,244 L 93,243 L 92,238 L 92,237 L 90,234 L 89,235 L 86,234 L 85,234 L 84,233" fill="none" stroke="black" stroke-width="1"/>
  <path d="M 94,248 L 90,245 L 89,244 L 87,243 L 86,243 L 84,242 L 84,241 L 84,237 L 84,236 L 84,233" fill="none" stroke="black" stroke-width="1"/>
  <path d="M 99,216 L 100,213 L 100,212 L 99,209" fill="none" stroke="black" stroke-width="1"/>
  <path d="M 110,204 L 109,203 L 108,202 L 105,205" fill="none" stroke="black" stroke-width="1"/>
  <path d="M 101,223 L 104,220 L 105,219 L 106,210 L 106,209 L 105,205" fill="none" stroke="black" stroke-width="1"/>
  <path d="M 118,228 L 117,224 L 116,223 L 115,220 L 115,219 L 111,210 L 111,209 L 110,204" fill="none" stroke="black" stroke-width="1"/>
  <path d="M 108,223 L 106,224 L 105,225 L 101,223" fill="none" stroke="black" stroke-width="1"/>
  <path d="M 106,231 L 103,227 L 104,226 L 101,223" fill="none" stroke="black" stroke-width="1"/>
  <path d="M 100,230 L 99,230 L 98,230 L 97,227 L 98,226 L 101,223" fill="none" stroke="black" stroke-width="1"/>
  <path d="M 94,254 L 96,251 L 95,250 L 94,248" fill="none" stroke="black" stroke-width="1"/>
  <path d="M 106,231 L 102,229 L 101,229 L 100,230" fill="none" stroke="black" stroke-width="1"/>
  <path d="M 107,243 L 105,244 L 104,242 L 100,236 L 100,235 L 100,230" fill="none" stroke="black" stroke-width="1"/>
  <path d="M 107,243 L 106,236 L 106,235 L 106,231" fill="none" stroke="black" stroke-width="1"/>
  <path d="M 147,272 L 142,272 L 141,272 L 133,270 L 132,270 L 124,265 L 123,264 L 121,262 L 120,261 L 115,257 L 114,256 L 110,253 L 109,251 L 108,250 L 107,249 L 106,246 L 106,245 L 107,243" fill="none" stroke="black" stroke-width="1"/>
  <path d="M 116,234 L 113,232 L 113,231 L 112,228" fill="none" stroke="black" stroke-width="1"/>
  <path d="M 127,243 L 121,242 L 120,240 L 118,237 L 117,234 L 116,234" fill="none" stroke="black" stroke-width="1"/>
  <path d="M 114,239 L 116,234" fill="none" stroke="black" stroke-width="1"/>
  <path d="M 194,209 L 194,205 L 194,204 L 191,202" fill="none" stroke="black" stroke-width="1"/>
  <path d="M 208,246 L 212,244 L 213,244 L 215,243 L 216,242 L 223,238 L 223,237 L 225,232 L 225,231 L 226,227 L 227,226 L 227,221 L 227,220 L 227,213 L 227,212 L 226,205 L 226,204 L 224,202" fill="none" stroke="black" stroke-width="1"/>
  <path d="M 127,243 L 124,240 L 124,239 L 125,237" fill="none" stroke="black" stroke-width="1"/>
  <path d="M 138,249 L 133,248 L 132,246 L 129,245 L 128,244 L 127,243" fill="none" stroke="black" stroke-width="1"/>
  <path d="M 151,264 L 148,264 L 147,265 L 142,266 L 141,266 L 133,262 L 132,261 L 128,257 L 127,256 L 125,252 L 125,251 L 123,246 L 122,245 L 127,243" fill="none" stroke="black" stroke-width="1"/>
  <path d="M 149,225 L 144,225 L 143,225 L 140,222 L 139,221 L 140,219" fill="none" stroke="black" stroke-width="1"/>
  <path d="M 147,221 L 146,219" fill="none" stroke="black" stroke-width="1"/>
  <path d="M 152,255 L 145,255 L 144,255 L 141,256" fill="none" stroke="black" stroke-width="1"/>
  <path d="M 161,227 L 159,222 L 159,221 L 157,216 L 156,215 L 155,210 L 154,209 L 158,207" fill="none" stroke="black" stroke-width="1"/>
  <path d="M 166,241 L 168,244 L 169,245 L 161,252 L 160,252 L 159,249" fill="none" stroke="black" stroke-width="1"/>
  <path d="M 186,256 L 181,253 L 180,253 L 174,256 L 173,256 L 167,259 L 166,260 L 165,261 L 164,261 L 160,264 L 160,265 L 161,269" fill="none" stroke="black" stroke-width="1"/>
  <path d="M 187,240 L 184,238 L 183,238 L 177,238" fill="none" stroke="black" stroke-width="1"/>
  <path d="M 186,256 L 183,251 L 183,250 L 186,247" fill="none" stroke="black" stroke-width="1"/>
  <path d="M 196,252 L 191,253 L 190,253 L 186,256" fill="none" stroke="black" stroke-width="1"/>
  <path d="M 189,272 L 188,275 L 187,276 L 181,273 L 181,272 L 184,266 L 184,265 L 183,260 L 183,259 L 186,256" fill="none" stroke="black" stroke-width="1"/>
  <path d="M 211,205 L 211,209 L 211,210 L 211,215 L 211,216 L 210,225 L 210,226 L 212,229" fill="none" stroke="black" stroke-width="1"/>
  <path d="M 194,226 L 194,221 L 194,220 L 194,218" fill="none" stroke="black" stroke-width="1"/>
  <path d="M 201,240 L 202,237 L 202,236 L 201,231 L 201,230 L 200,228" fill="none" stroke="black" stroke-width="1"/>
  <path d="M 219,229 L 216,229 L 215,230 L 212,229" fill="none" stroke="black" stroke-width="1"/>
  <path d="M 201,240 L 204,240 L 205,239 L 208,237 L 208,236 L 210,232 L 211,231 L 212,229" fill="none" stroke="black" stroke-width="1"/>
  <path d="M 201,240 L 196,240 L 195,240 L 192,243 L 192,244 L 195,245 L 196,245 L 200,246" fill="none" stroke="black" stroke-width="1"/>
  <path d="M 200,246 L 201,243 L 202,242 L 201,240" fill="none" stroke="black" stroke-width="1"/>
  <path d="M 208,246 L 205,247 L 204,247 L 200,246" fill="none" stroke="black" stroke-width="1"/>
  <path d="M 196,252 L 197,250 L 197,249 L 200,246" fill="none" stroke="black" stroke-width="1"/>
  <path d="M 202,256 L 200,255 L 199,254 L 196,252" fill="none" stroke="black" stroke-width="1"/>
  <path d="M 202,256 L 203,255 L 203,254 L 203,252" fill="none" stroke="black" stroke-width="1"/>
  <path d="M 208,246 L 211,242 L 212,241 L 213,239" fill="none" stroke="black" stroke-width="1"/>
  <path d="M 205,251 L 206,249 L 206,248 L 208,246" fill="none" stroke="black" stroke-width="1"/>
  <path d="M 191,269 L 198,267 L 197,266 L 199,263 L 200,264 L 207,266 L 208,265 L 212,260 L 212,259 L 207,256 L 206,256 L 202,256" fill="none" stroke="black" stroke-width="1"/>
  <path d="M 219,229 L 220,227 L 220,226 L 222,221 L 222,220 L 222,215 L 222,214 L 220,210" fill="none" stroke="black" stroke-width="1"/>
  <path d="M 219,235 L 219,232 L 220,231 L 219,229" fill="none" stroke="black" stroke-width="1"/>
  <path d="M 146,281 L 142,284 L 141,285 L 137,291 L 136,292 L 134,297 L 134,298 L 141,299 L 142,298 L 144,297 L 145,296 L 146,295 L 147,294 L 149,293" fill="none" stroke="black" stroke-width="1"/>
  <path d="M 161,269 L 158,270 L 157,270 L 150,270 L 149,270 L 147,272" fill="none" stroke="black" stroke-width="1"/>
  <path d="M 146,281 L 148,277 L 148,276 L 147,272" fill="none" stroke="black" stroke-width="1"/>
  <path d="M 152,282 L 150,279 L 149,278 L 146,281" fill="none" stroke="black" stroke-width="1"/>
  <path d="M 163,279 L 158,281 L 157,281 L 152,282" fill="none" stroke="black" stroke-width="1"/>
  <path d="M 149,293 L 151,290 L 151,289 L 151,285 L 151,284 L 152,282" fill="none" stroke="black" stroke-width="1"/>
  <path d="M 170,266 L 169,267 L 168,266 L 165,266 L 164,266 L 161,269" fill="none" stroke="black" stroke-width="1"/>
  <path d="M 163,279 L 163,277 L 162,276 L 161,272 L 160,271 L 161,269" fill="none" stroke="black" stroke-width="1"/>
  <path d="M 170,277 L 165,280 L 164,280 L 163,279" fill="none" stroke="black" stroke-width="1"/>
  <path d="M 179,265 L 176,263 L 175,263 L 170,266" fill="none" stroke="black" stroke-width="1"/>
  <path d="M 175,276 L 174,273 L 173,272 L 171,269 L 171,268 L 170,266" fill="none" stroke="black" stroke-width="1"/>
  <path d="M 175,280 L 177,287" fill="none" stroke="black" stroke-width="1"/>
  <path d="M 184,288 L 181,286 L 180,286 L 177,287" fill="none" stroke="black" stroke-width="1"/>
  <path d="M 165,299 L 170,297 L 171,298 L 176,297 L 175,296 L 172,290 L 172,289 L 177,287" fill="none" stroke="black" stroke-width="1"/>
  <path d="M 203,289 L 198,287 L 197,287 L 188,285 L 187,284 L 184,288" fill="none" stroke="black" stroke-width="1"/>
  <path d="M 186,292 L 186,290 L 184,289 L 184,288" fill="none" stroke="black" stroke-width="1"/>
  <path d="M 162,293 L 154,292 L 153,291 L 149,293" fill="none" stroke="black" stroke-width="1"/>
  <path d="M 165,299 L 167,295 L 167,294 L 164,291 L 163,292 L 162,293" fill="none" stroke="black" stroke-width="1"/>
  <path d="M 159,297 L 160,295 L 161,294 L 162,293" fill="none" stroke="black" stroke-width="1"/>
  <path d="M 159,297 L 157,295 L 155,294 L 162,293" fill="none" stroke="black" stroke-width="1"/>
  <path d="M 165,299 L 164,299 L 163,299 L 159,297" fill="none" stroke="black" stroke-width="1"/>
  <path d="M 161,306 L 162,301 L 162,300 L 159,297" fill="none" stroke="black" stroke-width="1"/>
  <path d="M 155,306 L 150,304 L 149,305 L 149,309 L 150,309 L 155,306" fill="none" stroke="black" stroke-width="1"/>
  <path d="M 161,306 L 158,305 L 157,305 L 155,306" fill="none" stroke="black" stroke-width="1"/>
  <path d="M 169,323 L 167,322 L 166,320 L 165,314 L 165,313 L 164,305 L 163,305 L 161,306" fill="none" stroke="black" stroke-width="1"/>
  <path d="M 158,313 L 159,311 L 159,310 L 161,306" fill="none" stroke="black" stroke-width="1"/>
  <path d="M 158,313 L 154,314 L 153,315 L 149,320 L 149,321 L 150,323 L 151,323 L 156,324" fill="none" stroke="black" stroke-width="1"/>
  <path d="M 156,324 L 157,321 L 157,320 L 158,313" fill="none" stroke="black" stroke-width="1"/>
  <path d="M 157,330 L 157,327 L 157,326 L 156,324" fill="none" stroke="black" stroke-width="1"/>
  <path d="M 157,330 L 153,327 L 154,326 L 156,324" fill="none" stroke="black" stroke-width="1"/>
  <path d="M 158,332 L 157,330" fill="none" stroke="black" stroke-width="1"/>
  <path d="M 158,333 L 152,333 L 152,332 L 157,330" fill="none" stroke="black" stroke-width="1"/>
  <path d="M 171,309 L 168,304 L 168,303 L 165,299" fill="none" stroke="black" stroke-width="1"/>
  <path d="M 191,292 L 188,291 L 187,291 L 186,292" fill="none" stroke="black" stroke-width="1"/>
  <path d="M 191,292 L 188,296 L 187,295 L 186,292" fill="none" stroke="black" stroke-width="1"/>
  <path d="M 175,305 L 171,309" fill="none" stroke="black" stroke-width="1"/>
  <path d="M 176,305 L 176,309 L 175,309 L 171,309" fill="none" stroke="black" stroke-width="1"/>
  <path d="M 177,314 L 174,312 L 174,311 L 171,309" fill="none" stroke="black" stroke-width="1"/>
  <path d="M 169,323 L 170,321 L 170,320 L 170,312 L 170,311 L 171,309" fill="none" stroke="black" stroke-width="1"/>
  <path d="M 172,328 L 171,326 L 171,325 L 169,323" fill="none" stroke="black" stroke-width="1"/>
  <path d="M 185,321 L 182,317 L 181,316 L 177,314" fill="none" stroke="black" stroke-width="1"/>
  <path d="M 185,322 L 186,326 L 186,327 L 183,328 L 182,328 L 181,327 L 180,326 L 178,322 L 178,321 L 177,314" fill="none" stroke="black" stroke-width="1"/>
  <path d="M 203,297 L 198,295 L 197,294 L 191,292" fill="none" stroke="black" stroke-width="1"/>
  <path d="M 196,301 L 195,300 L 193,299 L 191,292" fill="none" stroke="black" stroke-width="1"/>
  <path d="M 210,291 L 208,289 L 207,289 L 203,289" fill="none" stroke="black" stroke-width="1"/>
  <path d="M 210,291 L 208,292 L 207,292 L 203,289" fill="none" stroke="black" stroke-width="1"/>
  <path d="M 202,303 L 199,301 L 198,301 L 196,301" fill="none" stroke="black" stroke-width="1"/>
  <path d="M 203,307 L 205,312 L 205,313 L 202,317 L 201,315 L 199,313 L 198,312 L 197,307 L 197,306 L 196,301" fill="none" stroke="black" stroke-width="1"/>
  <path d="M 222,301 L 220,301 L 219,302 L 212,304 L 211,305 L 208,305 L 207,305 L 202,303" fill="none" stroke="black" stroke-width="1"/>
  <path d="M 202,306 L 202,303" fill="none" stroke="black" stroke-width="1"/>
  <path d="M 223,275 L 216,268 L 215,269 L 212,273 L 212,274 L 212,280 L 212,281 L 214,285 L 215,286 L 214,292 L 213,292 L 210,291" fill="none" stroke="black" stroke-width="1"/>
  <path d="M 235,271 L 234,273" fill="none" stroke="black" stroke-width="1"/>
  <path d="M 245,274 L 242,276 L 241,276 L 236,278 L 235,279 L 234,282" fill="none" stroke="black" stroke-width="1"/>
  <path d="M 229,302 L 226,300 L 225,300 L 222,301" fill="none" stroke="black" stroke-width="1"/>
  <path d="M 229,302 L 226,304 L 225,304 L 222,301" fill="none" stroke="black" stroke-width="1"/>
  <path d="M 234,302 L 232,302 L 231,302 L 229,302" fill="none" stroke="black" stroke-width="1"/>
  <path d="M 220,308 L 218,308 L 217,308 L 215,308" fill="none" stroke="black" stroke-width="1"/>
  <path d="M 231,309 L 229,309 L 228,309 L 224,308 L 223,307 L 220,308" fill="none" stroke="black" stroke-width="1"/>
  <path d="M 224,314 L 223,313 L 222,312 L 220,311 L 219,310 L 220,308" fill="none" stroke="black" stroke-width="1"/>
  <path d="M 240,315 L 236,310 L 235,309 L 231,309" fill="none" stroke="black" stroke-width="1"/>
  <path d="M 233,314 L 230,311 L 230,310 L 231,309" fill="none" stroke="black" stroke-width="1"/>
  <path d="M 217,317 L 213,313 L 212,313 L 211,317 L 211,318 L 213,320 L 214,321 L 217,318" fill="none" stroke="black" stroke-width="1"/>
  <path d="M 233,314 L 229,317 L 228,316 L 224,314" fill="none" stroke="black" stroke-width="1"/>
  <path d="M 233,325 L 228,325 L 228,324 L 226,321 L 226,320 L 224,314" fill="none" stroke="black" stroke-width="1"/>
  <path d="M 240,315 L 236,315 L 235,315 L 233,314" fill="none" stroke="black" stroke-width="1"/>
  <path d="M 233,324 L 232,321 L 232,320 L 233,314" fill="none" stroke="black" stroke-width="1"/>
  <path d="M 258,262 L 254,261 L 253,261 L 252,259 L 252,258 L 247,256 L 246,256 L 244,259 L 244,260 L 243,265 L 243,266 L 243,267" fill="none" stroke="black" stroke-width="1"/>
  <path d="M 243,267 L 241,268 L 240,268 L 236,267" fill="none" stroke="black" stroke-width="1"/>
  <path d="M 245,274 L 245,272 L 245,271 L 243,267" fill="none" stroke="black" stroke-width="1"/>
  <path d="M 250,276 L 247,274 L 246,274 L 245,274" fill="none" stroke="black" stroke-width="1"/>
  <path d="M 243,315 L 240,315" fill="none" stroke="black" stroke-width="1"/>
  <path d="M 258,262 L 259,264 L 259,265 L 260,269 L 259,270 L 254,273 L 253,274 L 250,276" fill="none" stroke="black" stroke-width="1"/>
  <path d="M 247,279 L 250,276" fill="none" stroke="black" stroke-width="1"/>
  <path d="M 258,262 L 258,260 L 258,259 L 258,257" fill="none" stroke="black" stroke-width="1"/>
  <path d="M 283,150 L 282,148 L 282,147 L 282,143" fill="none" stroke="black" stroke-width="1"/>
  <path d="M 298,165 L 297,168 L 298,165 L 297,164 L 296,164 L 291,160 L 290,158 L 287,155 L 287,154 L 283,150" fill="none" stroke="black" stroke-width="1"/>
  <path d="M 295,169 L 289,169 L 288,168 L 287,167 L 286,166 L 285,164 L 284,164 L 280,164" fill="none" stroke="black" stroke-width="1"/>
  <path d="M 296,168 L 295,169" fill="none" stroke="black" stroke-width="1"/>
  <path d="M 294,176 L 295,173 L 294,172 L 295,169" fill="none" stroke="black" stroke-width="1"/>
  <path d="M 294,176 L 291,173 L 290,172 L 295,169" fill="none" stroke="black" stroke-width="1"/>
  <path d="M 296,183 L 296,180 L 295,179 L 294,176" fill="none" stroke="black" stroke-width="1"/>
  <path d="M 300,158 L 301,161 L 302,162 L 298,165" fill="none" stroke="black" stroke-width="1"/>
  <path d="M 313,202 L 314,199 L 314,198 L 315,192 L 315,191 L 314,184 L 314,183 L 312,179 L 311,178 L 309,174 L 308,171 L 306,169 L 305,167 L 298,165" fill="none" stroke="black" stroke-width="1"/>
  <path d="M 307,189 L 310,186 L 309,185 L 307,180 L 307,179 L 304,174 L 303,173 L 299,170 L 298,169 L 298,165" fill="none" stroke="black" stroke-width="1"/>
  <path d="M 276,255 L 273,256 L 272,255 L 269,252 L 268,251 L 266,247" fill="none" stroke="black" stroke-width="1"/>
  <path d="M 276,255 L 277,252 L 277,251 L 276,249" fill="none" stroke="black" stroke-width="1"/>
  <path d="M 283,251 L 282,252 L 281,253 L 280,255 L 279,255 L 276,255" fill="none" stroke="black" stroke-width="1"/>
  <path d="M 301,220 L 300,224 L 300,225 L 299,230 L 299,231 L 296,235 L 295,236 L 291,240 L 291,241 L 289,243 L 288,244 L 284,244" fill="none" stroke="black" stroke-width="1"/>
  <path d="M 283,251 L 287,247 L 287,246 L 284,244" fill="none" stroke="black" stroke-width="1"/>
  <path d="M 283,251 L 283,247 L 283,246 L 284,244" fill="none" stroke="black" stroke-width="1"/>
  <path d="M 301,220 L 299,218 L 299,217 L 300,215" fill="none" stroke="black" stroke-width="1"/>
  <path d="M 305,218 L 304,219 L 303,219 L 301,220" fill="none" stroke="black" stroke-width="1"/>
  <path d="M 307,200 L 306,198 L 306,197 L 307,195" fill="none" stroke="black" stroke-width="1"/>
  <path d="M 313,202 L 310,201 L 309,200 L 307,200" fill="none" stroke="black" stroke-width="1"/>
  <path d="M 308,212 L 308,207 L 308,206 L 307,200" fill="none" stroke="black" stroke-width="1"/>
  <path d="M 313,202 L 313,206 L 313,207 L 313,211 L 313,212 L 310,213 L 309,213 L 308,212" fill="none" stroke="black" stroke-width="1"/>
  <path d="M 305,218 L 307,215 L 308,214 L 308,212" fill="none" stroke="black" stroke-width="1"/>
  <path d="M 307,233 L 305,229 L 305,228 L 305,222 L 306,221 L 305,218" fill="none" stroke="black" stroke-width="1"/>
  <path d="M 311,298 L 307,298" fill="none" stroke="black" stroke-width="1"/>
  <path d="M 371,298 L 366,297 L 365,297 L 360,295 L 359,295 L 354,293 L 353,293 L 348,291 L 347,291 L 343,289 L 342,289 L 336,287 L 335,286 L 330,287 L 329,288 L 327,289" fill="none" stroke="black" stroke-width="1"/>
  <path d="M 358,351 L 355,350 L 354,350 L 351,351" fill="none" stroke="black" stroke-width="1"/>
</svg>