<svg xmlns="http://www.w3.org/2000/svg" width="129" height="112">
  <path d="M 16,74 L 14,67 L 14,66 L 13,61 L 13,60 L 16,58" fill="none" stroke="black" stroke-width="1"/>
  <path d="M 35,68 L 33,73 L 33,74 L 31,81 L 30,81 L 25,74 L 25,73 L 21,67 L 20,68 L 16,74" fill="none" stroke="black" stroke-width="1"/>
  <path d="M 16,79 L 16,76 L 16,75 L 16,74" fill="none" stroke="black" stroke-width="1"/>
  <path d="M 40,61 L 41,60 L 41,59 L 36,59 L 36,60 L 40,61" fill="none" stroke="black" stroke-width="1"/>
  <path d="M 35,68 L 35,66 L 36,65 L 40,61" fill="none" stroke="black" stroke-width="1"/>
  <path d="M 53,49 L 51,54 L 51,55 L 51,58 L 51,59 L 49,64 L 49,65 L 45,70 L 44,70 L 39,69 L 38,69 L 35,68" fill="none" stroke="black" stroke-width="1"/>
  <path d="M 53,49 L 53,47 L 53,46 L 52,39 L 52,38 L 54,35" fill="none" stroke="black" stroke-width="1"/>
  <path d="M 68,47 L 64,52 L 63,53 L 59,54 L 58,53 L 53,49" fill="none" stroke="black" stroke-width="1"/>
  <path d="M 68,47 L 68,46 L 68,45 L 68,39 L 69,38 L 69,30 L 69,29 L 68,26" fill="none" stroke="black" stroke-width="1"/>
  <path d="M 80,49 L 77,51 L 76,51 L 72,50 L 71,49 L 68,47" fill="none" stroke="black" stroke-width="1"/>
  <path d="M 80,49 L 81,48 L 81,47 L 80,46" fill="none" stroke="black" stroke-width="1"/>
  <path d="M 104,37 L 101,35 L 100,35 L 95,36 L 94,37 L 90,37 L 89,37 L 88,43 L 88,44 L 83,50 L 82,49 L 80,49" fill="none" stroke="black" stroke-width="1"/>
</svg>