<?xml version="1.0" encoding="utf-8" ?>
<svg xmlns="http://www.w3.org/2000/svg" xmlns:cc="http://creativecommons.org/ns" xmlns:dc="http://purl.org/dc/elements/1.1/" xmlns:ev="http://www.w3.org/2001/xml-events" xmlns:inkscape="http://www.inkscape.org/namespaces/inkscape" xmlns:rdf="http://www.w3.org/1999/02/22-rdf-syntax-ns" xmlns:sodipodi="http://sodipodi.sourceforge.net/DTD/sodipodi-0.dtd" xmlns:xlink="http://www.w3.org/1999/xlink" baseProfile="tiny" height="2.96333333cm" version="1.2" viewBox="0 0 129.0 112.0" width="3.413125cm">
  <metadata>
    <rdf:RDF>
      <cc:Work>
        <dc:format>image/svg+xml</dc:format>
        <dc:source>vpype read ./images/skeletonhello.svg linemerge --tolerance 0.1mm linesort write outputfile.svg
</dc:source>
        <dc:date>2026-02-24T13:39:42.742519</dc:date>
      </cc:Work>
    </rdf:RDF>
  </metadata>
  <defs/>
  <g fill="none" id="layer1" inkscape:groupmode="layer" inkscape:label="1" stroke="#000000" stroke-width="1.0" style="display:inline">
    <polyline points="16.0,79.0 16.0,76.0 16.0,75.0 16.0,74.0 16.0,74.0 14.0,67.0 14.0,66.0 13.0,61.0 13.0,60.0 16.0,58.0"/>
    <polyline points="16.0,74.0 20.0,68.0 21.0,67.0 25.0,73.0 25.0,74.0 30.0,81.0 31.0,81.0 33.0,74.0 33.0,73.0 35.0,68.0 35.0,68.0 35.0,66.0 36.0,65.0 40.0,61.0 40.0,61.0 41.0,60.0 41.0,59.0 36.0,59.0 36.0,60.0 40.0,61.0"/>
    <polyline points="35.0,68.0 38.0,69.0 39.0,69.0 44.0,70.0 45.0,70.0 49.0,65.0 49.0,64.0 51.0,59.0 51.0,58.0 51.0,55.0 51.0,54.0 53.0,49.0 53.0,49.0 53.0,47.0 53.0,46.0 52.0,39.0 52.0,38.0 54.0,35.0"/>
    <polyline points="53.0,49.0 58.0,53.0 59.0,54.0 63.0,53.0 64.0,52.0 68.0,47.0 68.0,47.0 68.0,46.0 68.0,45.0 68.0,39.0 69.0,38.0 69.0,30.0 69.0,29.0 68.0,26.0"/>
    <polyline points="68.0,47.0 71.0,49.0 72.0,50.0 76.0,51.0 77.0,51.0 80.0,49.0 80.0,49.0 81.0,48.0 81.0,47.0 80.0,46.0"/>
    <polyline points="80.0,49.0 82.0,49.0 83.0,50.0 88.0,44.0 88.0,43.0 89.0,37.0 90.0,37.0 94.0,37.0 95.0,36.0 100.0,35.0 101.0,35.0 104.0,37.0"/>
  </g>
</svg>
